<?xml version="1.0" encoding="UTF-8"?>
<svg xmlns="http://www.w3.org/2000/svg" xmlns:xlink="http://www.w3.org/1999/xlink" width="50pt" height="50pt" viewBox="0 0 50 50" version="1.1">
<g id="surface1">
<path style=" stroke:none;fill-rule:nonzero;fill:rgb(88.235294%,94.117647%,100%);fill-opacity:1;" d="M 45.605469 50 L 4.394531 50 C 1.972656 50 0 48.027344 0 45.605469 L 0 13.183594 C 0 12.375 0.65625 11.71875 1.464844 11.71875 L 48.535156 11.71875 C 49.34375 11.71875 50 12.375 50 13.183594 L 50 45.605469 C 50 48.027344 48.027344 50 45.605469 50 Z M 45.605469 50 "/>
<path style=" stroke:none;fill-rule:nonzero;fill:rgb(74.509804%,86.27451%,94.117647%);fill-opacity:1;" d="M 48.535156 11.71875 L 25 11.71875 L 25 50 L 45.605469 50 C 48.027344 50 50 48.027344 50 45.605469 L 50 13.183594 C 50 12.375 49.34375 11.71875 48.535156 11.71875 Z M 48.535156 11.71875 "/>
<path style=" stroke:none;fill-rule:nonzero;fill:rgb(36.862745%,32.941176%,67.45098%);fill-opacity:1;" d="M 45.605469 0 L 4.394531 0 C 1.972656 0 0 1.972656 0 4.394531 L 0 13.183594 L 50 13.183594 L 50 4.394531 C 50 1.972656 48.027344 0 45.605469 0 Z M 45.605469 0 "/>
<path style=" stroke:none;fill-rule:nonzero;fill:rgb(27.058824%,23.921569%,50.588235%);fill-opacity:1;" d="M 45.605469 0 L 25 0 L 25 13.183594 L 50 13.183594 L 50 4.394531 C 50 1.972656 48.027344 0 45.605469 0 Z M 45.605469 0 "/>
<path style=" stroke:none;fill-rule:nonzero;fill:rgb(54.509804%,72.54902%,100%);fill-opacity:1;" d="M 17.675781 36.328125 L 5.957031 36.328125 C 5.148438 36.328125 4.492188 35.671875 4.492188 34.863281 L 4.492188 32.910156 C 4.492188 28.871094 7.777344 25.585938 11.816406 25.585938 C 15.855469 25.585938 19.140625 28.871094 19.140625 32.910156 L 19.140625 34.863281 C 19.140625 35.671875 18.484375 36.328125 17.675781 36.328125 Z M 17.675781 36.328125 "/>
<path style=" stroke:none;fill-rule:nonzero;fill:rgb(27.843137%,57.647059%,100%);fill-opacity:1;" d="M 11.816406 25.585938 C 11.785156 25.585938 11.75 25.589844 11.71875 25.589844 L 11.71875 36.328125 L 17.675781 36.328125 C 18.484375 36.328125 19.140625 35.671875 19.140625 34.863281 L 19.140625 32.910156 C 19.140625 28.871094 15.855469 25.585938 11.816406 25.585938 Z M 11.816406 25.585938 "/>
<path style=" stroke:none;fill-rule:nonzero;fill:rgb(100%,38.823529%,47.058824%);fill-opacity:1;" d="M 8.886719 6.59375 C 8.886719 7.402344 8.230469 8.054688 7.421875 8.054688 C 6.613281 8.054688 5.957031 7.402344 5.957031 6.59375 C 5.957031 5.78125 6.613281 5.125 7.421875 5.125 C 8.230469 5.125 8.886719 5.78125 8.886719 6.59375 Z M 8.886719 6.59375 "/>
<path style=" stroke:none;fill-rule:nonzero;fill:rgb(0%,100%,57.647059%);fill-opacity:1;" d="M 14.746094 6.59375 C 14.746094 7.402344 14.089844 8.054688 13.28125 8.054688 C 12.472656 8.054688 11.816406 7.402344 11.816406 6.59375 C 11.816406 5.78125 12.472656 5.125 13.28125 5.125 C 14.089844 5.125 14.746094 5.78125 14.746094 6.59375 Z M 14.746094 6.59375 "/>
<path style=" stroke:none;fill-rule:nonzero;fill:rgb(100%,88.627451%,47.058824%);fill-opacity:1;" d="M 20.605469 6.59375 C 20.605469 7.402344 19.949219 8.054688 19.140625 8.054688 C 18.332031 8.054688 17.675781 7.402344 17.675781 6.59375 C 17.675781 5.78125 18.332031 5.125 19.140625 5.125 C 19.949219 5.125 20.605469 5.78125 20.605469 6.59375 Z M 20.605469 6.59375 "/>
<path style=" stroke:none;fill-rule:nonzero;fill:rgb(27.058824%,23.921569%,50.588235%);fill-opacity:1;" d="M 45.507812 20.703125 L 27.929688 20.703125 C 27.121094 20.703125 26.464844 20.046875 26.464844 19.238281 C 26.464844 18.429688 27.121094 17.773438 27.929688 17.773438 L 45.507812 17.773438 C 46.316406 17.773438 46.972656 18.429688 46.972656 19.238281 C 46.972656 20.046875 46.316406 20.703125 45.507812 20.703125 Z M 45.507812 20.703125 "/>
<path style=" stroke:none;fill-rule:nonzero;fill:rgb(27.058824%,23.921569%,50.588235%);fill-opacity:1;" d="M 45.507812 26.5625 L 27.929688 26.5625 C 27.121094 26.5625 26.464844 25.90625 26.464844 25.097656 C 26.464844 24.289062 27.121094 23.632812 27.929688 23.632812 L 45.507812 23.632812 C 46.316406 23.632812 46.972656 24.289062 46.972656 25.097656 C 46.972656 25.90625 46.316406 26.5625 45.507812 26.5625 Z M 45.507812 26.5625 "/>
<path style=" stroke:none;fill-rule:nonzero;fill:rgb(27.058824%,23.921569%,50.588235%);fill-opacity:1;" d="M 45.507812 32.421875 L 27.929688 32.421875 C 27.121094 32.421875 26.464844 31.765625 26.464844 30.957031 C 26.464844 30.148438 27.121094 29.492188 27.929688 29.492188 L 45.507812 29.492188 C 46.316406 29.492188 46.972656 30.148438 46.972656 30.957031 C 46.972656 31.765625 46.316406 32.421875 45.507812 32.421875 Z M 45.507812 32.421875 "/>
<path style=" stroke:none;fill-rule:nonzero;fill:rgb(100%,70.588235%,32.941176%);fill-opacity:1;" d="M 45.507812 44.140625 L 39.648438 44.140625 C 38.839844 44.140625 38.183594 43.484375 38.183594 42.675781 L 38.183594 36.816406 C 38.183594 36.007812 38.839844 35.351562 39.648438 35.351562 L 45.507812 35.351562 C 46.316406 35.351562 46.972656 36.007812 46.972656 36.816406 L 46.972656 42.675781 C 46.972656 43.484375 46.316406 44.140625 45.507812 44.140625 Z M 45.507812 44.140625 "/>
<path style=" stroke:none;fill-rule:nonzero;fill:rgb(100%,70.588235%,32.941176%);fill-opacity:1;" d="M 33.789062 44.140625 L 27.929688 44.140625 C 27.121094 44.140625 26.464844 43.484375 26.464844 42.675781 L 26.464844 36.816406 C 26.464844 36.007812 27.121094 35.351562 27.929688 35.351562 L 33.789062 35.351562 C 34.597656 35.351562 35.253906 36.007812 35.253906 36.816406 L 35.253906 42.675781 C 35.253906 43.484375 34.597656 44.140625 33.789062 44.140625 Z M 33.789062 44.140625 "/>
<path style=" stroke:none;fill-rule:nonzero;fill:rgb(36.862745%,32.941176%,67.45098%);fill-opacity:1;" d="M 16.699219 42.1875 L 5.957031 42.1875 C 5.148438 42.1875 4.492188 41.53125 4.492188 40.722656 C 4.492188 39.914062 5.148438 39.257812 5.957031 39.257812 L 16.699219 39.257812 C 17.507812 39.257812 18.164062 39.914062 18.164062 40.722656 C 18.164062 41.53125 17.507812 42.1875 16.699219 42.1875 Z M 16.699219 42.1875 "/>
<path style=" stroke:none;fill-rule:nonzero;fill:rgb(100%,76.470588%,66.666667%);fill-opacity:1;" d="M 11.816406 28.515625 C 8.855469 28.515625 6.445312 26.105469 6.445312 23.144531 C 6.445312 20.183594 8.855469 17.773438 11.816406 17.773438 C 14.777344 17.773438 17.1875 20.183594 17.1875 23.144531 C 17.1875 26.105469 14.777344 28.515625 11.816406 28.515625 Z M 11.816406 28.515625 "/>
<path style=" stroke:none;fill-rule:nonzero;fill:rgb(98.039216%,66.666667%,54.901961%);fill-opacity:1;" d="M 11.816406 17.773438 C 11.785156 17.773438 11.75 17.773438 11.71875 17.777344 L 11.71875 28.511719 C 11.75 28.515625 11.785156 28.515625 11.816406 28.515625 C 14.777344 28.515625 17.1875 26.105469 17.1875 23.144531 C 17.1875 20.183594 14.777344 17.773438 11.816406 17.773438 Z M 11.816406 17.773438 "/>
</g>
</svg>
