<svg id="setting" xmlns="http://www.w3.org/2000/svg" width="47.639" height="46.257" viewBox="0 0 47.639 46.257">
  <path id="Path_313" data-name="Path 313" d="M10.917,0h25.8A10.762,10.762,0,0,1,47.639,10.6V35.656a10.762,10.762,0,0,1-10.917,10.6h-25.8A10.762,10.762,0,0,1,0,35.656V10.6A10.762,10.762,0,0,1,10.917,0Z" fill="#3ffec6"/>
  <path id="Path_314" data-name="Path 314" d="M98.266,81.441a10.591,10.591,0,0,0,.058-1.1,11.188,11.188,0,0,0-.06-1.12l3-2.266a1.635,1.635,0,0,0,.39-2.141l-3.2-5.348a1.794,1.794,0,0,0-2.148-.7l-3.489,1.353A12.737,12.737,0,0,0,90.834,69L90.3,65.378A1.762,1.762,0,0,0,88.58,64h-6.4a1.772,1.772,0,0,0-1.732,1.442l-.527,3.586a13.268,13.268,0,0,0-1.975,1.111l-3.506-1.364a1.8,1.8,0,0,0-2.128.726l-3.2,5.324a1.645,1.645,0,0,0,.409,2.179l2.968,2.243a10.587,10.587,0,0,0-.058,1.1,11.188,11.188,0,0,0,.06,1.12L69.5,83.728a1.635,1.635,0,0,0-.39,2.141l3.2,5.348a1.79,1.79,0,0,0,2.143.708l3.489-1.355a12.714,12.714,0,0,0,1.977,1.115l.529,3.621a1.764,1.764,0,0,0,1.73,1.38h6.4a1.772,1.772,0,0,0,1.732-1.444l.522-3.585a13.351,13.351,0,0,0,1.975-1.11l3.508,1.36a1.781,1.781,0,0,0,2.13-.726l3.2-5.322a1.647,1.647,0,0,0-.409-2.179Zm-9.121-1.1a3.769,3.769,0,1,1-3.766-3.632A3.7,3.7,0,0,1,89.145,80.343Z" transform="translate(-61.559 -57.214)" fill="#455a64"/>
</svg>
