<svg xmlns="http://www.w3.org/2000/svg" width="30.347" height="32.984" viewBox="0 0 30.347 32.984">
  <g id="bell" transform="translate(0 0)">
    <path id="Path_354" data-name="Path 354" d="M69.185,65.347h-24.6a2.107,2.107,0,0,0,2.127-1.567C48.459,59.058,43.8,45.3,56.884,45.3s8.424,13.758,10.175,18.479a2.108,2.108,0,0,0,2.127,1.567Zm0,0" transform="translate(-41.71 -42.382)" fill="#f7d360"/>
    <path id="Path_355" data-name="Path 355" d="M36.973,358.866a2.382,2.382,0,0,1-2.382,2.382H9.988a2.382,2.382,0,1,1,0-4.764h24.6a2.381,2.381,0,0,1,2.382,2.382Zm0,0" transform="translate(-7.116 -333.519)" fill="#e58e13"/>
    <path id="Path_356" data-name="Path 356" d="M67.061,63.787H54.274a2.441,2.441,0,0,1-2.438-2.519c.18-5.83-.75-15.849,4.955-15.96-15.66.081-5.65,20.046-12.206,20.046h24.6a2.108,2.108,0,0,1-2.127-1.567Zm0,0" transform="translate(-41.713 -42.39)" fill="#e58e13"/>
    <path id="Path_357" data-name="Path 357" d="M136.941,358.866a2.382,2.382,0,0,1-2.382,2.382h-17.72a2.382,2.382,0,0,1,0-4.764h17.72a2.381,2.381,0,0,1,2.382,2.382Zm0,0" transform="translate(-107.084 -333.519)" fill="#f7d360"/>
    <path id="Path_358" data-name="Path 358" d="M171.11,430.434a4.764,4.764,0,1,1-9.529,0Zm0,0" transform="translate(-151.173 -402.705)" fill="#e58e13"/>
    <path id="Path_359" data-name="Path 359" d="M220.253,453.246a4.775,4.775,0,0,1-3.26,3.123,4.768,4.768,0,0,1-2.43-1.594.942.942,0,0,1,.74-1.529Zm0,0" transform="translate(-200.546 -424.047)" fill="#f7d360"/>
    <path id="Path_360" data-name="Path 360" d="M202.7,10.216c.005-.06.007-.121.007-.182a2.428,2.428,0,1,0-4.857,0c0,.061,0,.122.007.182" transform="translate(-185.102 -7.115)" fill="#e58e13"/>
    <path id="Path_361" data-name="Path 361" d="M27.475,22.475h0c-.948,0-1.484-.493-1.79-1.645a21.2,21.2,0,0,1-.335-4.7,30.39,30.39,0,0,0-.573-6.9.49.49,0,0,0-.952.233,29.653,29.653,0,0,1,.545,6.671,21.712,21.712,0,0,0,.368,4.942,3.936,3.936,0,0,0,.644,1.393H4.967a3.936,3.936,0,0,0,.644-1.393,21.7,21.7,0,0,0,.368-4.942c.017-2.86.037-6.1,1.207-8.582,1.317-2.793,3.93-4.15,7.987-4.15a10.438,10.438,0,0,1,5.419,1.245,6.575,6.575,0,0,1,2.662,3.112.49.49,0,0,0,.9-.394A7.625,7.625,0,0,0,21.1,3.814a9.3,9.3,0,0,0-3.017-1.121,2.917,2.917,0,0,0-5.818,0,9.385,9.385,0,0,0-2.9,1.049A7.554,7.554,0,0,0,6.3,7.14C5.038,9.817,5.017,13.173,5,16.134a21.183,21.183,0,0,1-.335,4.7c-.307,1.152-.842,1.644-1.79,1.645h0a2.872,2.872,0,0,0,0,5.744h3.1a.49.49,0,1,0,0-.98h-3.1a1.892,1.892,0,0,1,0-3.785h24.6a1.892,1.892,0,0,1,0,3.785H7.932a.49.49,0,0,0,0,.98H9.943a5.253,5.253,0,0,0,10.461,0h7.071a2.872,2.872,0,0,0,0-5.744ZM15.174.98a1.942,1.942,0,0,1,1.9,1.557,16.8,16.8,0,0,0-3.8,0A1.942,1.942,0,0,1,15.174.98Zm0,31.024a4.28,4.28,0,0,1-4.246-3.785h8.491A4.28,4.28,0,0,1,15.174,32Zm0,0" transform="translate(0)"/>
    <path id="Path_362" data-name="Path 362" d="M353.994,34.393a6.356,6.356,0,0,1,1.739,1.659,9.42,9.42,0,0,1,1.732,5.75.49.49,0,1,0,.98,0,10.394,10.394,0,0,0-1.96-6.38,7.159,7.159,0,0,0-2.016-1.886.49.49,0,0,0-.475.857Zm0,0" transform="translate(-330.955 -31.319)"/>
    <path id="Path_363" data-name="Path 363" d="M411.763,37.419a5.188,5.188,0,0,1,1.931,4.421.49.49,0,0,0,.98,0,6.135,6.135,0,0,0-2.382-5.247.49.49,0,0,0-.528.825Zm0,0" transform="translate(-385.028 -34.164)"/>
    <path id="Path_364" data-name="Path 364" d="M44.837,42.291a.49.49,0,0,0,.49-.49,9.422,9.422,0,0,1,1.732-5.75A6.375,6.375,0,0,1,48.8,34.392a.49.49,0,0,0-.475-.857,7.16,7.16,0,0,0-2.016,1.886,10.4,10.4,0,0,0-1.96,6.38A.49.49,0,0,0,44.837,42.291Zm0,0" transform="translate(-41.491 -31.318)"/>
    <path id="Path_365" data-name="Path 365" d="M11.381,42.33a.49.49,0,0,0,.49-.49A5.188,5.188,0,0,1,13.8,37.419a.49.49,0,0,0-.528-.825,6.135,6.135,0,0,0-2.382,5.246A.49.49,0,0,0,11.381,42.33Zm0,0" transform="translate(-10.189 -34.165)"/>
  </g>
</svg>
