<svg xmlns="http://www.w3.org/2000/svg" width="16.341" height="17.761" viewBox="0 0 16.341 17.761">
  <g id="bell" transform="translate(0 0)">
    <path id="Path_354" data-name="Path 354" d="M57.83,56.095H44.582a1.135,1.135,0,0,0,1.145-.844c.942-2.542-1.568-9.951,5.479-9.951s4.536,7.408,5.479,9.951a1.135,1.135,0,0,0,1.145.844Zm0,0" transform="translate(-43.036 -43.728)" fill="#f7d360"/>
    <path id="Path_355" data-name="Path 355" d="M23.419,357.767a1.283,1.283,0,0,1-1.283,1.283H8.889a1.283,1.283,0,1,1,0-2.565H22.137a1.282,1.282,0,0,1,1.283,1.283Zm0,0" transform="translate(-7.342 -344.118)" fill="#e58e13"/>
    <path id="Path_356" data-name="Path 356" d="M56.688,55.259H49.8A1.314,1.314,0,0,1,48.489,53.9c.1-3.139-.4-8.534,2.668-8.594-8.433.044-3.042,10.794-6.572,10.794H57.833a1.135,1.135,0,0,1-1.145-.844Zm0,0" transform="translate(-43.039 -43.737)" fill="#e58e13"/>
    <path id="Path_357" data-name="Path 357" d="M126.564,357.767a1.283,1.283,0,0,1-1.283,1.283h-9.542a1.283,1.283,0,0,1,0-2.565h9.542a1.282,1.282,0,0,1,1.283,1.283Zm0,0" transform="translate(-110.487 -344.118)" fill="#f7d360"/>
    <path id="Path_358" data-name="Path 358" d="M166.713,430.434a2.565,2.565,0,1,1-5.131,0Zm0,0" transform="translate(-155.977 -415.503)" fill="#e58e13"/>
    <path id="Path_359" data-name="Path 359" d="M217.531,453.246a1.628,1.628,0,0,1-3.064.823.507.507,0,0,1,.4-.823Zm0,0" transform="translate(-206.919 -437.523)" fill="#f7d360"/>
    <path id="Path_360" data-name="Path 360" d="M200.459,9.011c0-.032,0-.065,0-.1a1.308,1.308,0,1,0-2.615,0c0,.033,0,.066,0,.1" transform="translate(-190.985 -7.342)" fill="#e58e13"/>
    <path id="Path_361" data-name="Path 361" d="M14.794,12.1h0c-.511,0-.8-.265-.964-.886a11.414,11.414,0,0,1-.18-2.529,16.364,16.364,0,0,0-.309-3.714.264.264,0,0,0-.512.126,15.968,15.968,0,0,1,.294,3.592,11.691,11.691,0,0,0,.2,2.661,2.119,2.119,0,0,0,.347.75H2.675a2.119,2.119,0,0,0,.347-.75,11.683,11.683,0,0,0,.2-2.661A11.4,11.4,0,0,1,3.87,4.07c.709-1.5,2.116-2.235,4.3-2.235a5.621,5.621,0,0,1,2.918.67,3.54,3.54,0,0,1,1.433,1.676.264.264,0,0,0,.483-.212,4.106,4.106,0,0,0-1.644-1.915,5.006,5.006,0,0,0-1.625-.6,1.571,1.571,0,0,0-3.133,0,5.054,5.054,0,0,0-1.56.565A4.068,4.068,0,0,0,3.392,3.845a11.778,11.778,0,0,0-.7,4.843,11.406,11.406,0,0,1-.18,2.529c-.165.62-.453.885-.964.886h0a1.547,1.547,0,0,0,0,3.093h1.67a.264.264,0,1,0,0-.528H1.546a1.019,1.019,0,0,1,0-2.038H14.795a1.019,1.019,0,0,1,0,2.038H4.271a.264.264,0,0,0,0,.528H5.354a2.829,2.829,0,0,0,5.633,0h3.808a1.547,1.547,0,0,0,0-3.093ZM8.17.528a1.046,1.046,0,0,1,1.023.838,9.048,9.048,0,0,0-2.047,0A1.045,1.045,0,0,1,8.17.528Zm0,16.706A2.3,2.3,0,0,1,5.884,15.2h4.572A2.3,2.3,0,0,1,8.17,17.233Zm0,0"/>
    <path id="Path_362" data-name="Path 362" d="M353.878,33.97a3.423,3.423,0,0,1,.936.893,5.072,5.072,0,0,1,.933,3.1.264.264,0,1,0,.528,0,5.6,5.6,0,0,0-1.055-3.436,3.855,3.855,0,0,0-1.086-1.015.264.264,0,0,0-.256.461Zm0,0" transform="translate(-341.472 -32.314)"/>
    <path id="Path_363" data-name="Path 363" d="M411.659,37a2.794,2.794,0,0,1,1.04,2.381.264.264,0,0,0,.527,0,3.3,3.3,0,0,0-1.283-2.825.264.264,0,0,0-.284.444Zm0,0" transform="translate(-397.264 -35.25)"/>
    <path id="Path_364" data-name="Path 364" d="M44.611,38.222a.264.264,0,0,0,.264-.264,5.073,5.073,0,0,1,.933-3.1,3.433,3.433,0,0,1,.936-.893.264.264,0,0,0-.256-.461A3.855,3.855,0,0,0,45.4,34.523a5.6,5.6,0,0,0-1.055,3.436A.264.264,0,0,0,44.611,38.222Zm0,0" transform="translate(-42.809 -32.313)"/>
    <path id="Path_365" data-name="Path 365" d="M11.154,39.647a.264.264,0,0,0,.264-.264A2.793,2.793,0,0,1,12.458,37a.264.264,0,0,0-.284-.444,3.3,3.3,0,0,0-1.283,2.825A.264.264,0,0,0,11.154,39.647Zm0,0" transform="translate(-10.513 -35.25)"/>
  </g>
</svg>
