<svg width="24" height="27" viewBox="0 0 24 27" fill="none" xmlns="http://www.w3.org/2000/svg">
<path d="M21.7286 18.1619H2.27124C3.16282 18.1619 3.66692 17.6954 3.9531 16.9222C5.33724 13.1885 1.65032 2.30786 12.0002 2.30786C22.3499 2.30786 18.6624 13.1885 20.0467 16.9222C20.3333 17.6954 20.8376 18.1619 21.7286 18.1619V18.1619Z" fill="#F7D360"/>
<path d="M23.6125 20.0455C23.6125 21.086 22.7689 21.9294 21.7287 21.9294H2.27131C1.75109 21.9294 1.28003 21.7186 0.939117 21.3777C0.598207 21.0368 0.387451 20.5658 0.387451 20.0455C0.387451 19.0053 1.23087 18.1619 2.27131 18.1619H21.7287C22.2489 18.1619 22.72 18.3726 23.0609 18.7135C23.4018 19.0544 23.6125 19.5255 23.6125 20.0455V20.0455Z" fill="#E58E13"/>
<path d="M20.0468 16.9223H9.93371C8.84351 16.9223 7.97163 16.0198 8.00546 14.93C8.14796 10.3192 7.4126 2.39552 11.9244 2.30835C-0.460574 2.37243 7.45639 18.162 2.27148 18.162H21.7286C20.8377 18.162 20.3334 17.6955 20.0468 16.9223V16.9223Z" fill="#E58E13"/>
<path d="M23.6126 20.0455C23.6126 21.086 22.7689 21.9294 21.7287 21.9294H7.71496C7.19494 21.9294 6.72387 21.7186 6.38296 21.3777C6.04205 21.0368 5.8313 20.5658 5.8313 20.0455C5.8313 19.0053 6.67472 18.1619 7.71496 18.1619H21.7287C22.2489 18.1619 22.72 18.3726 23.0609 18.7135C23.4018 19.0544 23.6126 19.5255 23.6126 20.0455V20.0455Z" fill="#F7D360"/>
<path d="M15.7678 21.9294C15.7678 23.6619 14.5988 25.1206 13.0075 25.5612C12.6867 25.65 12.349 25.6976 12.0003 25.6976C9.91902 25.6976 8.23218 24.0105 8.23218 21.9294H15.7678Z" fill="#E58E13"/>
<path d="M15.5856 23.0918C15.1977 24.2891 14.2265 25.224 13.0076 25.5614C12.2412 25.3494 11.5729 24.9014 11.0857 24.3006C10.6931 23.8162 11.0473 23.0918 11.6708 23.0918H15.5856Z" fill="#F7D360"/>
<path d="M13.915 2.45202C13.9192 2.40445 13.9208 2.35649 13.9208 2.30793C13.9208 1.24739 13.0607 0.387451 12.0003 0.387451C10.9392 0.387451 10.0798 1.24739 10.0798 2.30793C10.0798 2.35649 10.0812 2.40445 10.0854 2.45202" fill="#E58E13"/>
<path d="M21.7287 17.7743H21.7271C20.977 17.7739 20.5535 17.3846 20.3111 16.4735C20.0633 15.5417 20.055 14.1904 20.0462 12.7597C20.0357 11.0263 20.0237 9.06167 19.5929 7.30458C19.5419 7.09681 19.3319 6.96964 19.1242 7.02059C18.9166 7.07154 18.7894 7.2813 18.8402 7.48907C19.2496 9.15759 19.2611 11.0739 19.2714 12.7645C19.2806 14.246 19.289 15.6452 19.5622 16.6725C19.681 17.1193 19.8514 17.4865 20.0715 17.7743H3.92852C4.14863 17.4865 4.31899 17.1193 4.4378 16.6725C4.71104 15.6452 4.7196 14.246 4.72855 12.7645C4.74229 10.5027 4.75801 7.93923 5.68342 5.97736C6.72506 3.76891 8.79121 2.69524 12.0001 2.69524C13.7624 2.69524 15.2044 3.02639 16.286 3.67975C17.224 4.24615 17.9126 5.05115 18.3912 6.14075C18.4772 6.33658 18.7059 6.42574 18.9017 6.33957C19.0975 6.25359 19.1867 6.02513 19.1007 5.8291C18.5632 4.60556 17.751 3.65926 16.6867 3.01644C16.0072 2.60608 15.2094 2.31015 14.3007 2.12984C14.2091 0.940337 13.2127 0 12.0001 0C10.7875 0 9.79085 0.940536 9.6999 2.13024C8.833 2.30199 8.0666 2.57881 7.40886 2.95992C6.35051 3.57328 5.53416 4.4774 4.9825 5.6468C3.98424 7.76331 3.96793 10.4177 3.9538 12.7597C3.94504 14.1904 3.93688 15.5417 3.68891 16.4735C3.44651 17.3846 3.02301 17.7739 2.27293 17.7743H2.27134C1.01895 17.7743 0 18.7932 0 20.0458C0 21.2982 1.01895 22.3171 2.27134 22.3171H4.72338C4.93732 22.3171 5.11086 22.1436 5.11086 21.9297C5.11086 21.7157 4.93732 21.5424 4.72338 21.5424H2.27134C1.44623 21.5424 0.774759 20.8709 0.774759 20.0458C0.774759 19.2207 1.44603 18.5494 2.27114 18.5492H2.27134H2.27273H21.7271H21.7285H21.7289C22.5538 18.5494 23.225 19.2207 23.225 20.0458C23.225 20.8709 22.5536 21.5424 21.7285 21.5424H6.2731C6.05916 21.5424 5.88582 21.7157 5.88582 21.9297C5.88582 22.1436 6.05916 22.3171 6.2731 22.3171H7.86341C8.05944 24.4275 9.83941 26.0851 12.0001 26.0851C14.1606 26.0851 15.9406 24.4275 16.1366 22.3171H21.7287C22.9811 22.3171 24 21.2982 24 20.0458C24 18.7932 22.9811 17.7743 21.7287 17.7743V17.7743ZM12.0001 0.774758C12.742 0.774758 13.3625 1.30473 13.5032 2.00585C13.0276 1.94973 12.5269 1.92048 12.0001 1.92048C11.4733 1.92048 10.9726 1.94953 10.4972 2.00566C10.6379 1.30453 11.2582 0.774758 12.0001 0.774758V0.774758ZM12.0001 25.3103C10.2671 25.3103 8.83519 23.9992 8.64235 22.3171H15.3577C15.1648 23.9992 13.7329 25.3103 12.0001 25.3103V25.3103Z" fill="black"/>
<path d="M21.7287 17.7743H21.7271C20.977 17.7739 20.5535 17.3846 20.3111 16.4735C20.0633 15.5417 20.055 14.1904 20.0462 12.7597C20.0357 11.0263 20.0237 9.06167 19.5929 7.30458C19.5419 7.09681 19.3319 6.96964 19.1242 7.02059C18.9166 7.07154 18.7894 7.2813 18.8402 7.48907C19.2496 9.15759 19.2611 11.0739 19.2714 12.7645C19.2806 14.246 19.289 15.6452 19.5622 16.6725C19.681 17.1193 19.8514 17.4865 20.0715 17.7743H3.92852C4.14863 17.4865 4.31899 17.1193 4.4378 16.6725C4.71104 15.6452 4.7196 14.246 4.72855 12.7645C4.74229 10.5027 4.75801 7.93923 5.68342 5.97736C6.72506 3.76891 8.79121 2.69524 12.0001 2.69524C13.7624 2.69524 15.2044 3.02639 16.286 3.67975C17.224 4.24615 17.9126 5.05115 18.3912 6.14075C18.4772 6.33658 18.7059 6.42574 18.9017 6.33957C19.0975 6.25359 19.1867 6.02513 19.1007 5.8291C18.5632 4.60556 17.751 3.65926 16.6867 3.01644C16.0072 2.60608 15.2094 2.31015 14.3007 2.12984C14.2091 0.940337 13.2127 0 12.0001 0C10.7875 0 9.79085 0.940536 9.6999 2.13024C8.833 2.30199 8.0666 2.57881 7.40886 2.95992C6.35051 3.57328 5.53416 4.4774 4.9825 5.6468C3.98424 7.76331 3.96793 10.4177 3.9538 12.7597C3.94504 14.1904 3.93688 15.5417 3.68891 16.4735C3.44651 17.3846 3.02301 17.7739 2.27293 17.7743H2.27134C1.01895 17.7743 0 18.7932 0 20.0458C0 21.2982 1.01895 22.3171 2.27134 22.3171H4.72338C4.93732 22.3171 5.11086 22.1436 5.11086 21.9297C5.11086 21.7157 4.93732 21.5424 4.72338 21.5424H2.27134C1.44623 21.5424 0.774759 20.8709 0.774759 20.0458C0.774759 19.2207 1.44603 18.5494 2.27114 18.5492H2.27134H2.27273H21.7271H21.7285H21.7289C22.5538 18.5494 23.225 19.2207 23.225 20.0458C23.225 20.8709 22.5536 21.5424 21.7285 21.5424H6.2731C6.05916 21.5424 5.88582 21.7157 5.88582 21.9297C5.88582 22.1436 6.05916 22.3171 6.2731 22.3171H7.86341C8.05944 24.4275 9.83941 26.0851 12.0001 26.0851C14.1606 26.0851 15.9406 24.4275 16.1366 22.3171H21.7287C22.9811 22.3171 24 21.2982 24 20.0458C24 18.7932 22.9811 17.7743 21.7287 17.7743V17.7743ZM12.0001 0.774758C12.742 0.774758 13.3625 1.30473 13.5032 2.00585C13.0276 1.94973 12.5269 1.92048 12.0001 1.92048C11.4733 1.92048 10.9726 1.94953 10.4972 2.00566C10.6379 1.30453 11.2582 0.774758 12.0001 0.774758V0.774758ZM12.0001 25.3103C10.2671 25.3103 8.83519 23.9992 8.64235 22.3171H15.3577C15.1648 23.9992 13.7329 25.3103 12.0001 25.3103V25.3103Z" fill="black"/>
<path d="M18.2204 2.43143C18.2274 2.43521 18.9171 2.82886 19.5958 3.74333C20.5049 4.96806 20.9656 6.49807 20.9656 8.29099C20.9656 8.50493 21.1391 8.67847 21.3531 8.67847C21.567 8.67847 21.7405 8.50493 21.7405 8.29099C21.7405 5.82282 20.8977 4.18454 20.1906 3.245C19.4137 2.21251 18.6294 1.7721 18.5963 1.75379C18.4095 1.6507 18.175 1.71836 18.0711 1.90464C17.9672 2.09112 18.0343 2.32675 18.2204 2.43143Z" fill="black"/>
<path d="M21.1433 2.57335C21.2056 2.61414 22.6702 3.59707 22.6702 6.07002C22.6702 6.28396 22.8437 6.4573 23.0576 6.4573C23.2716 6.4573 23.4449 6.28396 23.4449 6.07002C23.4449 3.15327 21.6381 1.96974 21.561 1.92078C21.3813 1.80635 21.1437 1.85929 21.0283 2.0386C20.9129 2.21771 20.9648 2.45692 21.1433 2.57335Z" fill="black"/>
<path d="M2.6468 8.67828C2.86074 8.67828 3.03428 8.50474 3.03428 8.2908C3.03428 6.49789 3.4952 4.96787 4.40409 3.74314C5.07855 2.83444 5.76415 2.44 5.77928 2.43124C5.96575 2.32756 6.03342 2.09232 5.93013 1.90545C5.82644 1.71818 5.59081 1.65031 5.40354 1.7536C5.3705 1.77191 4.58619 2.21233 3.80924 3.24481C3.10234 4.18435 2.25952 5.82263 2.25952 8.2908C2.25952 8.50474 2.43286 8.67828 2.6468 8.67828Z" fill="black"/>
<path d="M0.942411 6.45728C1.15635 6.45728 1.32969 6.28394 1.32969 6.07C1.32969 3.59904 2.79204 2.61552 2.85652 2.57353C3.03564 2.4583 3.08818 2.21968 2.97374 2.03977C2.85891 1.85927 2.6195 1.80613 2.43879 1.92096C2.36198 1.96992 0.554932 3.15325 0.554932 6.07C0.554932 6.28394 0.728471 6.45728 0.942411 6.45728Z" fill="black"/>
</svg>
