<svg id="booking" xmlns="http://www.w3.org/2000/svg" width="26" height="26" viewBox="0 0 26 26">
  <path id="Path_418" data-name="Path 418" d="M31.4,72h-.867v1.733a.866.866,0,0,1-.867.867H28.8a.866.866,0,0,1-.867-.867V72H13.2v1.733a.866.866,0,0,1-.867.867h-.867a.866.866,0,0,1-.867-.867V72H9.733A1.733,1.733,0,0,0,8,73.733v5.2H33.133v-5.2A1.733,1.733,0,0,0,31.4,72Zm-6.067,4.767H15.8v-2.6h9.533Z" transform="translate(-7.567 -68.1)" fill="#a9cb73"/>
  <path id="Path_419" data-name="Path 419" d="M8,213a1.733,1.733,0,0,0,1.733,1.733H31.4A1.733,1.733,0,0,0,33.133,213V200H8Z" transform="translate(-7.567 -189.167)" fill="#eaeaea"/>
  <g id="Group_137" data-name="Group 137" transform="translate(3.033 0.433)">
    <path id="Path_420" data-name="Path 420" d="M56.867,14.067h.867A.866.866,0,0,0,58.6,13.2V8.867A.866.866,0,0,0,57.733,8h-.867A.866.866,0,0,0,56,8.867V13.2A.866.866,0,0,0,56.867,14.067Z" transform="translate(-56 -8)" fill="#f4cd57"/>
    <path id="Path_421" data-name="Path 421" d="M376.867,14.067h.867a.866.866,0,0,0,.867-.867V8.867A.866.866,0,0,0,377.733,8h-.867a.866.866,0,0,0-.867.867V13.2A.866.866,0,0,0,376.867,14.067Z" transform="translate(-358.667 -8)" fill="#f4cd57"/>
  </g>
  <rect id="Rectangle_176" data-name="Rectangle 176" width="10" height="3" transform="translate(8 6)" fill="#eaeaea"/>
  <g id="Group_138" data-name="Group 138">
    <path id="Path_422" data-name="Path 422" d="M23.833,3.467H23.4V1.3A1.3,1.3,0,0,0,22.1,0h-.867a1.3,1.3,0,0,0-1.3,1.3V3.467H6.067V1.3A1.3,1.3,0,0,0,4.767,0H3.9A1.3,1.3,0,0,0,2.6,1.3V3.467H2.167A2.169,2.169,0,0,0,0,5.633v18.2A2.169,2.169,0,0,0,2.167,26H23.833A2.169,2.169,0,0,0,26,23.833V5.633A2.169,2.169,0,0,0,23.833,3.467ZM20.8,1.3a.433.433,0,0,1,.433-.433H22.1a.433.433,0,0,1,.433.433V5.633a.433.433,0,0,1-.433.433h-.867a.433.433,0,0,1-.433-.433V1.3ZM3.467,1.3A.433.433,0,0,1,3.9.867h.867A.433.433,0,0,1,5.2,1.3V5.633a.433.433,0,0,1-.433.433H3.9a.433.433,0,0,1-.433-.433V1.3Zm-1.3,3.033H2.6v1.3a1.3,1.3,0,0,0,1.3,1.3h.867a1.3,1.3,0,0,0,1.3-1.3v-1.3H19.933v1.3a1.3,1.3,0,0,0,1.3,1.3H22.1a1.3,1.3,0,0,0,1.3-1.3v-1.3h.433a1.3,1.3,0,0,1,1.3,1.3V10.4H.867V5.633A1.3,1.3,0,0,1,2.167,4.333Zm21.667,20.8H2.167a1.3,1.3,0,0,1-1.3-1.3V11.267H25.133V23.833A1.3,1.3,0,0,1,23.833,25.133Z" fill="#2d2d2d"/>
    <path id="Path_423" data-name="Path 423" d="M144.433,107.467h9.533a.433.433,0,0,0,.433-.433v-2.6a.433.433,0,0,0-.433-.433h-9.533a.433.433,0,0,0-.433.433v2.6A.433.433,0,0,0,144.433,107.467Zm.433-2.6h8.667V106.6h-8.667Z" transform="translate(-136.2 -98.367)" fill="#2d2d2d"/>
    <path id="Path_424" data-name="Path 424" d="M51.033,232h-2.6a.433.433,0,0,0-.433.433V234.6a.433.433,0,0,0,.433.433h2.6a.433.433,0,0,0,.433-.433v-2.167A.433.433,0,0,0,51.033,232Zm-.433,2.167H48.867v-1.3H50.6Z" transform="translate(-45.4 -219.433)" fill="#2d2d2d"/>
    <path id="Path_425" data-name="Path 425" d="M155.033,232h-2.6a.433.433,0,0,0-.433.433V234.6a.433.433,0,0,0,.433.433h2.6a.433.433,0,0,0,.433-.433v-2.167A.433.433,0,0,0,155.033,232Zm-.433,2.167h-1.733v-1.3H154.6Z" transform="translate(-143.767 -219.433)" fill="#2d2d2d"/>
    <path id="Path_426" data-name="Path 426" d="M264.433,235.033h2.6a.433.433,0,0,0,.433-.433v-2.167a.433.433,0,0,0-.433-.433h-2.6a.433.433,0,0,0-.433.433V234.6A.433.433,0,0,0,264.433,235.033Zm.433-2.167H266.6v1.3h-1.733Z" transform="translate(-249.7 -219.433)" fill="#2d2d2d"/>
    <path id="Path_427" data-name="Path 427" d="M371.033,232h-2.6a.433.433,0,0,0-.433.433V234.6a.433.433,0,0,0,.433.433h2.6a.433.433,0,0,0,.433-.433v-2.167A.433.433,0,0,0,371.033,232Zm-.433,2.167h-1.733v-1.3H370.6Z" transform="translate(-348.067 -219.433)" fill="#2d2d2d"/>
    <path id="Path_428" data-name="Path 428" d="M51.033,312h-2.6a.433.433,0,0,0-.433.433V314.6a.433.433,0,0,0,.433.433h2.6a.433.433,0,0,0,.433-.433v-2.167A.433.433,0,0,0,51.033,312Zm-.433,2.167H48.867v-1.3H50.6Z" transform="translate(-45.4 -295.1)" fill="#2d2d2d"/>
    <path id="Path_429" data-name="Path 429" d="M155.033,312h-2.6a.433.433,0,0,0-.433.433V314.6a.433.433,0,0,0,.433.433h2.6a.433.433,0,0,0,.433-.433v-2.167A.433.433,0,0,0,155.033,312Zm-.433,2.167h-1.733v-1.3H154.6Z" transform="translate(-143.767 -295.1)" fill="#2d2d2d"/>
    <path id="Path_430" data-name="Path 430" d="M264.433,315.033h2.6a.433.433,0,0,0,.433-.433v-2.167a.433.433,0,0,0-.433-.433h-2.6a.433.433,0,0,0-.433.433V314.6A.433.433,0,0,0,264.433,315.033Zm.433-2.167H266.6v1.3h-1.733Z" transform="translate(-249.7 -295.1)" fill="#2d2d2d"/>
    <path id="Path_431" data-name="Path 431" d="M371.033,312h-2.6a.433.433,0,0,0-.433.433V314.6a.433.433,0,0,0,.433.433h2.6a.433.433,0,0,0,.433-.433v-2.167A.433.433,0,0,0,371.033,312Zm-.433,2.167h-1.733v-1.3H370.6Z" transform="translate(-348.067 -295.1)" fill="#2d2d2d"/>
    <path id="Path_432" data-name="Path 432" d="M51.033,392h-2.6a.433.433,0,0,0-.433.433V394.6a.433.433,0,0,0,.433.433h2.6a.433.433,0,0,0,.433-.433v-2.167A.433.433,0,0,0,51.033,392Zm-.433,2.167H48.867v-1.3H50.6Z" transform="translate(-45.4 -370.767)" fill="#2d2d2d"/>
    <path id="Path_433" data-name="Path 433" d="M155.033,392h-2.6a.433.433,0,0,0-.433.433V394.6a.433.433,0,0,0,.433.433h2.6a.433.433,0,0,0,.433-.433v-2.167A.433.433,0,0,0,155.033,392Zm-.433,2.167h-1.733v-1.3H154.6Z" transform="translate(-143.767 -370.767)" fill="#2d2d2d"/>
    <path id="Path_434" data-name="Path 434" d="M259.921,389.116l-.965-.965-.613.613,1.3,1.3a.43.43,0,0,0,.306.127h.02a.436.436,0,0,0,.314-.155l2.167-2.6-.666-.555Z" transform="translate(-244.35 -365.924)" fill="#2d2d2d"/>
    <path id="Path_435" data-name="Path 435" d="M355.921,389.116l-.965-.965-.613.613,1.3,1.3a.43.43,0,0,0,.306.127h.02a.436.436,0,0,0,.314-.155l2.167-2.6-.666-.555Z" transform="translate(-335.15 -365.924)" fill="#2d2d2d"/>
  </g>
</svg>
