<svg xmlns="http://www.w3.org/2000/svg" width="35.895" height="37.808" viewBox="0 0 35.895 37.808">
  <g id="buy" transform="translate(-0.5 0)">
    <path id="Path_3" data-name="Path 3" d="M52.2,31.926h5.9V43.119H52.2Zm0,0" transform="translate(-47.881 -29.569)" fill="#ffe967"/>
    <path id="Path_4" data-name="Path 4" d="M82.739,96.783H54.875V79.054l6.1-7.864,7.833-4.8,8.178,4.8,5.753,7.864Zm0,0" transform="translate(-50.359 -61.489)" fill="#ffe967"/>
    <path id="Path_5" data-name="Path 5" d="M68.808,66.391l-7.833,4.8-6.1,7.863v2.4a3.588,3.588,0,0,0,1.34-.636l12.592-9.56L81.4,80.818a3.587,3.587,0,0,0,1.34.636v-2.4L76.986,71.19Zm0,0" transform="translate(-50.36 -61.488)" fill="#ffb44f"/>
    <path id="Path_6" data-name="Path 6" d="M42.191,33.226,26.8,21.543a2.41,2.41,0,0,0-2.914,0L8.5,33.226a1.4,1.4,0,0,0-.268,1.956L9.458,36.8a1.4,1.4,0,0,0,1.955.268L25.346,26.486,39.278,37.064a1.4,1.4,0,0,0,1.956-.268l1.225-1.614a1.4,1.4,0,0,0-.268-1.956Zm0,0" transform="translate(-6.898 -19.498)" fill="#ff8892"/>
    <path id="Path_7" data-name="Path 7" d="M56.637,434.352H26.219a.906.906,0,0,0-.906.906v3.367a.906.906,0,0,0,.906.906H56.637a.906.906,0,0,0,.907-.906v-3.367A.907.907,0,0,0,56.637,434.352Zm0,0" transform="translate(-22.98 -402.278)" fill="#7e7ce8"/>
    <path id="Path_8" data-name="Path 8" d="M52.2,31.926h5.9v4.019H52.2Zm0,0" transform="translate(-47.881 -29.569)" fill="#ffb44f"/>
    <path id="Path_9" data-name="Path 9" d="M45,7.5h-5.9a1.044,1.044,0,0,0-1.044,1.044v1.52a1.044,1.044,0,0,0,1.044,1.044H45a1.044,1.044,0,0,0,1.044-1.044V8.544A1.044,1.044,0,0,0,45,7.5Zm0,0" transform="translate(-34.788 -6.946)" fill="#ff8892"/>
    <path id="Path_10" data-name="Path 10" d="M188.855,189v-3.327c1.266.095,1.7.7,2.231.7.7,0,1-.869,1-1.3,0-1.1-2-1.455-3.232-1.493v-.492c0-.246-.321-.473-.643-.473-.359,0-.643.227-.643.473v.529c-1.89.246-3.667,1.286-3.667,3.686,0,2.42,1.947,3.157,3.667,3.8v3.761c-1.663-.189-2.231-1.418-2.949-1.418-.586,0-1.058.794-1.058,1.323,0,1.058,1.72,2.287,4.007,2.344v.529c0,.246.284.473.643.473.321,0,.643-.227.643-.473v-.586a3.855,3.855,0,0,0,3.572-4.007c0-2.571-1.89-3.421-3.572-4.045Zm-1.134-.416c-.869-.34-1.512-.7-1.512-1.531,0-.718.567-1.172,1.512-1.323Zm.983,6.257v-3.289c.813.359,1.417.813,1.417,1.739A1.545,1.545,0,0,1,188.7,194.844Zm0,0" transform="translate(-169.544 -169.129)"/>
    <path id="Path_11" data-name="Path 11" d="M2.122,17.632a1.952,1.952,0,0,0,1.843.749V31.52H3.242a1.462,1.462,0,0,0-1.46,1.46v3.367a1.462,1.462,0,0,0,1.46,1.46H33.66a1.462,1.462,0,0,0,1.46-1.46V32.98a1.462,1.462,0,0,0-1.46-1.46h-.723V18.382a1.93,1.93,0,0,0,.286.022,1.963,1.963,0,0,0,1.557-.771L36,16.019a1.968,1.968,0,0,0-.374-2.732L20.242,1.6a2.972,2.972,0,0,0-3.583,0L10.771,6.074V4.616a1.6,1.6,0,0,0,1.044-1.5V1.6a1.6,1.6,0,0,0-1.6-1.6H7.733a.554.554,0,0,0,0,1.108h2.484a.491.491,0,0,1,.49.49v1.52a.49.49,0,0,1-.49.49h-5.9a.491.491,0,0,1-.49-.49V1.6a.491.491,0,0,1,.49-.49h1.2A.554.554,0,1,0,5.517,0h-1.2a1.6,1.6,0,0,0-1.6,1.6v1.52a1.6,1.6,0,0,0,1.044,1.5v6.775l-2.5,1.9A1.952,1.952,0,0,0,.9,16.018ZM9.663,4.715v2.2L4.875,10.55V4.715ZM34.012,32.98v3.367a.353.353,0,0,1-.352.352H3.242a.353.353,0,0,1-.352-.352V32.98a.353.353,0,0,1,.352-.352H33.66A.353.353,0,0,1,34.012,32.98ZM1.94,14.169,17.329,2.485a1.862,1.862,0,0,1,2.244,0L34.961,14.169a.85.85,0,0,1,.162,1.18L33.9,16.963a.851.851,0,0,1-1.18.162L29.916,15a.554.554,0,1,0-.67.882l2.582,1.961V31.52H5.072V17.84L18.451,7.683l9.016,6.845a.563.563,0,0,0,.835-.2.554.554,0,0,0-.165-.68l-9.35-7.1a.554.554,0,0,0-.67,0L4.184,17.124A.843.843,0,0,1,3,16.963L1.779,15.348a.843.843,0,0,1,.161-1.179Zm0,0" transform="translate(0 0)"/>
  </g>
</svg>
