<svg width="28" height="27" viewBox="0 0 28 27" fill="none" xmlns="http://www.w3.org/2000/svg">
<path d="M27.4356 2.93568C27.4357 2.78736 27.4066 2.64049 27.3499 2.50344C27.2932 2.36641 27.21 2.24189 27.1051 2.13702C27.0002 2.03215 26.8757 1.94896 26.7386 1.89225C26.6016 1.83553 26.4547 1.80638 26.3064 1.80647H22.9194V3.16101H21.1129V1.80647H17.4999V3.16101H15.6935V1.80647H12.0804V3.16101H10.2739V1.80647H6.6584V3.16101H4.85191V1.80647H1.46809C1.31977 1.80638 1.1729 1.83553 1.03585 1.89225C0.898813 1.94896 0.774295 2.03215 0.669421 2.13702C0.564546 2.24189 0.481372 2.36641 0.424654 2.50344C0.367935 2.64049 0.338785 2.78736 0.338867 2.93568V4.5162H27.4356V2.93568Z" fill="#818181"/>
<path d="M22.9195 22.1279V9.93575H4.85449V22.1279C4.85449 22.7268 5.09238 23.301 5.51579 23.7245C5.93921 24.1479 6.51349 24.3858 7.1123 24.3858H20.661C20.9575 24.3859 21.2513 24.3275 21.5252 24.2141C21.7992 24.1007 22.0482 23.9344 22.2579 23.7248C22.4676 23.515 22.634 23.2661 22.7475 22.9921C22.861 22.7182 22.9195 22.4245 22.9195 22.1279Z" fill="#818181"/>
<path d="M26.4195 1.35455H23.4831V0.451305C23.4831 0.331721 23.4357 0.217026 23.3512 0.132408C23.2667 0.0477954 23.152 0.000173225 23.0324 4.05806e-06H21.226C21.1063 4.05806e-06 20.9915 0.0475527 20.9069 0.132186C20.8222 0.216828 20.7747 0.331616 20.7747 0.451305V1.35455H18.0649V0.451305C18.0649 0.391991 18.0532 0.33325 18.0305 0.278451C18.0078 0.223653 17.9745 0.173883 17.9325 0.131965C17.8906 0.0900474 17.8407 0.0568172 17.7858 0.0341746C17.7311 0.0115319 17.6723 -7.99419e-05 17.6129 4.05806e-06H15.8065C15.6868 4.05806e-06 15.572 0.0475527 15.4874 0.132186C15.4027 0.216828 15.3552 0.331616 15.3552 0.451305V1.35455H12.6455V0.451305C12.6455 0.391886 12.6337 0.33304 12.611 0.27816C12.5881 0.22328 12.5547 0.17344 12.5126 0.13151C12.4705 0.0895773 12.4204 0.0563739 12.3655 0.0338071C12.3105 0.0112391 12.2516 -0.000247942 12.1922 4.05806e-06H10.3857C10.266 4.05806e-06 10.1512 0.0475527 10.0666 0.132186C9.98198 0.216828 9.93443 0.331616 9.93443 0.451305V1.35455H7.22597V0.451305C7.22597 0.391991 7.21428 0.33325 7.19155 0.278451C7.16884 0.223653 7.13553 0.173883 7.09357 0.131965C7.05159 0.0900474 7.00176 0.0568172 6.94693 0.0341746C6.89211 0.0115319 6.83335 -7.99419e-05 6.77403 4.05806e-06H4.96754C4.90827 4.05806e-06 4.84959 0.0116777 4.79482 0.0343589C4.74007 0.0570389 4.69033 0.0902807 4.64842 0.132186C4.60651 0.174093 4.57326 0.223851 4.55058 0.278603C4.5279 0.333355 4.51624 0.392038 4.51624 0.451305V1.35455H1.57989C1.16075 1.35523 0.759001 1.52216 0.462807 1.81872C0.166613 2.11526 0.000168529 2.51721 0 2.93635V25.0643C0.000506784 25.4833 0.167188 25.8851 0.463484 26.1813C0.75978 26.4776 1.1615 26.6443 1.58052 26.6448H26.4195C26.8385 26.6443 27.2403 26.4776 27.5365 26.1813C27.8328 25.8851 27.9995 25.4833 28 25.0643V2.93635C27.9999 2.51711 27.8333 2.11506 27.5369 1.81849C27.2406 1.52192 26.8387 1.35506 26.4195 1.35455ZM21.6772 0.903248H22.5805V2.70975H21.6772V0.903248ZM16.2578 0.903248H17.1611V2.70975H16.2578V0.903248ZM10.8383 0.903248H11.7416V2.70975H10.839L10.8383 0.903248ZM5.41884 0.903248H6.31953V2.70975H5.41948L5.41884 0.903248ZM27.0961 25.0643C27.0959 25.2439 27.0245 25.4161 26.8976 25.543C26.7706 25.6699 26.5984 25.7413 26.4188 25.7416H1.58052C1.40094 25.7413 1.22878 25.6699 1.1018 25.543C0.974826 25.4161 0.903415 25.2439 0.903246 25.0643V4.96754H27.0968L27.0961 25.0643ZM27.0961 4.06301H0.903246V2.93635C0.903415 2.75678 0.974826 2.58461 1.1018 2.45763C1.22878 2.33065 1.40094 2.25924 1.58052 2.25908H4.51687V3.16232C4.51687 3.28202 4.56442 3.39681 4.64905 3.48144C4.73369 3.56608 4.84848 3.61362 4.96818 3.61362H6.77467C6.89436 3.61362 7.00915 3.56608 7.09379 3.48144C7.17842 3.39681 7.22597 3.28202 7.22597 3.16232V2.25781H9.93571V3.16105C9.93571 3.22032 9.94738 3.279 9.97006 3.33375C9.99274 3.3885 10.026 3.43826 10.0679 3.48017C10.1098 3.52208 10.1596 3.55531 10.2143 3.57799C10.2691 3.60067 10.3278 3.61235 10.387 3.61235H12.1922C12.2515 3.61235 12.3102 3.60067 12.3649 3.57799C12.4197 3.55531 12.4694 3.52208 12.5113 3.48017C12.5532 3.43826 12.5865 3.3885 12.6092 3.33375C12.6319 3.279 12.6435 3.22032 12.6435 3.16105V2.25781H15.3532V3.16105C15.3532 3.22032 15.365 3.279 15.3876 3.33375C15.4103 3.3885 15.4435 3.43826 15.4854 3.48017C15.5274 3.52208 15.5771 3.55531 15.6318 3.57799C15.6866 3.60067 15.7453 3.61235 15.8046 3.61235H17.6111C17.6703 3.61235 17.729 3.60067 17.7837 3.57799C17.8386 3.55531 17.8883 3.52208 17.9301 3.48017C17.9721 3.43826 18.0053 3.3885 18.028 3.33375C18.0507 3.279 18.0623 3.22032 18.0623 3.16105V2.25781H20.7722V3.16105C20.7722 3.22032 20.7838 3.279 20.8065 3.33375C20.8292 3.3885 20.8623 3.43826 20.9043 3.48017C20.9462 3.52208 20.9959 3.55531 21.0508 3.57799C21.1055 3.60067 21.1641 3.61235 21.2234 3.61235H23.0299C23.0891 3.61235 23.1478 3.60067 23.2027 3.57799C23.2574 3.55531 23.3071 3.52208 23.3491 3.48017C23.391 3.43826 23.4242 3.3885 23.4468 3.33375C23.4695 3.279 23.4813 3.22032 23.4813 3.16105V2.25781H26.4175C26.5068 2.25763 26.5951 2.27506 26.6776 2.3091C26.76 2.34314 26.8349 2.39309 26.898 2.45613C26.9611 2.51916 27.0111 2.59403 27.0452 2.67643C27.0793 2.75884 27.0969 2.84717 27.0968 2.93635L27.0961 4.06301Z" fill="#5F5F5F"/>
<path d="M20.774 5.87079H7.22586C6.50745 5.87164 5.81871 6.1574 5.31072 6.66539C4.80273 7.17338 4.51696 7.86211 4.51611 8.58052V22.1292C4.51696 22.8477 4.80273 23.5363 5.31072 24.0443C5.81871 24.5524 6.50745 24.8381 7.22586 24.8389H20.7746C21.493 24.8381 22.1817 24.5524 22.6896 24.0443C23.1977 23.5363 23.4834 22.8477 23.4843 22.1292V8.58052C23.4834 7.86201 23.1976 7.17317 22.6895 6.66517C22.1813 6.15716 21.4924 5.87147 20.774 5.87079ZM7.22522 6.77403H20.774C21.2529 6.77454 21.7121 6.96504 22.0508 7.30371C22.3895 7.64238 22.5799 8.10157 22.5804 8.58052V9.48378H5.41937V8.58052C5.41987 8.10157 5.61036 7.64238 5.94904 7.30371C6.28771 6.96504 6.74691 6.77454 7.22586 6.77403H7.22522ZM20.774 23.9357H7.22586C6.74691 23.9352 6.28771 23.7447 5.94904 23.406C5.61036 23.0673 5.41987 22.6081 5.41937 22.1292V10.387H22.581V22.1292C22.5806 22.6083 22.3899 23.0676 22.0511 23.4063C21.7123 23.7449 21.253 23.9353 20.774 23.9357Z" fill="#5F5F5F"/>
<path d="M11.7422 12.6454H10.3877C10.2679 12.6454 10.153 12.693 10.0683 12.7777C9.98361 12.8624 9.93604 12.9773 9.93604 13.097C9.93604 13.2168 9.98361 13.3318 10.0683 13.4163C10.153 13.501 10.2679 13.5486 10.3877 13.5486H11.2909V20.7746C11.2909 20.8944 11.3385 21.0094 11.4232 21.0939C11.5079 21.1786 11.6228 21.2262 11.7425 21.2262C11.8623 21.2262 11.9772 21.1786 12.0618 21.0939C12.1465 21.0094 12.1941 20.8944 12.1941 20.7746V13.0967C12.1941 13.0374 12.1825 12.9787 12.1597 12.9239C12.1371 12.8691 12.1037 12.8194 12.0617 12.7774C12.0198 12.7355 11.9699 12.7022 11.9151 12.6796C11.8603 12.657 11.8015 12.6453 11.7422 12.6454Z" fill="#F6F6F6"/>
<path d="M18.0642 12.6454H13.5481C13.4284 12.6454 13.3136 12.693 13.2289 12.7776C13.1443 12.8623 13.0967 12.9771 13.0967 13.0967V20.774C13.0967 20.8937 13.1443 21.0085 13.2289 21.0931C13.3136 21.1777 13.4284 21.2253 13.5481 21.2253H18.0642C18.1839 21.2253 18.2987 21.1777 18.3833 21.0931C18.468 21.0085 18.5155 20.8937 18.5155 20.774V13.0967C18.5155 12.9771 18.468 12.8623 18.3833 12.7776C18.2987 12.693 18.1839 12.6454 18.0642 12.6454ZM17.6123 20.3227H13.9993V13.5486H17.6123V20.3227Z" fill="#F6F6F6"/>
</svg>
