<svg width="24" height="24" viewBox="0 0 24 24" fill="none" xmlns="http://www.w3.org/2000/svg">
<path d="M23.5163 3.41889C23.5164 3.29176 23.4914 3.16587 23.4428 3.0484C23.3942 2.93094 23.3229 2.82421 23.233 2.73432C23.1431 2.64443 23.0364 2.57313 22.9189 2.52452C22.8014 2.4759 22.6755 2.45092 22.5484 2.45099H19.6453V3.61203H18.0968V2.45099H15V3.61203H13.4516V2.45099H10.3547V3.61203H8.8063V2.45099H5.70727V3.61203H4.15885V2.45099H1.25843C1.1313 2.45092 1.00541 2.4759 0.887944 2.52452C0.77048 2.57313 0.663751 2.64443 0.573859 2.73432C0.483966 2.82421 0.412674 2.93094 0.364058 3.0484C0.315442 3.16587 0.290456 3.29176 0.290527 3.41889V4.77362H23.5163V3.41889Z" fill="#818181"/>
<path d="M19.6454 19.8694V9.41895H4.16113V19.8694C4.16113 20.3827 4.36503 20.8749 4.72796 21.2379C5.09089 21.6008 5.58313 21.8047 6.09639 21.8047H17.7096C17.9637 21.8048 18.2155 21.7547 18.4503 21.6575C18.6852 21.5603 18.8986 21.4178 19.0783 21.2381C19.2581 21.0583 19.4007 20.845 19.498 20.6101C19.5953 20.3753 19.6454 20.1236 19.6454 19.8694V19.8694Z" fill="#818181"/>
<path d="M22.6453 2.06363H20.1284V1.28942C20.1284 1.18692 20.0877 1.08861 20.0153 1.01608C19.9429 0.943555 19.8446 0.902736 19.7421 0.902591H18.1937C18.0911 0.902591 17.9927 0.943347 17.9202 1.01589C17.8476 1.08844 17.8069 1.18683 17.8069 1.28942V2.06363H15.4842V1.28942C15.4842 1.23858 15.4742 1.18823 15.4547 1.14126C15.4353 1.09429 15.4067 1.05163 15.3707 1.0157C15.3348 0.979771 15.292 0.951288 15.245 0.93188C15.1981 0.912472 15.1477 0.902519 15.0968 0.902591H13.5484C13.4458 0.902591 13.3474 0.943347 13.2749 1.01589C13.2023 1.08844 13.1616 1.18683 13.1616 1.28942V2.06363H10.839V1.28942C10.839 1.23849 10.8289 1.18805 10.8094 1.14101C10.7898 1.09397 10.7612 1.05125 10.7251 1.01531C10.689 0.979368 10.6461 0.950908 10.599 0.931565C10.5519 0.912221 10.5014 0.902375 10.4505 0.902591H8.90206C8.79947 0.902591 8.70107 0.943347 8.62853 1.01589C8.55598 1.08844 8.51523 1.18683 8.51523 1.28942V2.06363H6.19369V1.28942C6.19369 1.23858 6.18367 1.18823 6.16419 1.14126C6.14472 1.09429 6.11617 1.05163 6.0802 1.0157C6.04422 0.979771 6.00151 0.951288 5.95451 0.93188C5.90752 0.912472 5.85716 0.902519 5.80631 0.902591H4.25789C4.20709 0.902591 4.15679 0.912597 4.10985 0.932038C4.06292 0.951478 4.02028 0.979971 3.98436 1.01589C3.94844 1.05181 3.91994 1.09446 3.9005 1.14139C3.88106 1.18832 3.87106 1.23862 3.87106 1.28942V2.06363H1.35419C0.994927 2.06421 0.650572 2.2073 0.396692 2.46149C0.142811 2.71567 0.000144453 3.0602 0 3.41946V22.3863C0.000434386 22.7454 0.143304 23.0898 0.397272 23.3437C0.65124 23.5977 0.995569 23.7406 1.35473 23.741H22.6453C23.0044 23.7406 23.3488 23.5977 23.6027 23.3437C23.8567 23.0898 23.9996 22.7454 24 22.3863V3.41946C23.9999 3.06011 23.8571 2.7155 23.6031 2.46129C23.3491 2.20709 23.0046 2.06407 22.6453 2.06363V2.06363ZM18.5805 1.6768H19.3547V3.22523H18.5805V1.6768ZM13.9353 1.6768H14.7095V3.22523H13.9353V1.6768ZM9.28999 1.6768H10.0642V3.22523H9.29053L9.28999 1.6768ZM4.64472 1.6768H5.41674V3.22523H4.64527L4.64472 1.6768ZM23.2252 22.3863C23.2251 22.5402 23.1639 22.6878 23.0551 22.7966C22.9462 22.9054 22.7986 22.9666 22.6447 22.9668H1.35473C1.20081 22.9666 1.05324 22.9054 0.944402 22.7966C0.835565 22.6878 0.774356 22.5402 0.774211 22.3863V5.16048H23.2258L23.2252 22.3863ZM23.2252 4.38517H0.774211V3.41946C0.774356 3.26554 0.835565 3.11797 0.944402 3.00913C1.05324 2.90029 1.20081 2.83908 1.35473 2.83894H3.8716V3.61315C3.8716 3.71575 3.91236 3.81414 3.9849 3.88668C4.05745 3.95923 4.15584 3.99998 4.25844 3.99998H5.80686C5.90945 3.99998 6.00784 3.95923 6.08039 3.88668C6.15293 3.81414 6.19369 3.71575 6.19369 3.61315V2.83785H8.51632V3.61206C8.51632 3.66286 8.52633 3.71316 8.54577 3.76009C8.56521 3.80702 8.5937 3.84967 8.62962 3.88559C8.66554 3.92151 8.70819 3.95 8.75512 3.96944C8.80205 3.98888 8.85236 3.99889 8.90315 3.99889H10.4505C10.5013 3.99889 10.5516 3.98888 10.5985 3.96944C10.6455 3.95 10.6881 3.92151 10.724 3.88559C10.7599 3.84967 10.7884 3.80702 10.8079 3.76009C10.8273 3.71316 10.8373 3.66286 10.8373 3.61206V2.83785H13.1599V3.61206C13.1599 3.66286 13.17 3.71316 13.1894 3.76009C13.2088 3.80702 13.2373 3.84967 13.2732 3.88559C13.3092 3.92151 13.3518 3.95 13.3987 3.96944C13.4457 3.98888 13.496 3.99889 13.5468 3.99889H15.0952C15.146 3.99889 15.1963 3.98888 15.2432 3.96944C15.2902 3.95 15.3328 3.92151 15.3687 3.88559C15.4047 3.84967 15.4331 3.80702 15.4526 3.76009C15.472 3.71316 15.482 3.66286 15.482 3.61206V2.83785H17.8047V3.61206C17.8047 3.66286 17.8147 3.71316 17.8341 3.76009C17.8536 3.80702 17.882 3.84967 17.918 3.88559C17.9539 3.92151 17.9965 3.95 18.0435 3.96944C18.0904 3.98888 18.1407 3.99889 18.1915 3.99889H19.7399C19.7907 3.99889 19.841 3.98888 19.888 3.96944C19.9349 3.95 19.9775 3.92151 20.0135 3.88559C20.0494 3.84967 20.0779 3.80702 20.0973 3.76009C20.1167 3.71316 20.1268 3.66286 20.1268 3.61206V2.83785H22.6436C22.7201 2.8377 22.7958 2.85264 22.8665 2.88182C22.9371 2.91099 23.0013 2.95381 23.0554 3.00784C23.1095 3.06187 23.1524 3.12604 23.1816 3.19667C23.2108 3.26731 23.2259 3.34302 23.2258 3.41946L23.2252 4.38517Z" fill="#5F5F5F"/>
<path d="M17.8064 5.93469H6.19373C5.57795 5.93542 4.9876 6.18036 4.55218 6.61578C4.11676 7.0512 3.87182 7.64154 3.87109 8.25732V19.8705C3.87182 20.4863 4.11676 21.0766 4.55218 21.512C4.9876 21.9475 5.57795 22.1924 6.19373 22.1931H17.8069C18.4227 22.1924 19.013 21.9475 19.4484 21.512C19.8839 21.0766 20.1288 20.4863 20.1295 19.8705V8.25732C20.1288 7.64145 19.8838 7.05102 19.4483 6.61559C19.0127 6.18015 18.4222 5.93527 17.8064 5.93469ZM6.19318 6.7089H17.8064C18.2169 6.70933 18.6105 6.87262 18.9008 7.16291C19.1911 7.4532 19.3543 7.84679 19.3548 8.25732V9.03154H4.64531V8.25732C4.64574 7.84679 4.80902 7.4532 5.09931 7.16291C5.3896 6.87262 5.7832 6.70933 6.19373 6.7089H6.19318ZM17.8064 21.4189H6.19373C5.7832 21.4185 5.3896 21.2552 5.09931 20.9649C4.80902 20.6746 4.64574 20.281 4.64531 19.8705V9.80575H19.3553V19.8705C19.3549 20.2811 19.1915 20.6748 18.9011 20.9651C18.6107 21.2554 18.217 21.4186 17.8064 21.4189V21.4189Z" fill="#5F5F5F"/>
<path d="M10.0647 11.7415H8.9037C8.80103 11.7415 8.70257 11.7823 8.62998 11.8549C8.55738 11.9275 8.5166 12.026 8.5166 12.1286C8.5166 12.2313 8.55738 12.3298 8.62998 12.4023C8.70257 12.4749 8.80103 12.5157 8.9037 12.5157H9.67792V18.7094C9.67792 18.8121 9.7187 18.9106 9.79129 18.9831C9.86389 19.0557 9.96236 19.0965 10.065 19.0965C10.1677 19.0965 10.2662 19.0557 10.3387 18.9831C10.4113 18.9106 10.4521 18.8121 10.4521 18.7094V12.1283C10.4521 12.0775 10.4421 12.0272 10.4226 11.9802C10.4032 11.9332 10.3746 11.8906 10.3386 11.8546C10.3027 11.8187 10.2599 11.7902 10.2129 11.7708C10.166 11.7514 10.1156 11.7414 10.0647 11.7415V11.7415Z" fill="#F6F6F6"/>
<path d="M15.4837 11.7415H11.6127C11.5101 11.7415 11.4117 11.7823 11.3391 11.8548C11.2666 11.9274 11.2258 12.0258 11.2258 12.1283V18.7089C11.2258 18.8115 11.2666 18.9099 11.3391 18.9824C11.4117 19.0549 11.5101 19.0957 11.6127 19.0957H15.4837C15.5863 19.0957 15.6847 19.0549 15.7572 18.9824C15.8298 18.9099 15.8705 18.8115 15.8705 18.7089V12.1283C15.8705 12.0258 15.8298 11.9274 15.7572 11.8548C15.6847 11.7823 15.5863 11.7415 15.4837 11.7415V11.7415ZM15.0963 18.322H11.9995V12.5157H15.0963V18.322Z" fill="#F6F6F6"/>
</svg>
