<svg xmlns="http://www.w3.org/2000/svg" width="41" height="39.016" viewBox="0 0 41 39.016">
  <g id="calendar" transform="translate(-8 -24)">
    <path id="Path_24" data-name="Path 24" d="M53.677,57.653A1.653,1.653,0,0,0,52.024,56h-4.96v1.984H44.419V56h-5.29v1.984H36.484V56h-5.29v1.984H28.548V56h-5.29v1.984H20.613V56h-4.96A1.653,1.653,0,0,0,14,57.653v2.315H53.677Z" transform="translate(-5.504 -29.355)" fill="#57a4ff"/>
    <path id="Path_25" data-name="Path 25" d="M120.452,217.855V200H94v17.855a3.306,3.306,0,0,0,3.306,3.306h19.839A3.306,3.306,0,0,0,120.452,217.855Z" transform="translate(-78.891 -161.452)" fill="#57a4ff"/>
    <g id="Group_39" data-name="Group 39" transform="translate(8 24)">
      <path id="Path_26" data-name="Path 26" d="M46.685,25.984h-4.3V24.661A.661.661,0,0,0,41.726,24H39.081a.661.661,0,0,0-.661.661v1.323H34.452V24.661A.661.661,0,0,0,33.79,24H31.145a.661.661,0,0,0-.661.661v1.323H26.516V24.661A.661.661,0,0,0,25.855,24H23.21a.661.661,0,0,0-.661.661v1.323H18.581V24.661A.661.661,0,0,0,17.919,24H15.274a.661.661,0,0,0-.661.661v1.323h-4.3A2.317,2.317,0,0,0,8,28.3V60.7a2.317,2.317,0,0,0,2.315,2.315H46.685A2.317,2.317,0,0,0,49,60.7V28.3A2.317,2.317,0,0,0,46.685,25.984Zm-6.944-.661h1.323v2.645H39.742Zm-7.935,0h1.323v2.645H31.806Zm-7.935,0h1.323v2.645H23.871Zm-7.935,0h1.323v2.645H15.935ZM47.677,60.7a.993.993,0,0,1-.992.992H10.315a.993.993,0,0,1-.992-.992V31.274H47.677Zm0-30.75H9.323V28.3a.993.993,0,0,1,.992-.992h4.3v1.323a.661.661,0,0,0,.661.661h2.645a.661.661,0,0,0,.661-.661V27.306h3.968v1.323a.661.661,0,0,0,.661.661h2.645a.661.661,0,0,0,.661-.661V27.306h3.968v1.323a.661.661,0,0,0,.661.661H33.79a.661.661,0,0,0,.661-.661V27.306h3.968v1.323a.661.661,0,0,0,.661.661h2.645a.661.661,0,0,0,.661-.661V27.306h4.3a.993.993,0,0,1,.992.992Z" transform="translate(-8 -24)" fill="#004fac"/>
      <path id="Path_27" data-name="Path 27" d="M111.806,128H91.968A3.972,3.972,0,0,0,88,131.968v19.839a3.972,3.972,0,0,0,3.968,3.968h19.839a3.972,3.972,0,0,0,3.968-3.968V131.968A3.972,3.972,0,0,0,111.806,128Zm-19.839,1.323h19.839a2.648,2.648,0,0,1,2.645,2.645v1.323H89.323v-1.323A2.648,2.648,0,0,1,91.968,129.323Zm19.839,25.129H91.968a2.648,2.648,0,0,1-2.645-2.645V134.613h25.129v17.194A2.648,2.648,0,0,1,111.806,154.452Z" transform="translate(-81.387 -119.403)" fill="#004fac"/>
      <path id="Path_28" data-name="Path 28" d="M186.645,248h-1.984a.661.661,0,0,0,0,1.323h1.323V259.9a.661.661,0,0,0,1.323,0V248.661A.661.661,0,0,0,186.645,248Z" transform="translate(-169.452 -229.484)" fill="#f6f6f6"/>
      <path id="Path_29" data-name="Path 29" d="M247.274,248h-6.613a.661.661,0,0,0-.661.661V259.9a.661.661,0,0,0,.661.661h6.613a.661.661,0,0,0,.661-.661V248.661A.661.661,0,0,0,247.274,248Zm-.661,11.242h-5.29v-9.919h5.29Z" transform="translate(-220.823 -229.484)" fill="#f6f6f6"/>
    </g>
  </g>
</svg>
