<svg width="30" height="30" viewBox="0 0 30 30" fill="none" xmlns="http://www.w3.org/2000/svg">
<path d="M23.852 19.4462C23.0638 18.9114 22.0282 18.914 21.2429 19.4531L20.1121 20.2292C18.8525 21.0937 17.1775 21.0467 15.9669 20.115C14.8259 19.2368 13.7368 18.2951 12.7026 17.2973C11.7047 16.2631 10.7632 15.1742 9.88499 14.0331C8.95319 12.8226 8.90633 11.1475 9.77078 9.88789L10.5469 8.7571C11.0858 7.97174 11.0886 6.93621 10.5537 6.14796L7.31684 1.37778C6.42266 0.0601254 4.6822 -0.381339 3.27035 0.355237L3.26948 0.355621C0.417573 1.84359 -0.77894 5.28428 0.527747 8.22365C2.40859 12.455 4.93402 16.3253 7.98183 19.7147L10.2853 22.0181C13.6748 25.0659 17.5451 27.5914 21.7763 29.4722C24.7158 30.7789 28.1564 29.5824 29.6444 26.7305L29.6447 26.7296C30.3813 25.3179 29.9399 23.5773 28.6222 22.6831L23.852 19.4462Z" fill="url(#paint0_linear)"/>
<defs>
<linearGradient id="paint0_linear" x1="15" y1="0" x2="15" y2="30" gradientUnits="userSpaceOnUse">
<stop stop-color="#015CA7"/>
<stop offset="1" stop-color="#21D8A2"/>
</linearGradient>
</defs>
</svg>
