<svg id="phone" xmlns="http://www.w3.org/2000/svg" width="31" height="31" viewBox="0 0 31 31">
  <circle id="Ellipse_35" data-name="Ellipse 35" cx="15.5" cy="15.5" r="15.5" fill="#6aaf50"/>
  <path id="Path_329" data-name="Path 329" d="M117.99,112.953a1.982,1.982,0,0,0-.529-.529L103.978,98.941Z" transform="translate(-93.155 -92.07)" fill="#4d8538"/>
  <path id="Path_330" data-name="Path 330" d="M116.8,110.822a1.465,1.465,0,0,0-1.651,0l-.716.491a2.232,2.232,0,0,1-2.623-.072,18.634,18.634,0,0,1-3.849-3.849,2.232,2.232,0,0,1-.072-2.623l.491-.716a1.465,1.465,0,0,0,0-1.651l-2.048-3.019a1.986,1.986,0,0,0-2.561-.647h0a3.848,3.848,0,0,0-1.735,4.979,27.706,27.706,0,0,0,4.717,7.272l1.458,1.458a27.711,27.711,0,0,0,7.272,4.717,3.847,3.847,0,0,0,4.979-1.735h0a1.986,1.986,0,0,0-.647-2.561Z" transform="translate(-95.513 -92.516)" fill="#fff"/>
</svg>
