<svg id="name" xmlns="http://www.w3.org/2000/svg" width="36.571" height="32" viewBox="0 0 36.571 32">
  <path id="Path_318" data-name="Path 318" d="M32.381,64H4.191A4.194,4.194,0,0,0,0,68.191V87.238a4.194,4.194,0,0,0,4.191,4.191h28.19a4.194,4.194,0,0,0,4.191-4.191V68.191A4.194,4.194,0,0,0,32.381,64Zm0,0" transform="translate(0 -59.429)" fill="#eceff1"/>
  <path id="Path_319" data-name="Path 319" d="M180.192,0h-6.857a2.67,2.67,0,0,0-2.667,2.667V5.714a2.67,2.67,0,0,0,2.667,2.667h6.857a2.669,2.669,0,0,0,2.667-2.667V2.667A2.669,2.669,0,0,0,180.192,0Zm0,0" transform="translate(-158.477)" fill="#607d8b"/>
  <path id="Path_320" data-name="Path 320" d="M114.287,153.142a3.809,3.809,0,1,1-3.809-3.81A3.809,3.809,0,0,1,114.287,153.142Zm0,0" transform="translate(-99.049 -138.666)" fill="#42a5f5"/>
  <path id="Path_321" data-name="Path 321" d="M73.524,277.332H68.19A4.194,4.194,0,0,0,64,281.523v.762a1.143,1.143,0,0,0,1.143,1.143H76.571a1.143,1.143,0,0,0,1.143-1.143v-.762A4.194,4.194,0,0,0,73.524,277.332Zm0,0" transform="translate(-59.428 -257.523)" fill="#42a5f5"/>
  <g id="Group_106" data-name="Group 106" transform="translate(21.333 11.429)">
    <path id="Path_322" data-name="Path 322" d="M308.192,162.286h-8.381a1.143,1.143,0,1,1,0-2.286h8.381a1.143,1.143,0,0,1,0,2.286Zm0,0" transform="translate(-298.668 -160)" fill="#607d8b"/>
    <path id="Path_323" data-name="Path 323" d="M308.192,247.618h-8.381a1.143,1.143,0,1,1,0-2.286h8.381a1.143,1.143,0,0,1,0,2.286Zm0,0" transform="translate(-298.668 -239.237)" fill="#607d8b"/>
    <path id="Path_324" data-name="Path 324" d="M308.192,332.954h-8.381a1.143,1.143,0,1,1,0-2.286h8.381a1.143,1.143,0,0,1,0,2.286Zm0,0" transform="translate(-298.668 -318.477)" fill="#607d8b"/>
  </g>
</svg>
