<svg xmlns="http://www.w3.org/2000/svg" width="35.42" height="36" viewBox="0 0 35.42 36">
  <g id="Layer_14" data-name="Layer 14" transform="translate(-1 -1)">
    <rect id="Rectangle_159" data-name="Rectangle 159" width="21" height="18" transform="translate(3 18)" fill="#f7d881"/>
    <path id="Path_331" data-name="Path 331" d="M50.935,36.065l-1.922-.43A7.874,7.874,0,0,1,43.968,32a7.874,7.874,0,0,1-5.046,3.635L37,36.065a16.258,16.258,0,0,0,6.5,13.006l.465.348.465-.348A16.258,16.258,0,0,0,50.935,36.065Z" transform="translate(-15.097 -13)" fill="#78b75b"/>
    <path id="Path_332" data-name="Path 332" d="M40.983,46.719c4.645-1.254,8.21-5.493,9.139-10.835l-1.109-.25A7.874,7.874,0,0,1,43.968,32a7.874,7.874,0,0,1-5.046,3.635L37,36.065a16.258,16.258,0,0,0,3.983,10.655Z" transform="translate(-15.097 -13)" fill="#96cc7f"/>
    <path id="Path_333" data-name="Path 333" d="M7.581,17.1h2.9V11.29a5.806,5.806,0,1,1,11.613,0V17.1H25a2.375,2.375,0,0,1,.581.081V11.29A9.29,9.29,0,1,0,7,11.29v5.888A2.375,2.375,0,0,1,7.581,17.1Z" transform="translate(-2.516 -0.419)" fill="#c1c8d1"/>
    <path id="Path_334" data-name="Path 334" d="M2,36H8.968V46.452H2Z" transform="translate(-0.419 -14.677)" fill="#f5b95b"/>
    <path id="Path_335" data-name="Path 335" d="M22.484,42.126V37.161a1.161,1.161,0,1,0-2.323,0v4.965a2.323,2.323,0,1,0,2.323,0Z" transform="translate(-7.548 -14.677)" fill="#c1c8d1"/>
    <ellipse id="Ellipse_36" data-name="Ellipse 36" cx="3" cy="4" rx="3" ry="4" transform="translate(26 24)" fill="#ebf7fe"/>
    <path id="Path_336" data-name="Path 336" d="M22.652,41.387V36.742a1.742,1.742,0,0,0-3.484,0v4.645a2.9,2.9,0,0,0,1.051,5.133,3.117,3.117,0,0,0,.691.093,2.9,2.9,0,0,0,1.742-5.226Zm-.662,3.675A1.742,1.742,0,1,1,20.039,42.2a.581.581,0,0,0,.29-.505V36.742a.581.581,0,1,1,1.161,0v4.965a.581.581,0,0,0,.29.505,1.742,1.742,0,0,1,.209,2.863Z" transform="translate(-7.136 -14.258)"/>
    <path id="Path_337" data-name="Path 337" d="M35.966,22.484l-1.922-.424A7.334,7.334,0,0,1,29.4,18.692a.581.581,0,0,0-1,0,7.287,7.287,0,0,1-3.014,2.764V19a2.9,2.9,0,0,0-1.742-2.659v-5.47a9.871,9.871,0,1,0-19.742,0v5.47A2.9,2.9,0,0,0,2.161,19v1.742H1.581A.581.581,0,0,0,1,21.323V31.774a.581.581,0,0,0,.581.581h.581V34.1a2.9,2.9,0,0,0,2.9,2.9H22.484a2.9,2.9,0,0,0,2.9-2.9v-.075a16.885,16.885,0,0,0,2.671,2.514l.465.348a.581.581,0,0,0,.7,0l.465-.348a16.926,16.926,0,0,0,6.735-13.471.581.581,0,0,0-.453-.581ZM5.065,10.871a8.71,8.71,0,1,1,17.419,0V16.1H20.161V10.871a6.387,6.387,0,1,0-12.774,0V16.1H5.065ZM19,16.1H8.548V10.871a5.226,5.226,0,0,1,10.452,0ZM7.968,21.9v2.323H2.161V21.9Zm-5.806,9.29V28.871H7.968v2.323ZM7.968,27.71H2.161V25.387H7.968ZM24.226,34.1a1.742,1.742,0,0,1-1.742,1.742H5.065A1.742,1.742,0,0,1,3.323,34.1V32.355H8.548a.581.581,0,0,0,.581-.581V21.323a.581.581,0,0,0-.581-.581H3.323V19a1.742,1.742,0,0,1,1.742-1.742H22.484A1.742,1.742,0,0,1,24.226,19v2.9c-.174.052-.348.1-.528.145l-1.922.435a.581.581,0,0,0-.453.581,16.92,16.92,0,0,0,2.9,9.43Zm4.761,1.51-.116.087-.116-.087a15.765,15.765,0,0,1-6.271-12.077l1.457-.325a8.495,8.495,0,0,0,4.93-3.165A8.495,8.495,0,0,0,33.795,23.2l1.463.325a15.765,15.765,0,0,1-6.271,12.077Z" transform="translate(0)"/>
    <path id="Path_338" data-name="Path 338" d="M49.372,40.073l-1.034-.523-.395.784a4.117,4.117,0,1,0,.912.732Zm-.517,3.8a2.932,2.932,0,1,1-1.434-2.491L45.853,44.52l-1.161-1.574-.929.7L45.5,45.966a.581.581,0,0,0,.465.232h.052a.581.581,0,0,0,.465-.319L48.327,42.2A2.857,2.857,0,0,1,48.855,43.876Z" transform="translate(-17.081 -16.166)"/>
  </g>
</svg>
