<svg xmlns="http://www.w3.org/2000/svg" width="33.29" height="22.193" viewBox="0 0 33.29 22.193">
  <g id="email" transform="translate(0 -85.333)">
    <path id="Path_325" data-name="Path 325" d="M44.139,254.52a3.562,3.562,0,0,1-2.67,1.183H15.044a3.562,3.562,0,0,1-2.67-1.183l12.753-10.039,1.321.854a3.337,3.337,0,0,0,3.616,0l1.321-.854Z" transform="translate(-11.612 -148.177)" fill="#1e88e5"/>
    <path id="Path_326" data-name="Path 326" d="M41.521,86.766,28.582,95.136l-1.32.854a3.333,3.333,0,0,1-3.614,0l-1.32-.854L9.388,86.753a3.552,3.552,0,0,1,2.863-1.419H38.658A3.487,3.487,0,0,1,41.521,86.766Z" transform="translate(-8.81 0)" fill="#64b5f6"/>
    <g id="Group_107" data-name="Group 107" transform="translate(0 86.753)">
      <path id="Path_327" data-name="Path 327" d="M12.812,117.29.762,127.966A3.614,3.614,0,0,1,0,125.73V110.359a3.6,3.6,0,0,1,.578-1.984Z" transform="translate(0 -108.375)" fill="#2196f3"/>
      <path id="Path_328" data-name="Path 328" d="M316.813,110.558V125.93a3.615,3.615,0,0,1-.762,2.236L304,117.49l12.234-8.9A3.586,3.586,0,0,1,316.813,110.558Z" transform="translate(-283.523 -108.575)" fill="#2196f3"/>
    </g>
  </g>
</svg>
