<svg xmlns="http://www.w3.org/2000/svg" width="27.605" height="27.605" viewBox="0 0 27.605 27.605">
  <g id="Contact" transform="translate(-2 -2)">
    <path id="Path_380" data-name="Path 380" d="M33.281,3c4.573,0,8.281,2.885,8.281,6.441s-3.708,6.441-8.281,6.441c-.147,0-.29-.009-.437-.018l-3.7,2.779.741-3.331C27.006,14.3,25,12.054,25,9.441,25,5.885,28.708,3,33.281,3Z" transform="translate(-12.418 -0.54)" fill="#00ccb3"/>
    <path id="Path_381" data-name="Path 381" d="M9.441,52.649l3.221-3.221V48.09l1.187.322a2.766,2.766,0,0,1,2.034,2.664V54.03H3V51.076a2.766,2.766,0,0,1,2.034-2.664l1.187-.322v1.339Z" transform="translate(-0.54 -24.885)" fill="#5aaae7"/>
    <path id="Path_382" data-name="Path 382" d="M16.441,49.04l-3.221,3.221L10,49.04V47.7l1.215-.331,2.006,1.67,2.006-1.67,1.215.331Z" transform="translate(-4.319 -24.496)" fill="#e6e7e8"/>
    <path id="Path_383" data-name="Path 383" d="M16.652,45.777l-2.006,1.67-2.006-1.67.626-.17V44.42a3.7,3.7,0,0,0,2.76,0v1.187Z" transform="translate(-5.745 -22.903)" fill="#ffb655"/>
    <path id="Path_384" data-name="Path 384" d="M14.061,37.174A3.681,3.681,0,0,1,9,33.76v-.92h1.7a3.674,3.674,0,0,0,2.6-1.077L14.061,31l.156.313a2.754,2.754,0,0,0,2.149,1.509l0,.018v.92a3.684,3.684,0,0,1-2.3,3.414Z" transform="translate(-3.779 -15.658)" fill="#ffc477"/>
    <path id="Path_385" data-name="Path 385" d="M16.281,27.141v1.38h-.133a2.473,2.473,0,0,1-.322-.018,2.754,2.754,0,0,1-2.149-1.509l-.156-.313-.764.764a3.674,3.674,0,0,1-2.6,1.077H8v-1.38a4.141,4.141,0,0,1,8.281,0Z" transform="translate(-3.24 -11.338)" fill="#8b5e3c"/>
    <path id="Path_386" data-name="Path 386" d="M32.742,2C27.921,2,24,5.1,24,8.9c0,2.61,1.873,4.992,4.805,6.16l-.654,2.945a.46.46,0,0,0,.726.466l3.571-2.678c.1.005.2.01.294.01,4.82,0,8.742-3.1,8.742-6.9S37.562,2,32.742,2Zm0,12.882c-.092,0-.184-.005-.272-.01l-.147-.007a.478.478,0,0,0-.294.092l-2.709,2.031.471-2.119a.46.46,0,0,0-.3-.534C26.714,13.36,24.92,11.227,24.92,8.9c0-3.3,3.509-5.981,7.821-5.981S40.563,5.6,40.563,8.9s-3.509,5.981-7.821,5.981Z" transform="translate(-11.878)"/>
    <path id="Path_387" data-name="Path 387" d="M32,16H42.122v.92H32Z" transform="translate(-16.198 -7.559)"/>
    <path id="Path_388" data-name="Path 388" d="M32,12H42.122v.92H32Z" transform="translate(-16.198 -5.399)"/>
    <path id="Path_389" data-name="Path 389" d="M32,20H42.122v.92H32Z" transform="translate(-16.198 -9.719)"/>
    <path id="Path_390" data-name="Path 390" d="M13.43,33.882l-2.688-.731V32.6a4.141,4.141,0,0,0,2.3-3.7v-.46a.46.46,0,0,0,.46-.46V26.6a4.6,4.6,0,0,0-9.2,0v1.38a.46.46,0,0,0,.46.46v.46a4.141,4.141,0,0,0,2.3,3.7v.546l-2.69.732A3.234,3.234,0,0,0,2,36.989v2.954a.46.46,0,0,0,.46.46H15.342a.46.46,0,0,0,.46-.46V36.989a3.235,3.235,0,0,0-2.373-3.108Zm-7.289.473.644-.175,1.656,1.38v1.163h.92V35.558l1.656-1.38.644.175v.8L8.9,37.911l-2.76-2.76ZM5.221,26.6a3.681,3.681,0,1,1,7.361,0v.9a2.286,2.286,0,0,1-1.732-1.249l-.157-.314a.46.46,0,0,0-.736-.12l-.763.762a3.2,3.2,0,0,1-2.277.943h-1.7Zm.46,2.3v-.46H6.917a4.112,4.112,0,0,0,2.927-1.213l.322-.322a3.194,3.194,0,0,0,1.955,1.437V28.9a3.221,3.221,0,1,1-6.441,0ZM8.9,33.042a4.128,4.128,0,0,0,.92-.107V33.5a.455.455,0,0,0,.161.342l-1.081.9-1.081-.9a.455.455,0,0,0,.161-.342v-.567a4.128,4.128,0,0,0,.92.107Zm5.981,6.441H2.92V36.989a2.311,2.311,0,0,1,1.694-2.22l.606-.163v.736a.46.46,0,0,0,.135.325l3.221,3.221a.46.46,0,0,0,.651,0l3.221-3.221a.46.46,0,0,0,.135-.325v-.736l.6.165a2.312,2.312,0,0,1,1.7,2.219Z" transform="translate(0 -10.798)"/>
    <path id="Path_391" data-name="Path 391" d="M16.681,38h-.92a.92.92,0,1,1-1.84,0H13a1.84,1.84,0,0,0,3.681,0Z" transform="translate(-5.939 -19.437)"/>
  </g>
</svg>
