<?xml version="1.0" encoding="UTF-8"?>
<svg xmlns="http://www.w3.org/2000/svg" xmlns:xlink="http://www.w3.org/1999/xlink" width="16pt" height="18pt" viewBox="0 0 16 18" version="1.1">
<g id="surface1">
<path style=" stroke:none;fill-rule:nonzero;fill:rgb(0%,80%,70.196078%);fill-opacity:1;" d="M 10.75 0.84375 C 13.234375 0.84375 15.25 2.605469 15.25 4.78125 C 15.25 6.957031 13.234375 8.71875 10.75 8.71875 C 10.671875 8.71875 10.59375 8.714844 10.511719 8.707031 L 8.5 10.40625 L 8.902344 8.371094 C 7.339844 7.75 6.25 6.378906 6.25 4.78125 C 6.25 2.605469 8.265625 0.84375 10.75 0.84375 Z M 10.75 0.84375 "/>
<path style=" stroke:none;fill-rule:nonzero;fill:rgb(35.294118%,66.666667%,90.588235%);fill-opacity:1;" d="M 4.25 16.3125 L 6 14.34375 L 6 13.523438 L 6.644531 13.722656 C 7.296875 13.921875 7.75 14.589844 7.75 15.351562 L 7.75 17.15625 L 0.75 17.15625 L 0.75 15.351562 C 0.75 14.589844 1.203125 13.921875 1.855469 13.722656 L 2.5 13.523438 L 2.5 14.34375 Z M 4.25 16.3125 "/>
<path style=" stroke:none;fill-rule:nonzero;fill:rgb(90.196078%,90.588235%,90.980392%);fill-opacity:1;" d="M 6 14.34375 L 4.25 16.3125 L 2.5 14.34375 L 2.5 13.523438 L 3.160156 13.324219 L 4.25 14.34375 L 5.339844 13.324219 L 6 13.523438 Z M 6 14.34375 "/>
<path style=" stroke:none;fill-rule:nonzero;fill:rgb(100%,71.372549%,33.333333%);fill-opacity:1;" d="M 5.339844 13.324219 L 4.25 14.34375 L 3.160156 13.324219 L 3.5 13.21875 L 3.5 12.492188 C 3.980469 12.710938 4.519531 12.710938 5 12.492188 L 5 13.21875 Z M 5.339844 13.324219 "/>
<path style=" stroke:none;fill-rule:nonzero;fill:rgb(100%,76.862745%,46.666667%);fill-opacity:1;" d="M 5 12.492188 C 4.382812 12.773438 3.683594 12.691406 3.132812 12.273438 C 2.582031 11.855469 2.25 11.15625 2.25 10.40625 L 2.25 9.84375 L 3.171875 9.84375 C 3.703125 9.84375 4.210938 9.605469 4.585938 9.1875 L 5 8.71875 L 5.085938 8.910156 C 5.308594 9.417969 5.75 9.765625 6.253906 9.832031 L 6.25 9.84375 L 6.25 10.40625 C 6.25 11.324219 5.753906 12.148438 5 12.492188 Z M 5 12.492188 "/>
<path style=" stroke:none;fill-rule:nonzero;fill:rgb(54.509804%,36.862745%,23.529412%);fill-opacity:1;" d="M 6.5 9 L 6.5 9.84375 L 6.425781 9.84375 C 6.367188 9.84375 6.3125 9.839844 6.253906 9.832031 C 5.75 9.765625 5.308594 9.417969 5.085938 8.910156 L 5 8.71875 L 4.585938 9.1875 C 4.210938 9.605469 3.703125 9.84375 3.171875 9.84375 L 2 9.84375 L 2 9 C 2 7.601562 3.007812 6.46875 4.25 6.46875 C 5.492188 6.46875 6.5 7.601562 6.5 9 Z M 6.5 9 "/>
<path style=" stroke:none;fill-rule:nonzero;fill:rgb(0%,0%,0%);fill-opacity:1;" d="M 10.75 0.5625 C 8.128906 0.5625 6 2.453125 6 4.78125 C 6 6.375 7.015625 7.832031 8.609375 8.546875 L 8.253906 10.347656 C 8.234375 10.460938 8.277344 10.578125 8.363281 10.644531 C 8.453125 10.707031 8.566406 10.703125 8.648438 10.632812 L 10.589844 8.992188 C 10.644531 8.996094 10.695312 9 10.75 9 C 13.371094 9 15.5 7.109375 15.5 4.78125 C 15.5 2.453125 13.371094 0.5625 10.75 0.5625 Z M 10.75 8.4375 C 10.699219 8.4375 10.648438 8.433594 10.601562 8.429688 L 10.523438 8.425781 C 10.464844 8.425781 10.410156 8.445312 10.363281 8.484375 L 8.890625 9.726562 L 9.148438 8.429688 C 9.175781 8.292969 9.105469 8.152344 8.984375 8.105469 C 7.476562 7.507812 6.5 6.203125 6.5 4.78125 C 6.5 2.765625 8.40625 1.125 10.75 1.125 C 13.09375 1.125 15 2.765625 15 4.78125 C 15 6.796875 13.09375 8.4375 10.75 8.4375 Z M 10.75 8.4375 "/>
<path style=" stroke:none;fill-rule:nonzero;fill:rgb(0%,0%,0%);fill-opacity:1;" d="M 8 4.5 L 13.5 4.5 L 13.5 5.0625 L 8 5.0625 Z M 8 4.5 "/>
<path style=" stroke:none;fill-rule:nonzero;fill:rgb(0%,0%,0%);fill-opacity:1;" d="M 8 3.375 L 13.5 3.375 L 13.5 3.9375 L 8 3.9375 Z M 8 3.375 "/>
<path style=" stroke:none;fill-rule:nonzero;fill:rgb(0%,0%,0%);fill-opacity:1;" d="M 8 5.625 L 13.5 5.625 L 13.5 6.1875 L 8 6.1875 Z M 8 5.625 "/>
<path style=" stroke:none;fill-rule:nonzero;fill:rgb(0%,0%,0%);fill-opacity:1;" d="M 6.710938 13.449219 L 5.25 13.003906 L 5.25 12.671875 C 6.015625 12.242188 6.5 11.367188 6.5 10.40625 L 6.5 10.125 C 6.636719 10.125 6.75 10 6.75 9.84375 L 6.75 9 C 6.75 7.445312 5.628906 6.1875 4.25 6.1875 C 2.871094 6.1875 1.75 7.445312 1.75 9 L 1.75 9.84375 C 1.75 10 1.863281 10.125 2 10.125 L 2 10.40625 C 2 11.367188 2.484375 12.242188 3.25 12.671875 L 3.25 13.003906 L 1.789062 13.449219 C 1.027344 13.6875 0.503906 14.464844 0.5 15.351562 L 0.5 17.15625 C 0.5 17.3125 0.613281 17.4375 0.75 17.4375 L 7.75 17.4375 C 7.886719 17.4375 8 17.3125 8 17.15625 L 8 15.351562 C 7.996094 14.464844 7.46875 13.6875 6.710938 13.449219 Z M 2.75 13.738281 L 3.101562 13.632812 L 4 14.476562 L 4 15.1875 L 4.5 15.1875 L 4.5 14.476562 L 5.398438 13.632812 L 5.75 13.738281 L 5.75 14.226562 L 4.25 15.914062 L 2.75 14.226562 Z M 2.25 9 C 2.25 7.757812 3.144531 6.75 4.25 6.75 C 5.355469 6.75 6.25 7.757812 6.25 9 L 6.25 9.546875 C 5.84375 9.484375 5.492188 9.199219 5.308594 8.785156 L 5.222656 8.59375 C 5.1875 8.511719 5.121094 8.457031 5.039062 8.441406 C 4.960938 8.425781 4.878906 8.457031 4.824219 8.519531 L 4.410156 8.984375 C 4.082031 9.355469 3.636719 9.5625 3.171875 9.5625 L 2.25 9.5625 Z M 2.5 10.40625 L 2.5 10.125 L 3.171875 10.125 C 3.769531 10.125 4.339844 9.859375 4.761719 9.382812 L 4.9375 9.1875 C 5.175781 9.625 5.558594 9.941406 6 10.066406 L 6 10.40625 C 6 11.492188 5.214844 12.375 4.25 12.375 C 3.285156 12.375 2.5 11.492188 2.5 10.40625 Z M 4.25 12.9375 C 4.417969 12.9375 4.585938 12.914062 4.75 12.871094 L 4.75 13.21875 C 4.75 13.300781 4.78125 13.375 4.835938 13.425781 L 4.25 13.976562 L 3.664062 13.429688 C 3.71875 13.375 3.75 13.300781 3.75 13.21875 L 3.75 12.871094 C 3.914062 12.914062 4.082031 12.9375 4.25 12.9375 Z M 7.5 16.875 L 1 16.875 L 1 15.351562 C 1 14.71875 1.378906 14.164062 1.921875 13.992188 L 2.25 13.894531 L 2.25 14.34375 C 2.25 14.417969 2.277344 14.488281 2.324219 14.542969 L 4.074219 16.511719 C 4.171875 16.621094 4.328125 16.621094 4.425781 16.511719 L 6.175781 14.542969 C 6.222656 14.488281 6.25 14.417969 6.25 14.34375 L 6.25 13.894531 L 6.578125 13.996094 C 7.121094 14.164062 7.496094 14.71875 7.5 15.351562 Z M 7.5 16.875 "/>
<path style=" stroke:none;fill-rule:nonzero;fill:rgb(0%,0%,0%);fill-opacity:1;" d="M 5.25 10.6875 L 4.75 10.6875 C 4.75 11 4.527344 11.25 4.25 11.25 C 3.972656 11.25 3.75 11 3.75 10.6875 L 3.25 10.6875 C 3.25 11.308594 3.699219 11.8125 4.25 11.8125 C 4.800781 11.8125 5.25 11.308594 5.25 10.6875 Z M 5.25 10.6875 "/>
</g>
</svg>
