<svg xmlns="http://www.w3.org/2000/svg" width="49.356" height="41.773" viewBox="0 0 49.356 41.773">
  <g id="credit-card_colored" data-name="credit-card colored" transform="translate(0 -39.336)">
    <path id="Path_48" data-name="Path 48" d="M103.073,42.421V65.926a3.074,3.074,0,0,1-3.085,3.085H62.541a3.074,3.074,0,0,1-3.085-3.085V42.421a3.084,3.084,0,0,1,3.085-3.085H99.989A3.084,3.084,0,0,1,103.073,42.421Z" transform="translate(-53.725)" fill="#6f7070"/>
    <rect id="Rectangle_26" data-name="Rectangle 26" width="43.633" height="5.009" transform="translate(5.724 44.947)" fill="#464646"/>
    <g id="Group_49" data-name="Group 49" transform="translate(26.48 40.599)">
      <path id="Path_49" data-name="Path 49" d="M286.2,52.44h-9.954a1.542,1.542,0,0,0,0,3.085H286.2a1.542,1.542,0,0,0,0-3.085Z" transform="translate(-274.704 -52.44)" fill="#787878"/>
      <path id="Path_50" data-name="Path 50" d="M428.832,52.44h-2.7a1.542,1.542,0,0,0,0,3.085h2.7a1.542,1.542,0,1,0,0-3.085Z" transform="translate(-410.143 -52.44)" fill="#787878"/>
    </g>
    <g id="Group_50" data-name="Group 50" transform="translate(8.268 45.909)">
      <path id="Path_51" data-name="Path 51" d="M94.839,107.528h-7.52a1.542,1.542,0,1,0,0,3.085h7.52a1.542,1.542,0,1,0,0-3.085Z" transform="translate(-85.776 -107.528)" fill="#3e3e3e"/>
      <path id="Path_52" data-name="Path 52" d="M214.686,107.528h-2.7a1.542,1.542,0,1,0,0,3.085h2.7a1.542,1.542,0,0,0,0-3.085Z" transform="translate(-198.43 -107.528)" fill="#3e3e3e"/>
    </g>
    <g id="Group_51" data-name="Group 51" transform="translate(42.531 54.204)" opacity="0.07">
      <path id="Path_53" data-name="Path 53" d="M448.033,199.329V205.3a3.074,3.074,0,0,1-3.085,3.085h-3.732l1.064-14.806Z" transform="translate(-441.216 -193.576)" fill="#010101"/>
    </g>
    <path id="Path_54" data-name="Path 54" d="M40.545,194.471H3.085A3.084,3.084,0,0,1,0,191.386v-23.51a3.085,3.085,0,0,1,3.085-3.085h37.46a3.085,3.085,0,0,1,3.085,3.085v23.508A3.085,3.085,0,0,1,40.545,194.471Z" transform="translate(0 -113.363)" fill="#4b9fd8"/>
    <g id="Group_52" data-name="Group 52" transform="translate(0 51.429)">
      <path id="Path_55" data-name="Path 55" d="M19.927,164.792a57.036,57.036,0,0,0-19.9,26.9A3,3,0,0,1,0,191.3V167.8a3.078,3.078,0,0,1,2.391-3.008Z" transform="translate(0 -164.792)" fill="#3a9bd6"/>
      <path id="Path_56" data-name="Path 56" d="M245.9,220.538a57.036,57.036,0,0,0,19.9-26.9,3,3,0,0,1,.031.386v23.505a3.078,3.078,0,0,1-2.391,3.008Z" transform="translate(-222.2 -190.859)" fill="#3a9bd6"/>
    </g>
    <circle id="Ellipse_8" data-name="Ellipse 8" cx="3.757" cy="3.757" r="3.757" transform="translate(26.095 56.056)" fill="#fee218"/>
    <circle id="Ellipse_9" data-name="Ellipse 9" cx="3.757" cy="3.757" r="3.757" transform="translate(31.49 56.056)" fill="#cd494c"/>
    <g id="Group_53" data-name="Group 53" transform="translate(4.07 58.271)">
      <path id="Path_57" data-name="Path 57" d="M51.063,320.965h-7.3a1.542,1.542,0,1,1,0-3.085h7.3a1.542,1.542,0,1,1,0,3.085Z" transform="translate(-42.224 -309.965)" fill="#fff"/>
      <path id="Path_58" data-name="Path 58" d="M57.581,238.853H43.766a1.542,1.542,0,1,1,0-3.085H57.581a1.542,1.542,0,1,1,0,3.085Z" transform="translate(-42.224 -235.768)" fill="#fff"/>
    </g>
    <path id="Path_59" data-name="Path 59" d="M48.269,403.077H43.75a1.542,1.542,0,1,1,0-3.085h4.519a1.542,1.542,0,1,1,0,3.085Z" transform="translate(-38.139 -325.89)" fill="#8bd5ec"/>
    <path id="Path_60" data-name="Path 60" d="M144.717,403.077H140.2a1.542,1.542,0,0,1,0-3.085h4.519a1.542,1.542,0,1,1,0,3.085Z" transform="translate(-125.29 -325.89)" fill="#daeff6"/>
    <path id="Path_61" data-name="Path 61" d="M241.149,403.077H236.63a1.542,1.542,0,1,1,0-3.085h4.519a1.542,1.542,0,0,1,0,3.085Z" transform="translate(-212.426 -325.89)" fill="#8bd5ec"/>
    <path id="Path_62" data-name="Path 62" d="M337.581,403.077h-4.519a1.542,1.542,0,0,1,0-3.085h4.519a1.542,1.542,0,0,1,0,3.085Z" transform="translate(-299.563 -325.89)" fill="#daeff6"/>
  </g>
</svg>
