<svg xmlns="http://www.w3.org/2000/svg" width="35.356" height="29.924" viewBox="0 0 35.356 29.924">
  <g id="credit-card" transform="translate(0 -39.336)">
    <path id="Path_30" data-name="Path 30" d="M90.7,41.546V58.384a2.2,2.2,0,0,1-2.21,2.21H61.666a2.2,2.2,0,0,1-2.21-2.21V41.546a2.209,2.209,0,0,1,2.21-2.21H88.491A2.209,2.209,0,0,1,90.7,41.546Z" transform="translate(-55.35)" fill="#6f7070"/>
    <rect id="Rectangle_19" data-name="Rectangle 19" width="31.256" height="3.589" transform="translate(4.1 43.355)" fill="#464646"/>
    <g id="Group_40" data-name="Group 40" transform="translate(18.969 40.241)">
      <path id="Path_31" data-name="Path 31" d="M282.94,52.44h-7.131a1.1,1.1,0,1,0,0,2.21h7.131a1.1,1.1,0,1,0,0-2.21Z" transform="translate(-274.704 -52.44)" fill="#787878"/>
      <path id="Path_32" data-name="Path 32" d="M427.629,52.44H425.7a1.1,1.1,0,0,0,0,2.21h1.932a1.1,1.1,0,1,0,0-2.21Z" transform="translate(-414.242 -52.44)" fill="#787878"/>
    </g>
    <g id="Group_41" data-name="Group 41" transform="translate(5.923 44.045)">
      <path id="Path_33" data-name="Path 33" d="M92.268,107.528H86.881a1.1,1.1,0,1,0,0,2.21h5.387a1.1,1.1,0,0,0,0-2.21Z" transform="translate(-85.776 -107.528)" fill="#3e3e3e"/>
      <path id="Path_34" data-name="Path 34" d="M213.484,107.528h-1.931a1.1,1.1,0,0,0,0,2.21h1.931a1.1,1.1,0,1,0,0-2.21Z" transform="translate(-201.839 -107.528)" fill="#3e3e3e"/>
    </g>
    <g id="Group_42" data-name="Group 42" transform="translate(30.467 49.987)" opacity="0.07">
      <path id="Path_35" data-name="Path 35" d="M446.1,197.7v4.276a2.2,2.2,0,0,1-2.21,2.21h-2.674l.762-10.607Z" transform="translate(-441.216 -193.576)" fill="#010101"/>
    </g>
    <path id="Path_36" data-name="Path 36" d="M29.044,186.053H2.21A2.209,2.209,0,0,1,0,183.843V167a2.21,2.21,0,0,1,2.21-2.21H29.044a2.21,2.21,0,0,1,2.21,2.21v16.84A2.21,2.21,0,0,1,29.044,186.053Z" transform="translate(0 -116.793)" fill="#818181"/>
    <g id="Group_43" data-name="Group 43" transform="translate(0 47.999)">
      <path id="Path_37" data-name="Path 37" d="M14.275,164.792A40.858,40.858,0,0,0,.022,184.061,2.152,2.152,0,0,1,0,183.784V166.946a2.205,2.205,0,0,1,1.713-2.154Z" transform="translate(0 -164.792)" fill="#818181"/>
      <path id="Path_38" data-name="Path 38" d="M245.9,212.909a40.858,40.858,0,0,0,14.253-19.269,2.153,2.153,0,0,1,.022.276v16.838a2.205,2.205,0,0,1-1.713,2.154Z" transform="translate(-228.924 -191.648)" fill="#818181"/>
    </g>
    <circle id="Ellipse_4" data-name="Ellipse 4" cx="2.691" cy="2.691" r="2.691" transform="translate(18.693 51.314)" fill="#c7c7c7"/>
    <circle id="Ellipse_5" data-name="Ellipse 5" cx="2.691" cy="2.691" r="2.691" transform="translate(22.558 51.314)" fill="#c7c7c7"/>
    <g id="Group_44" data-name="Group 44" transform="translate(2.916 52.9)">
      <path id="Path_39" data-name="Path 39" d="M48.556,320.09H43.329a1.1,1.1,0,0,1,0-2.21h5.227a1.1,1.1,0,0,1,0,2.21Z" transform="translate(-42.224 -312.21)" fill="#fff"/>
      <path id="Path_40" data-name="Path 40" d="M53.225,237.978h-9.9a1.1,1.1,0,1,1,0-2.21h9.9a1.1,1.1,0,1,1,0,2.21Z" transform="translate(-42.224 -235.768)" fill="#fff"/>
    </g>
    <path id="Path_41" data-name="Path 41" d="M46.55,402.2H43.313a1.1,1.1,0,0,1,0-2.21H46.55a1.1,1.1,0,0,1,0,2.21Z" transform="translate(-39.293 -335.752)" fill="#c7c7c7"/>
    <path id="Path_42" data-name="Path 42" d="M143,402.2h-3.237a1.1,1.1,0,0,1,0-2.21H143a1.1,1.1,0,0,1,0,2.21Z" transform="translate(-129.081 -335.752)" fill="#c7c7c7"/>
    <path id="Path_43" data-name="Path 43" d="M239.43,402.2h-3.237a1.1,1.1,0,0,1,0-2.21h3.237a1.1,1.1,0,0,1,0,2.21Z" transform="translate(-218.854 -335.752)" fill="#c7c7c7"/>
    <path id="Path_44" data-name="Path 44" d="M335.862,402.2h-3.237a1.1,1.1,0,0,1,0-2.21h3.237a1.1,1.1,0,1,1,0,2.21Z" transform="translate(-308.628 -335.752)" fill="#c7c7c7"/>
  </g>
</svg>
