<svg xmlns="http://www.w3.org/2000/svg" xmlns:xlink="http://www.w3.org/1999/xlink" width="30.081" height="22.561" viewBox="0 0 30.081 22.561">
  <defs>
    <linearGradient id="linear-gradient" x1="0.5" x2="0.5" y2="1" gradientUnits="objectBoundingBox">
      <stop offset="0" stop-color="#6cafee"/>
      <stop offset="1" stop-color="#21d8a2"/>
    </linearGradient>
  </defs>
  <path id="envelope" d="M29.512,71.45a.354.354,0,0,1,.57.276V83.741a2.821,2.821,0,0,1-2.82,2.82H2.82A2.821,2.821,0,0,1,0,83.741V71.732a.351.351,0,0,1,.57-.276c1.316,1.022,3.061,2.321,9.054,6.674,1.24.9,3.331,2.808,5.417,2.8,2.1.018,4.23-1.927,5.423-2.8C26.456,73.776,28.2,72.472,29.512,71.45ZM15.041,79.041c1.363.024,3.325-1.716,4.312-2.432,7.8-5.658,8.39-6.151,10.188-7.561a1.406,1.406,0,0,0,.541-1.11V66.82A2.821,2.821,0,0,0,27.261,64H2.82A2.821,2.821,0,0,0,0,66.82v1.116a1.414,1.414,0,0,0,.541,1.11c1.8,1.4,2.391,1.9,10.188,7.561C11.715,77.325,13.678,79.064,15.041,79.041Z" transform="translate(0 -64)" fill="url(#linear-gradient)"/>
</svg>
