<svg xmlns="http://www.w3.org/2000/svg" width="39.76" height="39.76" viewBox="0 0 39.76 39.76">
  <g id="filter_1_" data-name="filter(1)" transform="translate(0 0)">
    <path id="Path_439" data-name="Path 439" d="M32.619,0H7.141A7.149,7.149,0,0,0,0,7.141V32.619A7.149,7.149,0,0,0,7.141,39.76H32.619a7.149,7.149,0,0,0,7.141-7.141V7.141A7.149,7.149,0,0,0,32.619,0ZM33.6,31.028H20.858a3.668,3.668,0,0,1-6.946,0H6.159a1.169,1.169,0,0,1,0-2.339h7.753a3.668,3.668,0,0,1,6.946,0H33.6A1.169,1.169,0,0,1,33.6,31.028Zm0-9.979H30.837a3.668,3.668,0,0,1-6.946,0H6.159a1.169,1.169,0,0,1,0-2.339H23.891a3.668,3.668,0,0,1,6.946,0H33.6A1.169,1.169,0,0,1,33.6,21.049Zm0-9.979H15.869a3.668,3.668,0,0,1-6.946,0H6.159a1.169,1.169,0,0,1,0-2.339H8.923a3.668,3.668,0,0,1,6.946,0H33.6a1.169,1.169,0,0,1,0,2.339Z" transform="translate(0 0)" fill="#21d8a2"/>
    <path id="Path_440" data-name="Path 440" d="M208.259,367.435a1.325,1.325,0,0,0,0,2.651A1.325,1.325,0,0,0,208.259,367.435Z" transform="translate(-190.873 -338.901)" fill="#21d8a2"/>
    <path id="Path_441" data-name="Path 441" d="M144.008,110.431a1.325,1.325,0,0,0,0,2.651A1.325,1.325,0,0,0,144.008,110.431Z" transform="translate(-131.612 -101.855)" fill="#21d8a2"/>
    <path id="Path_442" data-name="Path 442" d="M336.76,238.933a1.325,1.325,0,0,0,0,2.651A1.325,1.325,0,0,0,336.76,238.933Z" transform="translate(-309.395 -220.378)" fill="#21d8a2"/>
  </g>
</svg>
