<?xml version="1.0" encoding="UTF-8"?>
<svg xmlns="http://www.w3.org/2000/svg" xmlns:xlink="http://www.w3.org/1999/xlink" width="30pt" height="32pt" viewBox="0 0 30 32" version="1.1">
<g id="surface1">
<path style=" stroke:none;fill-rule:nonzero;fill:rgb(88.235294%,93.72549%,98.431373%);fill-opacity:1;" d="M 25.34375 9.828125 L 14.511719 2.140625 L 3.679688 9.828125 L 3.679688 29.636719 L 25.347656 29.636719 L 25.347656 9.828125 Z M 25.34375 9.828125 "/>
<path style=" stroke:none;fill-rule:nonzero;fill:rgb(80%,87.45098%,92.941176%);fill-opacity:1;" d="M 25.34375 9.828125 L 14.511719 2.140625 L 12.289062 3.71875 L 22.636719 11.058594 L 22.640625 11.058594 L 22.640625 29.636719 L 25.347656 29.636719 L 25.347656 9.828125 Z M 25.34375 9.828125 "/>
<path style=" stroke:none;fill-rule:nonzero;fill:rgb(100%,29.803922%,29.803922%);fill-opacity:1;" d="M 1.652344 12.914062 L 14.332031 3.917969 C 14.441406 3.839844 14.585938 3.839844 14.699219 3.917969 L 27.375 12.914062 C 27.730469 13.164062 28.195312 13.164062 28.554688 12.914062 C 29.1875 12.464844 29.1875 11.472656 28.554688 11.023438 L 14.699219 1.191406 C 14.585938 1.113281 14.441406 1.113281 14.332031 1.191406 L 0.476562 11.023438 C -0.160156 11.472656 -0.160156 12.464844 0.476562 12.914062 C 0.832031 13.164062 1.296875 13.164062 1.652344 12.914062 Z M 1.652344 12.914062 "/>
<path style=" stroke:none;fill-rule:nonzero;fill:rgb(100%,69.411765%,14.509804%);fill-opacity:1;" d="M 16.855469 9.398438 C 16.855469 10.777344 15.808594 11.894531 14.515625 11.894531 C 13.222656 11.894531 12.171875 10.777344 12.171875 9.398438 C 12.171875 8.015625 13.222656 6.898438 14.515625 6.898438 C 15.808594 6.898438 16.855469 8.015625 16.855469 9.398438 Z M 16.855469 9.398438 "/>
<path style=" stroke:none;fill-rule:nonzero;fill:rgb(100%,56.470588%,11.372549%);fill-opacity:1;" d="M 16.855469 9.398438 C 16.855469 9.234375 16.839844 9.078125 16.8125 8.921875 L 14.957031 8.921875 L 14.957031 6.945312 C 14.8125 6.914062 14.664062 6.898438 14.515625 6.898438 C 14.363281 6.898438 14.214844 6.914062 14.074219 6.945312 L 14.074219 8.921875 L 12.214844 8.921875 C 12.1875 9.078125 12.171875 9.234375 12.171875 9.398438 C 12.171875 9.558594 12.1875 9.714844 12.214844 9.867188 L 14.074219 9.867188 L 14.074219 11.851562 C 14.214844 11.878906 14.363281 11.894531 14.515625 11.894531 C 14.664062 11.894531 14.8125 11.878906 14.957031 11.851562 L 14.957031 9.867188 L 16.8125 9.867188 C 16.839844 9.714844 16.855469 9.558594 16.855469 9.398438 Z M 16.855469 9.398438 "/>
<path style=" stroke:none;fill-rule:nonzero;fill:rgb(100%,69.411765%,14.509804%);fill-opacity:1;" d="M 10.773438 18.835938 L 18.253906 18.835938 L 18.253906 30.867188 L 10.773438 30.867188 Z M 10.773438 18.835938 "/>
<path style=" stroke:none;fill-rule:nonzero;fill:rgb(100%,56.470588%,11.372549%);fill-opacity:1;" d="M 14.515625 18.835938 L 18.253906 18.835938 L 18.253906 30.867188 L 14.515625 30.867188 Z M 14.515625 18.835938 "/>
<path style=" stroke:none;fill-rule:nonzero;fill:rgb(17.647059%,34.509804%,44.313725%);fill-opacity:1;" d="M 27.484375 28.96875 L 1.542969 28.96875 C 1.050781 28.96875 0.652344 29.394531 0.652344 29.917969 C 0.652344 30.441406 1.050781 30.867188 1.542969 30.867188 L 27.484375 30.867188 C 27.976562 30.867188 28.375 30.441406 28.375 29.917969 C 28.375 29.394531 27.976562 28.96875 27.484375 28.96875 Z M 27.484375 28.96875 "/>
<path style=" stroke:none;fill-rule:nonzero;fill:rgb(95.294118%,22.352941%,22.352941%);fill-opacity:1;" d="M 28.964844 12.347656 C 28.972656 12.328125 28.980469 12.304688 28.984375 12.285156 C 28.988281 12.273438 28.992188 12.261719 28.996094 12.25 C 29 12.226562 29.003906 12.207031 29.007812 12.183594 C 29.011719 12.171875 29.011719 12.160156 29.011719 12.148438 C 29.015625 12.121094 29.019531 12.09375 29.023438 12.066406 C 29.023438 12.039062 29.027344 12.011719 29.027344 11.980469 C 29.027344 11.96875 29.027344 11.957031 29.027344 11.945312 C 29.027344 11.925781 29.027344 11.902344 29.023438 11.878906 C 29.023438 11.867188 29.023438 11.855469 29.019531 11.84375 C 29.019531 11.820312 29.015625 11.796875 29.011719 11.773438 C 29.011719 11.761719 29.007812 11.75 29.007812 11.742188 C 29 11.71875 28.996094 11.695312 28.992188 11.671875 C 28.988281 11.660156 28.984375 11.648438 28.980469 11.640625 C 28.976562 11.617188 28.96875 11.59375 28.960938 11.570312 C 28.957031 11.558594 28.953125 11.550781 28.949219 11.539062 C 28.941406 11.515625 28.929688 11.492188 28.921875 11.472656 C 28.917969 11.460938 28.914062 11.453125 28.90625 11.445312 C 28.898438 11.421875 28.886719 11.398438 28.871094 11.375 C 28.871094 11.371094 28.867188 11.367188 28.867188 11.363281 C 28.789062 11.234375 28.683594 11.117188 28.554688 11.023438 L 27.167969 10.039062 L 27.015625 10.292969 C 26.742188 10.738281 26.183594 10.859375 25.769531 10.566406 L 14.699219 2.710938 C 14.585938 2.628906 14.441406 2.628906 14.332031 2.710938 L 1.652344 11.703125 C 1.296875 11.957031 0.832031 11.957031 0.476562 11.703125 C 0.34375 11.613281 0.238281 11.496094 0.164062 11.363281 C -0.128906 11.863281 -0.0273438 12.558594 0.476562 12.914062 C 0.839844 13.167969 1.3125 13.152344 1.675781 12.898438 L 14.332031 3.917969 C 14.441406 3.839844 14.585938 3.839844 14.699219 3.917969 L 27.375 12.914062 C 27.730469 13.164062 28.195312 13.164062 28.554688 12.914062 C 28.582031 12.894531 28.605469 12.871094 28.632812 12.851562 C 28.640625 12.84375 28.648438 12.835938 28.65625 12.828125 C 28.671875 12.8125 28.6875 12.796875 28.703125 12.785156 C 28.710938 12.773438 28.722656 12.765625 28.730469 12.753906 C 28.75 12.734375 28.765625 12.714844 28.78125 12.695312 C 28.835938 12.625 28.882812 12.550781 28.917969 12.472656 L 28.917969 12.46875 C 28.921875 12.460938 28.925781 12.453125 28.929688 12.441406 C 28.9375 12.421875 28.945312 12.402344 28.953125 12.382812 C 28.957031 12.371094 28.960938 12.359375 28.964844 12.347656 Z M 28.964844 12.347656 "/>
<path style=" stroke:none;fill-rule:nonzero;fill:rgb(11.372549%,28.235294%,34.901961%);fill-opacity:1;" d="M 28.371094 29.8125 C 28.367188 29.804688 28.367188 29.796875 28.367188 29.792969 C 28.363281 29.761719 28.359375 29.734375 28.351562 29.707031 C 28.351562 29.703125 28.351562 29.699219 28.347656 29.691406 C 28.34375 29.660156 28.335938 29.632812 28.324219 29.601562 C 28.324219 29.601562 28.324219 29.597656 28.324219 29.597656 C 28.3125 29.566406 28.300781 29.535156 28.285156 29.503906 C 28.140625 29.1875 27.835938 28.96875 27.484375 28.96875 L 25.667969 28.96875 L 25.667969 29.390625 C 25.667969 29.75 25.394531 30.042969 25.058594 30.042969 L 1.542969 30.042969 C 1.191406 30.042969 0.886719 29.820312 0.742188 29.503906 C 0.671875 29.664062 0.636719 29.84375 0.660156 30.035156 C 0.714844 30.515625 1.113281 30.867188 1.566406 30.867188 L 27.484375 30.867188 C 27.976562 30.867188 28.375 30.441406 28.375 29.917969 C 28.375 29.882812 28.375 29.847656 28.371094 29.8125 Z M 28.371094 29.8125 "/>
<path style=" stroke:none;fill-rule:nonzero;fill:rgb(100%,42.745098%,22.745098%);fill-opacity:1;" d="M 20.261719 30.867188 L 17.878906 30.867188 L 17.878906 13.113281 C 17.878906 12.410156 18.414062 11.839844 19.070312 11.839844 C 19.730469 11.839844 20.261719 12.410156 20.261719 13.113281 Z M 20.261719 30.867188 "/>
<path style=" stroke:none;fill-rule:nonzero;fill:rgb(92.941176%,34.117647%,16.078431%);fill-opacity:1;" d="M 19.070312 11.839844 C 18.855469 11.839844 18.652344 11.902344 18.476562 12.011719 C 18.832031 12.230469 19.070312 12.640625 19.070312 13.113281 L 19.070312 30.867188 L 20.261719 30.867188 L 20.261719 13.113281 C 20.261719 12.410156 19.730469 11.839844 19.070312 11.839844 Z M 19.070312 11.839844 "/>
<path style=" stroke:none;fill-rule:nonzero;fill:rgb(38.039216%,68.627451%,96.470588%);fill-opacity:1;" d="M 29.25 24.566406 L 8.890625 24.566406 C 8.476562 24.566406 8.144531 24.207031 8.144531 23.765625 L 8.144531 15.472656 C 8.144531 15.03125 8.476562 14.675781 8.890625 14.675781 L 29.25 14.675781 C 29.664062 14.675781 30 15.03125 30 15.472656 L 30 23.765625 C 30 24.207031 29.664062 24.566406 29.25 24.566406 Z M 29.25 24.566406 "/>
<path style=" stroke:none;fill-rule:nonzero;fill:rgb(33.333333%,63.529412%,94.117647%);fill-opacity:1;" d="M 29.25 14.675781 L 27.289062 14.675781 L 27.289062 22.550781 C 27.289062 22.992188 26.957031 23.351562 26.542969 23.351562 L 8.144531 23.351562 L 8.144531 23.765625 C 8.144531 24.207031 8.476562 24.566406 8.890625 24.566406 L 29.25 24.566406 C 29.664062 24.566406 30 24.207031 30 23.765625 L 30 15.472656 C 30 15.03125 29.664062 14.675781 29.25 14.675781 Z M 29.25 14.675781 "/>
<path style=" stroke:none;fill-rule:nonzero;fill:rgb(100%,100%,100%);fill-opacity:1;" d="M 14.074219 19.914062 C 14.554688 19.757812 14.910156 19.335938 14.910156 18.546875 C 14.910156 17.464844 14.234375 17.121094 13.394531 17.121094 L 12.125 17.121094 C 11.964844 17.121094 11.859375 17.25 11.859375 17.394531 L 11.859375 21.832031 C 11.859375 22.019531 12.070312 22.113281 12.273438 22.113281 C 12.484375 22.113281 12.691406 22.019531 12.691406 21.832031 L 12.691406 20.050781 L 13.226562 20.050781 L 14.136719 21.9375 C 14.203125 22.074219 14.308594 22.148438 14.425781 22.148438 C 14.667969 22.148438 14.945312 21.910156 14.945312 21.683594 C 14.945312 21.65625 14.9375 21.609375 14.910156 21.574219 Z M 13.394531 19.355469 L 12.691406 19.355469 L 12.691406 17.898438 L 13.394531 17.898438 C 13.8125 17.898438 14.078125 18.089844 14.078125 18.628906 C 14.078125 19.171875 13.8125 19.355469 13.394531 19.355469 Z M 13.394531 19.355469 "/>
<path style=" stroke:none;fill-rule:nonzero;fill:rgb(100%,100%,100%);fill-opacity:1;" d="M 18.277344 17.898438 C 18.445312 17.898438 18.542969 17.714844 18.542969 17.503906 C 18.542969 17.320312 18.457031 17.121094 18.277344 17.121094 L 16 17.121094 C 15.8125 17.121094 15.636719 17.21875 15.636719 17.402344 L 15.636719 21.832031 C 15.636719 22.019531 15.8125 22.113281 16 22.113281 L 18.277344 22.113281 C 18.457031 22.113281 18.542969 21.914062 18.542969 21.730469 C 18.542969 21.519531 18.445312 21.335938 18.277344 21.335938 L 16.46875 21.335938 L 16.46875 19.960938 L 17.441406 19.960938 C 17.621094 19.960938 17.703125 19.777344 17.703125 19.621094 C 17.703125 19.4375 17.605469 19.265625 17.441406 19.265625 L 16.46875 19.265625 L 16.46875 17.898438 Z M 18.277344 17.898438 "/>
<path style=" stroke:none;fill-rule:nonzero;fill:rgb(100%,100%,100%);fill-opacity:1;" d="M 21.84375 17.121094 C 21.632812 17.121094 21.429688 17.203125 21.429688 17.394531 L 21.429688 20.140625 L 20.191406 17.59375 C 19.996094 17.191406 19.871094 17.121094 19.570312 17.121094 C 19.359375 17.121094 19.15625 17.210938 19.15625 17.402344 L 19.15625 21.832031 C 19.15625 22.019531 19.359375 22.113281 19.570312 22.113281 C 19.777344 22.113281 19.988281 22.019531 19.988281 21.832031 L 19.988281 19.089844 L 21.363281 21.832031 C 21.472656 22.046875 21.644531 22.113281 21.84375 22.113281 C 22.050781 22.113281 22.261719 22.019531 22.261719 21.832031 L 22.261719 17.394531 C 22.261719 17.203125 22.050781 17.121094 21.84375 17.121094 Z M 21.84375 17.121094 "/>
<path style=" stroke:none;fill-rule:nonzero;fill:rgb(100%,100%,100%);fill-opacity:1;" d="M 25.820312 17.121094 L 23.113281 17.121094 C 22.933594 17.121094 22.851562 17.328125 22.851562 17.519531 C 22.851562 17.734375 22.945312 17.921875 23.113281 17.921875 L 24.054688 17.921875 L 24.054688 21.832031 C 24.054688 22.019531 24.257812 22.113281 24.46875 22.113281 C 24.675781 22.113281 24.886719 22.019531 24.886719 21.832031 L 24.886719 17.921875 L 25.820312 17.921875 C 25.988281 17.921875 26.082031 17.730469 26.082031 17.519531 C 26.082031 17.328125 26 17.121094 25.820312 17.121094 Z M 25.820312 17.121094 "/>
</g>
</svg>
