<?xml version="1.0" encoding="UTF-8"?>
<svg xmlns="http://www.w3.org/2000/svg" xmlns:xlink="http://www.w3.org/1999/xlink" width="16pt" height="18pt" viewBox="0 0 16 18" version="1.1">
<g id="surface1">
<path style=" stroke:none;fill-rule:nonzero;fill:rgb(53.72549%,57.647059%,85.490196%);fill-opacity:1;" d="M 0.3125 16.03125 L 0.3125 1.96875 C 0.3125 1.027344 0.992188 0.265625 1.828125 0.265625 L 10.984375 0.265625 L 10.984375 16.03125 Z M 0.3125 16.03125 "/>
<path style=" stroke:none;fill-rule:nonzero;fill:rgb(43.921569%,49.019608%,82.745098%);fill-opacity:1;" d="M 10.257812 0.265625 L 10.257812 5.40625 C 9.085938 6.210938 8.300781 7.664062 8.300781 9.320312 C 8.300781 10.050781 8.453125 10.761719 8.746094 11.40625 L 8.339844 12.777344 C 8.25 13.085938 8.320312 13.421875 8.523438 13.652344 C 8.667969 13.8125 8.859375 13.902344 9.058594 13.902344 C 9.136719 13.902344 9.21875 13.886719 9.296875 13.855469 L 10.257812 13.496094 L 10.257812 14.328125 L 10.984375 14.328125 L 10.984375 0.265625 Z M 10.257812 0.265625 "/>
<path style=" stroke:none;fill-rule:nonzero;fill:rgb(97.647059%,96.470588%,97.647059%);fill-opacity:1;" d="M 2.933594 2.109375 L 9.246094 2.109375 L 9.246094 5.660156 L 2.933594 5.660156 Z M 2.933594 2.109375 "/>
<path style=" stroke:none;fill-rule:nonzero;fill:rgb(34.117647%,40%,79.607843%);fill-opacity:1;" d="M 1.828125 17.734375 C 0.992188 17.734375 0.3125 16.972656 0.3125 16.03125 C 0.3125 15.089844 0.992188 14.328125 1.828125 14.328125 L 10.984375 14.328125 L 10.984375 17.734375 Z M 1.828125 17.734375 "/>
<path style=" stroke:none;fill-rule:nonzero;fill:rgb(97.647059%,96.470588%,97.647059%);fill-opacity:1;" d="M 10.984375 15.464844 L 1.828125 15.464844 C 1.550781 15.464844 1.324219 15.71875 1.324219 16.03125 C 1.324219 16.34375 1.550781 16.601562 1.828125 16.601562 L 10.984375 16.601562 Z M 10.984375 15.464844 "/>
<path style=" stroke:none;fill-rule:nonzero;fill:rgb(70.196078%,89.803922%,62.352941%);fill-opacity:1;" d="M 12.371094 5.589844 C 10.542969 5.589844 9.058594 7.261719 9.058594 9.320312 C 9.058594 10.054688 9.246094 10.738281 9.570312 11.3125 L 9.058594 13.046875 L 10.597656 12.46875 C 11.113281 12.835938 11.71875 13.046875 12.371094 13.046875 C 14.203125 13.046875 15.6875 11.378906 15.6875 9.320312 C 15.6875 7.261719 14.203125 5.589844 12.371094 5.589844 Z M 12.371094 5.589844 "/>
<path style=" stroke:none;fill-rule:nonzero;fill:rgb(58.431373%,83.921569%,64.313725%);fill-opacity:1;" d="M 14.953125 6.980469 C 14.980469 7.191406 14.996094 7.40625 14.996094 7.625 C 14.996094 10.070312 13.234375 12.054688 11.058594 12.054688 C 10.492188 12.054688 9.953125 11.917969 9.464844 11.675781 L 9.058594 13.046875 L 10.597656 12.46875 C 11.113281 12.835938 11.71875 13.046875 12.371094 13.046875 C 14.203125 13.046875 15.6875 11.378906 15.6875 9.320312 C 15.6875 8.433594 15.414062 7.621094 14.953125 6.980469 Z M 14.953125 6.980469 "/>
<path style=" stroke:none;fill-rule:nonzero;fill:rgb(97.647059%,96.470588%,97.647059%);fill-opacity:1;" d="M 12.878906 7.296875 C 12.878906 7.609375 12.652344 7.863281 12.371094 7.863281 C 12.09375 7.863281 11.867188 7.609375 11.867188 7.296875 C 11.867188 6.980469 12.09375 6.726562 12.371094 6.726562 C 12.652344 6.726562 12.878906 6.980469 12.878906 7.296875 Z M 12.878906 7.296875 "/>
<path style=" stroke:none;fill-rule:nonzero;fill:rgb(97.647059%,96.470588%,97.647059%);fill-opacity:1;" d="M 12.371094 11.910156 C 12.09375 11.910156 11.867188 11.65625 11.867188 11.34375 L 11.867188 9.566406 C 11.867188 9.253906 12.09375 9 12.371094 9 C 12.652344 9 12.878906 9.253906 12.878906 9.566406 L 12.878906 11.34375 C 12.878906 11.65625 12.652344 11.910156 12.371094 11.910156 Z M 12.371094 11.910156 "/>
<path style=" stroke:none;fill-rule:nonzero;fill:rgb(0%,0%,0%);fill-opacity:1;" d="M 9.480469 5.660156 L 9.480469 2.109375 C 9.480469 1.964844 9.375 1.847656 9.246094 1.847656 L 2.933594 1.847656 C 2.804688 1.847656 2.699219 1.964844 2.699219 2.109375 L 2.699219 5.660156 C 2.699219 5.808594 2.804688 5.925781 2.933594 5.925781 L 9.246094 5.925781 C 9.375 5.925781 9.480469 5.808594 9.480469 5.660156 Z M 9.011719 5.398438 L 3.167969 5.398438 L 3.167969 2.375 L 9.011719 2.375 Z M 9.011719 5.398438 "/>
<path style=" stroke:none;fill-rule:nonzero;fill:rgb(0%,0%,0%);fill-opacity:1;" d="M 4.828125 11.648438 L 2.933594 11.648438 C 2.804688 11.648438 2.699219 11.765625 2.699219 11.910156 C 2.699219 12.058594 2.804688 12.175781 2.933594 12.175781 L 4.828125 12.175781 C 4.957031 12.175781 5.0625 12.058594 5.0625 11.910156 C 5.0625 11.765625 4.957031 11.648438 4.828125 11.648438 Z M 4.828125 11.648438 "/>
<path style=" stroke:none;fill-rule:nonzero;fill:rgb(0%,0%,0%);fill-opacity:1;" d="M 4.828125 12.785156 L 2.933594 12.785156 C 2.804688 12.785156 2.699219 12.902344 2.699219 13.046875 C 2.699219 13.195312 2.804688 13.3125 2.933594 13.3125 L 4.828125 13.3125 C 4.957031 13.3125 5.0625 13.195312 5.0625 13.046875 C 5.0625 12.902344 4.957031 12.785156 4.828125 12.785156 Z M 4.828125 12.785156 "/>
<path style=" stroke:none;fill-rule:nonzero;fill:rgb(0%,0%,0%);fill-opacity:1;" d="M 12.371094 5.328125 C 11.96875 5.328125 11.578125 5.402344 11.21875 5.542969 L 11.21875 2.601562 C 11.21875 2.457031 11.113281 2.339844 10.984375 2.339844 C 10.855469 2.339844 10.75 2.457031 10.75 2.601562 L 10.75 5.769531 C 9.605469 6.433594 8.824219 7.777344 8.824219 9.320312 C 8.824219 10.035156 8.992188 10.734375 9.3125 11.347656 L 8.835938 12.964844 C 8.808594 13.058594 8.828125 13.164062 8.890625 13.234375 C 8.9375 13.285156 8.996094 13.3125 9.058594 13.3125 C 9.082031 13.3125 9.105469 13.308594 9.132812 13.296875 L 10.570312 12.757812 C 10.628906 12.796875 10.6875 12.835938 10.75 12.871094 L 10.75 14.0625 L 6.984375 14.0625 C 6.855469 14.0625 6.75 14.179688 6.75 14.328125 C 6.75 14.472656 6.855469 14.589844 6.984375 14.589844 L 10.75 14.589844 L 10.75 15.199219 L 1.828125 15.199219 C 1.421875 15.199219 1.089844 15.574219 1.089844 16.03125 C 1.089844 16.492188 1.421875 16.863281 1.828125 16.863281 L 10.75 16.863281 L 10.75 17.472656 L 1.828125 17.472656 C 1.121094 17.472656 0.546875 16.828125 0.546875 16.03125 C 0.546875 15.238281 1.121094 14.589844 1.828125 14.589844 L 5.890625 14.589844 C 6.019531 14.589844 6.125 14.472656 6.125 14.328125 C 6.125 14.179688 6.019531 14.0625 5.890625 14.0625 L 1.828125 14.0625 C 1.324219 14.0625 0.867188 14.304688 0.546875 14.691406 L 0.546875 1.96875 C 0.546875 1.171875 1.121094 0.527344 1.828125 0.527344 L 10.75 0.527344 L 10.75 1.371094 C 10.75 1.519531 10.855469 1.636719 10.984375 1.636719 C 11.113281 1.636719 11.21875 1.519531 11.21875 1.371094 L 11.21875 0.265625 C 11.21875 0.117188 11.113281 0 10.984375 0 L 1.828125 0 C 0.863281 0 0.078125 0.882812 0.078125 1.96875 L 0.078125 16.03125 C 0.078125 17.117188 0.863281 18 1.828125 18 L 10.984375 18 C 11.113281 18 11.21875 17.882812 11.21875 17.734375 L 11.21875 13.09375 C 11.585938 13.238281 11.976562 13.3125 12.371094 13.3125 C 13.308594 13.3125 14.195312 12.90625 14.863281 12.164062 C 14.953125 12.0625 14.953125 11.894531 14.863281 11.792969 C 14.773438 11.6875 14.625 11.6875 14.53125 11.789062 C 13.953125 12.429688 13.1875 12.785156 12.371094 12.785156 C 11.785156 12.785156 11.21875 12.597656 10.722656 12.246094 C 10.664062 12.207031 10.589844 12.195312 10.523438 12.21875 L 9.429688 12.632812 L 9.792969 11.398438 C 9.816406 11.324219 9.808594 11.238281 9.769531 11.171875 C 9.457031 10.621094 9.292969 9.976562 9.292969 9.320312 C 9.292969 7.410156 10.671875 5.855469 12.371094 5.855469 C 14.070312 5.855469 15.453125 7.410156 15.453125 9.320312 C 15.453125 9.863281 15.34375 10.382812 15.128906 10.867188 C 15.070312 10.996094 15.117188 11.15625 15.234375 11.21875 C 15.347656 11.285156 15.488281 11.234375 15.546875 11.101562 C 15.796875 10.546875 15.921875 9.945312 15.921875 9.320312 C 15.921875 7.117188 14.328125 5.328125 12.371094 5.328125 Z M 1.828125 16.335938 C 1.679688 16.335938 1.558594 16.199219 1.558594 16.03125 C 1.558594 15.863281 1.679688 15.726562 1.828125 15.726562 L 10.75 15.726562 L 10.75 16.335938 Z M 1.828125 16.335938 "/>
<path style=" stroke:none;fill-rule:nonzero;fill:rgb(0%,0%,0%);fill-opacity:1;" d="M 12.371094 6.464844 C 11.964844 6.464844 11.632812 6.835938 11.632812 7.296875 C 11.632812 7.753906 11.964844 8.128906 12.371094 8.128906 C 12.78125 8.128906 13.113281 7.753906 13.113281 7.296875 C 13.113281 6.835938 12.78125 6.464844 12.371094 6.464844 Z M 12.371094 7.601562 C 12.222656 7.601562 12.101562 7.464844 12.101562 7.296875 C 12.101562 7.128906 12.222656 6.992188 12.371094 6.992188 C 12.519531 6.992188 12.644531 7.128906 12.644531 7.296875 C 12.644531 7.464844 12.519531 7.601562 12.371094 7.601562 Z M 12.371094 7.601562 "/>
<path style=" stroke:none;fill-rule:nonzero;fill:rgb(0%,0%,0%);fill-opacity:1;" d="M 12.371094 8.734375 C 11.964844 8.734375 11.632812 9.109375 11.632812 9.566406 L 11.632812 11.34375 C 11.632812 11.800781 11.964844 12.175781 12.371094 12.175781 C 12.78125 12.175781 13.113281 11.800781 13.113281 11.34375 L 13.113281 9.566406 C 13.113281 9.109375 12.78125 8.734375 12.371094 8.734375 Z M 12.644531 11.34375 C 12.644531 11.511719 12.519531 11.648438 12.371094 11.648438 C 12.222656 11.648438 12.101562 11.511719 12.101562 11.34375 L 12.101562 9.566406 C 12.101562 9.398438 12.222656 9.265625 12.371094 9.265625 C 12.519531 9.265625 12.644531 9.398438 12.644531 9.566406 Z M 12.644531 11.34375 "/>
</g>
</svg>
