<svg xmlns="http://www.w3.org/2000/svg" width="49.631" height="49.871" viewBox="0 0 49.631 49.871">
  <g id="key_colored" data-name="key colored" transform="translate(-1.234 0.001)">
    <path id="Path_70" data-name="Path 70" d="M46.8,23.711A13.89,13.89,0,1,0,25.1,21.1L1.234,44.969,5.895,49.63l2.8-2.8,3.045,3.045,4.311-4.311-3.045-3.045,4.464-4.464L20.52,41.1l4.311-4.311-3.045-3.045,7.978-7.978A13.894,13.894,0,0,0,46.8,23.711ZM37.432,13.432a3.579,3.579,0,1,1,5.061,0A3.578,3.578,0,0,1,37.432,13.432Z" fill="#fbe200"/>
    <path id="Path_71" data-name="Path 71" d="M51.355,63.453,43.377,71.43l3.045,3.045-4.311,4.311-3.045-3.045L34.6,80.206l3.045,3.045-4.311,4.311-3.045-3.045-2.8,2.8-2.33-2.33L59.023,51.124a3.579,3.579,0,0,0,5.061-5.061l4.3-4.3A13.89,13.89,0,0,1,51.355,63.453Z" transform="translate(-21.592 -37.691)" fill="#febf01"/>
  </g>
</svg>
