<svg xmlns="http://www.w3.org/2000/svg" width="26.839" height="26.969" viewBox="0 0 26.839 26.969">
  <g id="key_colored" data-name="key colored" transform="translate(-1.234 0.001)">
    <path id="Path_70" data-name="Path 70" d="M25.873,12.822A7.511,7.511,0,1,0,14.141,11.41L1.234,24.318l2.52,2.52,1.517-1.517,1.647,1.647,2.331-2.331L7.6,22.99l2.414-2.414,1.647,1.647,2.331-2.331-1.647-1.647,4.314-4.314a7.514,7.514,0,0,0,9.211-1.109ZM20.809,7.264a1.935,1.935,0,1,1,2.737,0A1.935,1.935,0,0,1,20.809,7.264Z" fill="#fbe200"/>
    <path id="Path_71" data-name="Path 71" d="M39.324,53.49,35.01,57.8l1.647,1.647-2.331,2.331-1.647-1.647L30.264,62.55,31.911,64.2,29.58,66.528l-1.647-1.647L26.416,66.4l-1.26-1.26L43.47,46.823a1.935,1.935,0,0,0,2.737-2.737l2.327-2.327A7.512,7.512,0,0,1,39.324,53.49Z" transform="translate(-22.662 -39.56)" fill="#febf01"/>
  </g>
</svg>
