<svg xmlns="http://www.w3.org/2000/svg" width="24.67" height="24.789" viewBox="0 0 24.67 24.789">
  <g id="key" transform="translate(-1.234 0.001)">
    <path id="Path_46" data-name="Path 46" d="M23.882,11.786a6.9,6.9,0,1,0-10.783-1.3L1.234,22.352l2.317,2.317,1.394-1.394,1.514,1.514L8.6,22.646,7.088,21.132l2.219-2.219,1.514,1.514,2.143-2.143L11.45,16.77,15.415,12.8a6.906,6.906,0,0,0,8.467-1.019ZM19.227,6.677a1.779,1.779,0,1,1,2.516,0A1.779,1.779,0,0,1,19.227,6.677Z" transform="translate(0 0)" fill="#898989"/>
    <path id="Path_47" data-name="Path 47" d="M38.179,52.542l-3.965,3.965,1.514,1.514-2.143,2.143L32.07,58.65l-2.219,2.219,1.514,1.514-2.143,2.143-1.514-1.514-1.394,1.394-1.158-1.158L41.99,46.414A1.779,1.779,0,0,0,44.506,43.9l2.139-2.139a6.9,6.9,0,0,1-8.467,10.783Z" transform="translate(-22.764 -39.737)" fill="#707070"/>
  </g>
</svg>
