<svg id="Layout-Arrange" xmlns="http://www.w3.org/2000/svg" width="38" height="38" viewBox="0 0 38 38">
  <path id="bound" d="M0,0H38V38H0Z" fill="none"/>
  <g id="Group_4" data-name="Group 4" transform="translate(4.75 4.75)">
    <path id="Combined-Shape" d="M19.031,29a2.718,2.718,0,0,1-2.719-2.719V24.469a2.718,2.718,0,0,1,2.719-2.719h7.25A2.718,2.718,0,0,1,29,24.469v1.813A2.718,2.718,0,0,1,26.281,29ZM2.719,7.25A2.718,2.718,0,0,1,0,4.531V2.719A2.718,2.718,0,0,1,2.719,0h7.25a2.718,2.718,0,0,1,2.719,2.719V4.531A2.718,2.718,0,0,1,9.969,7.25Z" transform="translate(0.25 0.25)" fill="#015ca7"/>
    <path id="Combined-Shape-2" data-name="Combined-Shape" d="M2.719,29A2.718,2.718,0,0,1,0,26.281V13.594a2.718,2.718,0,0,1,2.719-2.719h7.25a2.718,2.718,0,0,1,2.719,2.719V26.281A2.718,2.718,0,0,1,9.969,29ZM19.031,18.125a2.718,2.718,0,0,1-2.719-2.719V2.719A2.718,2.718,0,0,1,19.031,0h7.25A2.718,2.718,0,0,1,29,2.719V15.406a2.718,2.718,0,0,1-2.719,2.719Z" transform="translate(0.25 0.25)" fill="#00c094" opacity="0.3"/>
  </g>
</svg>
