<svg xmlns="http://www.w3.org/2000/svg" width="44.875" height="45.611" viewBox="0 0 44.875 45.611">
  <g id="Layer_14" data-name="Layer 14" transform="translate(-1 -1)">
    <rect id="Rectangle_159" data-name="Rectangle 159" width="26" height="22" transform="translate(4 23)" fill="#f7d881"/>
    <path id="Path_331" data-name="Path 331" d="M54.656,37.15l-2.435-.544A9.976,9.976,0,0,1,45.828,32a9.976,9.976,0,0,1-6.393,4.605L37,37.15a20.6,20.6,0,0,0,8.239,16.479l.589.441.589-.441A20.6,20.6,0,0,0,54.656,37.15Z" transform="translate(-9.516 -8.195)" fill="#78b75b"/>
    <path id="Path_332" data-name="Path 332" d="M42.047,50.649c5.885-1.589,10.4-6.959,11.579-13.727l-1.405-.316A9.976,9.976,0,0,1,45.828,32a9.976,9.976,0,0,1-6.393,4.605L37,37.15a20.6,20.6,0,0,0,5.047,13.5Z" transform="translate(-9.516 -8.195)" fill="#96cc7f"/>
    <path id="Path_333" data-name="Path 333" d="M7.736,21.127h3.678V13.771a7.357,7.357,0,0,1,14.713,0v7.357h3.678a3.009,3.009,0,0,1,.736.1v-7.46A11.771,11.771,0,1,0,7,13.771v7.46A3.009,3.009,0,0,1,7.736,21.127Z" transform="translate(-1.586 -0.264)" fill="#c1c8d1"/>
    <path id="Path_334" data-name="Path 334" d="M2,36h8.828V49.242H2Z" transform="translate(-0.264 -9.252)" fill="#f5b95b"/>
    <path id="Path_335" data-name="Path 335" d="M23.414,43.761v-6.29a1.471,1.471,0,1,0-2.943,0v6.29a2.943,2.943,0,1,0,2.943,0Z" transform="translate(-4.758 -9.252)" fill="#c1c8d1"/>
    <ellipse id="Ellipse_36" data-name="Ellipse 36" cx="3.5" cy="5" rx="3.5" ry="5" transform="translate(33 30)" fill="#ebf7fe"/>
    <path id="Path_336" data-name="Path 336" d="M23.89,43.092V37.207a2.207,2.207,0,0,0-4.414,0v5.885a3.678,3.678,0,0,0,1.332,6.5,3.949,3.949,0,0,0,.875.118,3.678,3.678,0,0,0,2.207-6.621Zm-.839,4.657a2.207,2.207,0,1,1-2.472-3.627.736.736,0,0,0,.368-.64V37.207a.736.736,0,0,1,1.471,0V43.5a.736.736,0,0,0,.368.64,2.207,2.207,0,0,1,.265,3.627Z" transform="translate(-4.498 -8.988)"/>
    <path id="Path_337" data-name="Path 337" d="M45.3,28.219l-2.435-.537a9.291,9.291,0,0,1-5.885-4.267.736.736,0,0,0-1.265,0,9.233,9.233,0,0,1-3.818,3.5V23.805a3.678,3.678,0,0,0-2.207-3.369v-6.93a12.506,12.506,0,1,0-25.012,0v6.93a3.678,3.678,0,0,0-2.207,3.369v2.207H1.736A.736.736,0,0,0,1,26.748V39.99a.736.736,0,0,0,.736.736h.736v2.207A3.678,3.678,0,0,0,6.15,46.611h22.07A3.678,3.678,0,0,0,31.9,42.933v-.1a21.392,21.392,0,0,0,3.384,3.185l.589.441a.736.736,0,0,0,.883,0l.589-.441a21.444,21.444,0,0,0,8.534-17.067.736.736,0,0,0-.574-.736ZM6.15,13.506a11.035,11.035,0,0,1,22.07,0v6.621H25.277V13.506a8.092,8.092,0,0,0-16.185,0v6.621H6.15Zm17.656,6.621H10.564V13.506a6.621,6.621,0,0,1,13.242,0ZM9.828,27.484v2.943H2.471V27.484ZM2.471,39.254V36.312H9.828v2.943ZM9.828,34.84H2.471V31.9H9.828Zm20.6,8.092a2.207,2.207,0,0,1-2.207,2.207H6.15a2.207,2.207,0,0,1-2.207-2.207V40.726h6.621a.736.736,0,0,0,.736-.736V26.748a.736.736,0,0,0-.736-.736H3.943V23.805A2.207,2.207,0,0,1,6.15,21.6h22.07a2.207,2.207,0,0,1,2.207,2.207v3.678c-.221.066-.441.132-.669.184l-2.435.552a.736.736,0,0,0-.574.736A21.437,21.437,0,0,0,30.426,40.9Zm6.032,1.913-.147.11-.147-.11a19.973,19.973,0,0,1-7.945-15.3l1.847-.412a10.763,10.763,0,0,0,6.246-4.009,10.763,10.763,0,0,0,6.238,4.009l1.854.412A19.973,19.973,0,0,1,36.459,44.845Z" transform="translate(0 0)"/>
    <path id="Path_338" data-name="Path 338" d="M51.412,40.212,50.1,39.55l-.5.993a5.216,5.216,0,1,0,1.155.927Zm-.655,4.819a3.715,3.715,0,1,1-1.817-3.156l-1.986,3.973-1.471-1.994-1.177.883,2.207,2.943a.736.736,0,0,0,.589.294h.066a.736.736,0,0,0,.589-.4L50.088,42.9A3.62,3.62,0,0,1,50.757,45.031Z" transform="translate(-10.767 -10.19)"/>
  </g>
</svg>
