<svg xmlns="http://www.w3.org/2000/svg" width="32.609" height="32.609" viewBox="0 0 32.609 32.609">
  <g id="logout" transform="translate(0 -0.004)">
    <path id="Path_436" data-name="Path 436" d="M43.989,17.667a4.076,4.076,0,0,1,0-8.152h2.717V4.08A4.081,4.081,0,0,0,42.63,0H28.024a1.357,1.357,0,0,0-1.269,1.842l9.851,25.816a1.356,1.356,0,0,0,1.269.875H42.63a4.081,4.081,0,0,0,4.076-4.076V17.667Zm0,0" transform="translate(-24.967)" fill="#2196f3"/>
    <path id="Path_437" data-name="Path 437" d="M284.964,120.15a1.361,1.361,0,0,1-.838-1.256v-4.076h-5.435a1.359,1.359,0,1,1,0-2.717h5.435v-4.076a1.358,1.358,0,0,1,2.319-.961l5.435,5.435a1.357,1.357,0,0,1,0,1.921l-5.435,5.435A1.359,1.359,0,0,1,284.964,120.15Zm0,0" transform="translate(-259.669 -99.868)" fill="#607d8b"/>
    <path id="Path_438" data-name="Path 438" d="M11.748,2.922,3.583.2A2.736,2.736,0,0,0,0,2.783V27.24a2.731,2.731,0,0,0,1.84,2.579L10,32.54a2.875,2.875,0,0,0,.867.135,2.72,2.72,0,0,0,2.717-2.718V5.5a2.732,2.732,0,0,0-1.84-2.579Zm0,0" transform="translate(0 -0.062)" fill="#64b5f6"/>
  </g>
</svg>
