<svg id="money" xmlns="http://www.w3.org/2000/svg" width="39" height="39" viewBox="0 0 39 39">
  <circle id="Ellipse_37" data-name="Ellipse 37" cx="19.5" cy="19.5" r="19.5" fill="#ffe14d"/>
  <path id="Path_348" data-name="Path 348" d="M275.088,19.088A19.11,19.11,0,0,0,256,0V38.177A19.11,19.11,0,0,0,275.088,19.088Z" transform="translate(-236.912)" fill="#fb3"/>
  <g id="Group_110" data-name="Group 110" transform="translate(4.548 4.548)">
    <g id="Group_109" data-name="Group 109">
      <path id="Path_349" data-name="Path 349" d="M75.54,90.08A14.54,14.54,0,1,1,90.08,75.54,14.557,14.557,0,0,1,75.54,90.08Z" transform="translate(-61 -61)" fill="#fb3"/>
    </g>
  </g>
  <path id="Path_350" data-name="Path 350" d="M270.54,75.54A14.557,14.557,0,0,0,256,61V90.08A14.557,14.557,0,0,0,270.54,75.54Z" transform="translate(-236.912 -56.452)" fill="#e68a2e"/>
  <g id="Cent_2_" transform="translate(13.496 9.011)">
    <path id="Path_351" data-name="Path 351" d="M187.711,129.892V125.47c1.286.316,2.237,1.143,2.237,2.095a1.118,1.118,0,0,0,2.237,0c0-2.161-1.924-3.968-4.474-4.383v-1.209a1.118,1.118,0,1,0-2.237,0v1.209c-2.55.415-4.474,2.222-4.474,4.383s1.924,3.968,4.474,4.383v4.422c-1.286-.316-2.237-1.143-2.237-2.095a1.118,1.118,0,1,0-2.237,0c0,2.161,1.924,3.968,4.474,4.383v1.22a1.118,1.118,0,1,0,2.237,0v-1.22c2.55-.415,4.474-2.222,4.474-4.383S190.261,130.308,187.711,129.892Zm-4.474-2.327c0-.951.951-1.779,2.237-2.095v4.189C184.187,129.344,183.237,128.516,183.237,127.565Zm4.474,8.805v-4.189c1.286.316,2.237,1.143,2.237,2.095S189,136.054,187.711,136.37Z" transform="translate(-181 -120.854)" fill="#ffe14d"/>
  </g>
  <path id="Path_352" data-name="Path 352" d="M257.118,139.879v-1.22c2.55-.415,4.474-2.222,4.474-4.383s-1.924-3.968-4.474-4.383V125.47c1.286.316,2.237,1.143,2.237,2.095a1.118,1.118,0,1,0,2.237,0c0-2.161-1.924-3.968-4.474-4.383v-1.209A1.118,1.118,0,0,0,256,120.854V141A1.118,1.118,0,0,0,257.118,139.879Zm0-7.7c1.286.316,2.237,1.143,2.237,2.095s-.951,1.779-2.237,2.095Z" transform="translate(-236.912 -111.843)" fill="#fb3"/>
</svg>
