<svg id="money" xmlns="http://www.w3.org/2000/svg" width="19" height="19" viewBox="0 0 19 19">
  <circle id="Ellipse_37" data-name="Ellipse 37" cx="9.5" cy="9.5" r="9.5" fill="#ffe14d"/>
  <path id="Path_348" data-name="Path 348" d="M265.3,9.3A9.315,9.315,0,0,0,256,0V18.608A9.315,9.315,0,0,0,265.3,9.3Z" transform="translate(-246.696)" fill="#fb3"/>
  <g id="Group_110" data-name="Group 110" transform="translate(2.217 2.217)">
    <g id="Group_109" data-name="Group 109">
      <path id="Path_349" data-name="Path 349" d="M68.087,75.174a7.087,7.087,0,1,1,7.087-7.087A7.1,7.1,0,0,1,68.087,75.174Z" transform="translate(-61 -61)" fill="#fb3"/>
    </g>
  </g>
  <path id="Path_350" data-name="Path 350" d="M263.087,68.087A7.1,7.1,0,0,0,256,61V75.174A7.1,7.1,0,0,0,263.087,68.087Z" transform="translate(-246.696 -58.783)" fill="#e68a2e"/>
  <g id="Cent_2_" transform="translate(6.578 4.392)">
    <path id="Path_351" data-name="Path 351" d="M184.271,125.259V123.1c.627.154,1.09.557,1.09,1.021a.545.545,0,1,0,1.09,0,2.371,2.371,0,0,0-2.181-2.137V121.4a.545.545,0,1,0-1.09,0v.589a2.137,2.137,0,1,0,0,4.273v2.155c-.627-.154-1.09-.557-1.09-1.021a.545.545,0,1,0-1.09,0,2.371,2.371,0,0,0,2.181,2.137v.595a.545.545,0,1,0,1.09,0v-.595a2.137,2.137,0,1,0,0-4.273Zm-2.181-1.134c0-.464.463-.867,1.09-1.021v2.042C182.554,124.992,182.09,124.589,182.09,124.125Zm2.181,4.292v-2.042c.627.154,1.09.557,1.09,1.021S184.9,128.263,184.271,128.417Z" transform="translate(-181 -120.854)" fill="#ffe14d"/>
  </g>
  <path id="Path_352" data-name="Path 352" d="M256.545,130.127v-.595a2.137,2.137,0,1,0,0-4.273V123.1c.627.154,1.09.557,1.09,1.021a.545.545,0,0,0,1.09,0,2.371,2.371,0,0,0-2.181-2.137V121.4a.545.545,0,0,0-.545-.545v9.818A.545.545,0,0,0,256.545,130.127Zm0-3.752c.627.154,1.09.557,1.09,1.021s-.463.867-1.09,1.021Z" transform="translate(-246.696 -116.462)" fill="#fb3"/>
</svg>
