<svg id="name" xmlns="http://www.w3.org/2000/svg" width="19.599" height="17.149" viewBox="0 0 19.599 17.149">
  <path id="Path_318" data-name="Path 318" d="M17.353,64H2.246A2.248,2.248,0,0,0,0,66.246V76.453A2.248,2.248,0,0,0,2.246,78.7H17.353A2.248,2.248,0,0,0,19.6,76.453V66.246A2.248,2.248,0,0,0,17.353,64Zm0,0" transform="translate(0 -61.55)" fill="#eceff1"/>
  <path id="Path_319" data-name="Path 319" d="M175.772,0H172.1a1.431,1.431,0,0,0-1.429,1.429V3.062A1.431,1.431,0,0,0,172.1,4.491h3.675A1.431,1.431,0,0,0,177.2,3.062V1.429A1.431,1.431,0,0,0,175.772,0Zm0,0" transform="translate(-164.135)" fill="#607d8b"/>
  <path id="Path_320" data-name="Path 320" d="M110.751,151.374a2.041,2.041,0,1,1-2.041-2.042A2.041,2.041,0,0,1,110.751,151.374Zm0,0" transform="translate(-102.585 -143.616)" fill="#42a5f5"/>
  <path id="Path_321" data-name="Path 321" d="M69.1,277.332H66.246A2.248,2.248,0,0,0,64,279.578v.408a.613.613,0,0,0,.612.612h6.125a.613.613,0,0,0,.612-.612v-.408a2.248,2.248,0,0,0-2.246-2.246Zm0,0" transform="translate(-61.55 -266.716)" fill="#42a5f5"/>
  <g id="Group_106" data-name="Group 106" transform="translate(11.433 6.125)">
    <path id="Path_322" data-name="Path 322" d="M303.772,161.225H299.28a.612.612,0,0,1,0-1.225h4.491a.612.612,0,1,1,0,1.225Zm0,0" transform="translate(-298.668 -160)" fill="#607d8b"/>
    <path id="Path_323" data-name="Path 323" d="M303.772,246.557H299.28a.612.612,0,0,1,0-1.225h4.491a.612.612,0,1,1,0,1.225Zm0,0" transform="translate(-298.668 -242.066)" fill="#607d8b"/>
    <path id="Path_324" data-name="Path 324" d="M303.772,331.893H299.28a.612.612,0,1,1,0-1.225h4.491a.612.612,0,1,1,0,1.225Zm0,0" transform="translate(-298.668 -324.135)" fill="#607d8b"/>
  </g>
</svg>
