<svg xmlns="http://www.w3.org/2000/svg" width="17.058" height="17.338" viewBox="0 0 17.058 17.338">
  <g id="Layer_14" data-name="Layer 14" transform="translate(-1 -1)">
    <rect id="Rectangle_159" data-name="Rectangle 159" width="10" height="9" transform="translate(2 9)" fill="#f7d881"/>
    <path id="Path_331" data-name="Path 331" d="M43.711,33.957l-.926-.207A3.792,3.792,0,0,1,40.356,32a3.792,3.792,0,0,1-2.43,1.751L37,33.957a7.83,7.83,0,0,0,3.132,6.264l.224.168.224-.168A7.83,7.83,0,0,0,43.711,33.957Z" transform="translate(-25.933 -22.331)" fill="#78b75b"/>
    <path id="Path_332" data-name="Path 332" d="M38.918,39.089a6.377,6.377,0,0,0,4.4-5.218l-.534-.12A3.792,3.792,0,0,1,40.356,32a3.792,3.792,0,0,1-2.43,1.751L37,33.957a7.83,7.83,0,0,0,1.918,5.131Z" transform="translate(-25.933 -22.331)" fill="#96cc7f"/>
    <path id="Path_333" data-name="Path 333" d="M7.28,9.271h1.4v-2.8a2.8,2.8,0,0,1,5.593,0v2.8h1.4a1.144,1.144,0,0,1,.28.039V6.474A4.474,4.474,0,1,0,7,6.474V9.31A1.144,1.144,0,0,1,7.28,9.271Z" transform="translate(-4.322 -0.72)" fill="#c1c8d1"/>
    <path id="Path_334" data-name="Path 334" d="M2,36H5.356v5.033H2Z" transform="translate(-0.72 -25.213)" fill="#f5b95b"/>
    <path id="Path_335" data-name="Path 335" d="M20.678,38.95V36.559a.559.559,0,0,0-1.119,0V38.95a1.119,1.119,0,1,0,1.119,0Z" transform="translate(-12.966 -25.213)" fill="#c1c8d1"/>
    <ellipse id="Ellipse_36" data-name="Ellipse 36" cx="1.5" cy="2" rx="1.5" ry="2" transform="translate(13 12)" fill="#ebf7fe"/>
    <path id="Path_336" data-name="Path 336" d="M20.249,38.076V35.839a.839.839,0,1,0-1.678,0v2.237a1.4,1.4,0,0,0,.506,2.472,1.5,1.5,0,0,0,.333.045,1.4,1.4,0,0,0,.839-2.517Zm-.319,1.77a.839.839,0,1,1-.94-1.379.28.28,0,0,0,.14-.243V35.839a.28.28,0,0,1,.559,0V38.23a.28.28,0,0,0,.14.243.839.839,0,0,1,.1,1.379Z" transform="translate(-12.258 -24.492)"/>
    <path id="Path_337" data-name="Path 337" d="M17.84,11.347l-.926-.2a3.532,3.532,0,0,1-2.237-1.622.28.28,0,0,0-.481,0,3.509,3.509,0,0,1-1.451,1.331V9.669a1.4,1.4,0,0,0-.839-1.281V5.754a4.754,4.754,0,1,0-9.508,0V8.388a1.4,1.4,0,0,0-.839,1.281v.839H1.28a.28.28,0,0,0-.28.28v5.033a.28.28,0,0,0,.28.28h.28v.839a1.4,1.4,0,0,0,1.4,1.4h8.389a1.4,1.4,0,0,0,1.4-1.4V16.9a8.132,8.132,0,0,0,1.286,1.211l.224.168a.28.28,0,0,0,.336,0l.224-.168a8.151,8.151,0,0,0,3.244-6.488.28.28,0,0,0-.218-.28ZM2.957,5.754a4.195,4.195,0,1,1,8.389,0V8.271H10.228V5.754a3.076,3.076,0,1,0-6.152,0V8.271H2.957ZM9.669,8.271H4.635V5.754a2.517,2.517,0,1,1,5.033,0Zm-5.313,2.8v1.119h-2.8V11.067Zm-2.8,4.474V14.423h2.8v1.119Zm2.8-1.678h-2.8V12.745h2.8Zm7.83,3.076a.839.839,0,0,1-.839.839H2.957a.839.839,0,0,1-.839-.839V16.1H4.635a.28.28,0,0,0,.28-.28V10.787a.28.28,0,0,0-.28-.28H2.119V9.669a.839.839,0,0,1,.839-.839h8.389a.839.839,0,0,1,.839.839v1.4c-.084.025-.168.05-.254.07l-.926.21a.28.28,0,0,0-.218.28,8.149,8.149,0,0,0,1.4,4.541Zm2.293.727-.056.042-.056-.042a7.592,7.592,0,0,1-3.02-5.816l.7-.157a4.091,4.091,0,0,0,2.374-1.524,4.091,4.091,0,0,0,2.371,1.524l.7.157a7.592,7.592,0,0,1-3.02,5.816Z"/>
    <path id="Path_338" data-name="Path 338" d="M45.411,39.8l-.5-.252-.19.378a1.983,1.983,0,1,0,.439.352Zm-.249,1.832a1.412,1.412,0,1,1-.691-1.2l-.755,1.51-.559-.758-.447.336.839,1.119a.28.28,0,0,0,.224.112H43.8a.28.28,0,0,0,.224-.154l.886-1.773A1.376,1.376,0,0,1,45.163,41.633Z" transform="translate(-29.342 -27.77)"/>
  </g>
</svg>
