<svg id="phone" xmlns="http://www.w3.org/2000/svg" width="17" height="17" viewBox="0 0 17 17">
  <circle id="Ellipse_35" data-name="Ellipse 35" cx="8.5" cy="8.5" r="8.5" fill="#6aaf50"/>
  <path id="Path_329" data-name="Path 329" d="M111.77,106.733a1.1,1.1,0,0,0-.294-.294l-7.5-7.5Z" transform="translate(-97.959 -95.121)" fill="#4d8538"/>
  <path id="Path_330" data-name="Path 330" d="M110.1,105.359a.814.814,0,0,0-.918,0l-.4.273a1.241,1.241,0,0,1-1.459-.04,10.361,10.361,0,0,1-2.14-2.14,1.241,1.241,0,0,1-.04-1.459l.273-.4a.815.815,0,0,0,0-.918L104.281,99a1.1,1.1,0,0,0-1.424-.36h0a2.139,2.139,0,0,0-.965,2.769,15.406,15.406,0,0,0,2.623,4.044l.811.811a15.409,15.409,0,0,0,4.044,2.623,2.139,2.139,0,0,0,2.769-.965h0a1.1,1.1,0,0,0-.36-1.424Z" transform="translate(-98.262 -95.179)" fill="#fff"/>
</svg>
