<?xml version="1.0" encoding="UTF-8"?>
<svg xmlns="http://www.w3.org/2000/svg" xmlns:xlink="http://www.w3.org/1999/xlink" width="36pt" height="38pt" viewBox="0 0 36 38" version="1.1">
<g id="surface1">
<path style=" stroke:none;fill-rule:nonzero;fill:rgb(88.235294%,93.72549%,98.431373%);fill-opacity:1;" d="M 30.414062 11.667969 L 17.414062 2.542969 L 4.414062 11.667969 L 4.414062 35.195312 L 30.417969 35.195312 L 30.417969 11.667969 Z M 30.414062 11.667969 "/>
<path style=" stroke:none;fill-rule:nonzero;fill:rgb(80%,87.45098%,92.941176%);fill-opacity:1;" d="M 30.414062 11.667969 L 17.414062 2.542969 L 14.746094 4.414062 L 27.160156 13.132812 L 27.167969 13.132812 L 27.167969 35.195312 L 30.417969 35.195312 L 30.417969 11.667969 Z M 30.414062 11.667969 "/>
<path style=" stroke:none;fill-rule:nonzero;fill:rgb(100%,29.803922%,29.803922%);fill-opacity:1;" d="M 1.984375 15.332031 L 17.195312 4.652344 C 17.332031 4.558594 17.503906 4.558594 17.636719 4.652344 L 32.851562 15.332031 C 33.277344 15.632812 33.835938 15.632812 34.265625 15.332031 C 35.023438 14.800781 35.023438 13.621094 34.265625 13.089844 L 17.636719 1.414062 C 17.503906 1.320312 17.332031 1.320312 17.195312 1.414062 L 0.570312 13.089844 C -0.191406 13.621094 -0.191406 14.800781 0.570312 15.332031 C 1 15.632812 1.554688 15.632812 1.984375 15.332031 Z M 1.984375 15.332031 "/>
<path style=" stroke:none;fill-rule:nonzero;fill:rgb(100%,69.411765%,14.509804%);fill-opacity:1;" d="M 20.226562 11.160156 C 20.226562 12.796875 18.96875 14.125 17.417969 14.125 C 15.863281 14.125 14.605469 12.796875 14.605469 11.160156 C 14.605469 9.519531 15.863281 8.191406 17.417969 8.191406 C 18.96875 8.191406 20.226562 9.519531 20.226562 11.160156 Z M 20.226562 11.160156 "/>
<path style=" stroke:none;fill-rule:nonzero;fill:rgb(100%,56.470588%,11.372549%);fill-opacity:1;" d="M 20.226562 11.160156 C 20.226562 10.96875 20.210938 10.777344 20.175781 10.597656 L 17.945312 10.597656 L 17.945312 8.246094 C 17.777344 8.210938 17.597656 8.191406 17.417969 8.191406 C 17.234375 8.191406 17.058594 8.210938 16.886719 8.246094 L 16.886719 10.597656 L 14.65625 10.597656 C 14.625 10.777344 14.605469 10.964844 14.605469 11.160156 C 14.605469 11.351562 14.625 11.535156 14.65625 11.714844 L 16.886719 11.714844 L 16.886719 14.070312 C 17.058594 14.105469 17.234375 14.125 17.417969 14.125 C 17.597656 14.125 17.777344 14.105469 17.945312 14.070312 L 17.945312 11.714844 L 20.175781 11.714844 C 20.210938 11.535156 20.226562 11.351562 20.226562 11.160156 Z M 20.226562 11.160156 "/>
<path style=" stroke:none;fill-rule:nonzero;fill:rgb(100%,69.411765%,14.509804%);fill-opacity:1;" d="M 12.929688 22.367188 L 21.902344 22.367188 L 21.902344 36.65625 L 12.929688 36.65625 Z M 12.929688 22.367188 "/>
<path style=" stroke:none;fill-rule:nonzero;fill:rgb(100%,56.470588%,11.372549%);fill-opacity:1;" d="M 17.417969 22.367188 L 21.902344 22.367188 L 21.902344 36.65625 L 17.417969 36.65625 Z M 17.417969 22.367188 "/>
<path style=" stroke:none;fill-rule:nonzero;fill:rgb(17.647059%,34.509804%,44.313725%);fill-opacity:1;" d="M 32.980469 34.398438 L 1.851562 34.398438 C 1.261719 34.398438 0.785156 34.902344 0.785156 35.527344 C 0.785156 36.152344 1.261719 36.65625 1.851562 36.65625 L 32.980469 36.65625 C 33.570312 36.65625 34.050781 36.152344 34.050781 35.527344 C 34.050781 34.902344 33.570312 34.398438 32.980469 34.398438 Z M 32.980469 34.398438 "/>
<path style=" stroke:none;fill-rule:nonzero;fill:rgb(95.294118%,22.352941%,22.352941%);fill-opacity:1;" d="M 34.757812 14.664062 C 34.769531 14.636719 34.777344 14.613281 34.78125 14.589844 C 34.785156 14.574219 34.789062 14.558594 34.792969 14.546875 C 34.800781 14.519531 34.804688 14.496094 34.808594 14.46875 C 34.8125 14.457031 34.8125 14.441406 34.816406 14.425781 C 34.820312 14.394531 34.824219 14.359375 34.828125 14.328125 C 34.828125 14.292969 34.832031 14.261719 34.832031 14.230469 C 34.832031 14.214844 34.832031 14.199219 34.832031 14.1875 C 34.832031 14.160156 34.832031 14.132812 34.828125 14.105469 C 34.828125 14.089844 34.824219 14.078125 34.824219 14.0625 C 34.820312 14.035156 34.820312 14.007812 34.816406 13.980469 C 34.8125 13.96875 34.808594 13.957031 34.808594 13.941406 C 34.800781 13.914062 34.796875 13.886719 34.789062 13.859375 C 34.785156 13.847656 34.78125 13.835938 34.777344 13.820312 C 34.769531 13.792969 34.761719 13.765625 34.753906 13.738281 C 34.75 13.726562 34.742188 13.714844 34.738281 13.703125 C 34.730469 13.675781 34.71875 13.648438 34.707031 13.621094 C 34.699219 13.609375 34.695312 13.601562 34.691406 13.589844 C 34.675781 13.5625 34.664062 13.535156 34.648438 13.511719 C 34.644531 13.503906 34.640625 13.5 34.640625 13.496094 C 34.640625 13.496094 34.640625 13.496094 34.636719 13.496094 C 34.546875 13.339844 34.421875 13.199219 34.265625 13.089844 L 32.601562 11.921875 L 32.417969 12.222656 C 32.089844 12.75 31.421875 12.898438 30.925781 12.546875 L 17.636719 3.21875 C 17.503906 3.125 17.332031 3.125 17.195312 3.21875 L 1.984375 13.898438 C 1.554688 14.199219 1 14.199219 0.570312 13.898438 C 0.410156 13.789062 0.285156 13.648438 0.195312 13.496094 C -0.15625 14.085938 -0.03125 14.914062 0.570312 15.335938 C 1.007812 15.640625 1.578125 15.621094 2.011719 15.316406 L 17.195312 4.652344 C 17.332031 4.558594 17.503906 4.558594 17.636719 4.652344 L 32.851562 15.332031 C 33.277344 15.632812 33.835938 15.632812 34.265625 15.332031 C 34.296875 15.308594 34.328125 15.285156 34.359375 15.261719 C 34.367188 15.25 34.378906 15.242188 34.390625 15.234375 C 34.40625 15.214844 34.425781 15.199219 34.445312 15.179688 C 34.453125 15.167969 34.464844 15.160156 34.476562 15.148438 C 34.496094 15.125 34.519531 15.101562 34.539062 15.074219 C 34.605469 14.992188 34.65625 14.902344 34.699219 14.8125 L 34.703125 14.808594 C 34.707031 14.796875 34.710938 14.785156 34.714844 14.777344 C 34.726562 14.753906 34.738281 14.730469 34.746094 14.703125 C 34.75 14.691406 34.753906 14.675781 34.757812 14.664062 Z M 34.757812 14.664062 "/>
<path style=" stroke:none;fill-rule:nonzero;fill:rgb(11.372549%,28.235294%,34.901961%);fill-opacity:1;" d="M 34.042969 35.402344 C 34.042969 35.394531 34.042969 35.386719 34.039062 35.378906 C 34.035156 35.34375 34.03125 35.308594 34.023438 35.277344 C 34.023438 35.269531 34.019531 35.265625 34.019531 35.257812 C 34.011719 35.222656 34 35.1875 33.988281 35.152344 C 33.988281 35.152344 33.988281 35.148438 33.988281 35.148438 C 33.972656 35.109375 33.960938 35.070312 33.941406 35.035156 C 33.769531 34.660156 33.40625 34.398438 32.980469 34.398438 L 30.800781 34.398438 L 30.800781 34.902344 C 30.800781 35.328125 30.472656 35.671875 30.070312 35.671875 L 1.851562 35.671875 C 1.429688 35.671875 1.0625 35.414062 0.890625 35.035156 C 0.804688 35.222656 0.765625 35.4375 0.792969 35.667969 C 0.859375 36.238281 1.335938 36.65625 1.882812 36.65625 L 32.980469 36.65625 C 33.570312 36.65625 34.050781 36.152344 34.050781 35.527344 C 34.050781 35.484375 34.046875 35.441406 34.042969 35.402344 Z M 34.042969 35.402344 "/>
<path style=" stroke:none;fill-rule:nonzero;fill:rgb(100%,42.745098%,22.745098%);fill-opacity:1;" d="M 24.316406 36.65625 L 21.457031 36.65625 L 21.457031 15.570312 C 21.457031 14.738281 22.097656 14.0625 22.886719 14.0625 C 23.675781 14.0625 24.316406 14.738281 24.316406 15.570312 Z M 24.316406 36.65625 "/>
<path style=" stroke:none;fill-rule:nonzero;fill:rgb(92.941176%,34.117647%,16.078431%);fill-opacity:1;" d="M 22.886719 14.0625 C 22.625 14.0625 22.382812 14.136719 22.171875 14.265625 C 22.597656 14.527344 22.886719 15.011719 22.886719 15.570312 L 22.886719 36.65625 L 24.316406 36.65625 L 24.316406 15.570312 C 24.316406 14.738281 23.675781 14.0625 22.886719 14.0625 Z M 22.886719 14.0625 "/>
<path style=" stroke:none;fill-rule:nonzero;fill:rgb(38.039216%,68.627451%,96.470588%);fill-opacity:1;" d="M 35.101562 29.171875 L 10.671875 29.171875 C 10.175781 29.171875 9.773438 28.746094 9.773438 28.222656 L 9.773438 18.375 C 9.773438 17.851562 10.175781 17.425781 10.671875 17.425781 L 35.101562 17.425781 C 35.597656 17.425781 36 17.851562 36 18.375 L 36 28.222656 C 36 28.746094 35.597656 29.171875 35.101562 29.171875 Z M 35.101562 29.171875 "/>
<path style=" stroke:none;fill-rule:nonzero;fill:rgb(33.333333%,63.529412%,94.117647%);fill-opacity:1;" d="M 35.101562 17.425781 L 32.75 17.425781 L 32.75 26.78125 C 32.75 27.304688 32.347656 27.730469 31.851562 27.730469 L 9.773438 27.730469 L 9.773438 28.222656 C 9.773438 28.746094 10.175781 29.171875 10.671875 29.171875 L 35.101562 29.171875 C 35.597656 29.171875 36 28.746094 36 28.222656 L 36 18.375 C 36 17.851562 35.597656 17.425781 35.101562 17.425781 Z M 35.101562 17.425781 "/>
<path style=" stroke:none;fill-rule:nonzero;fill:rgb(100%,100%,100%);fill-opacity:1;" d="M 16.886719 23.648438 C 17.464844 23.460938 17.894531 22.960938 17.894531 22.027344 C 17.894531 20.738281 17.078125 20.332031 16.074219 20.332031 L 14.550781 20.332031 C 14.359375 20.332031 14.230469 20.484375 14.230469 20.65625 L 14.230469 25.925781 C 14.230469 26.144531 14.484375 26.261719 14.730469 26.261719 C 14.980469 26.261719 15.226562 26.144531 15.226562 25.925781 L 15.226562 23.8125 L 15.875 23.8125 L 16.964844 26.050781 C 17.042969 26.210938 17.171875 26.300781 17.308594 26.300781 C 17.601562 26.300781 17.933594 26.015625 17.933594 25.75 C 17.933594 25.714844 17.925781 25.660156 17.894531 25.621094 Z M 16.074219 22.984375 L 15.226562 22.984375 L 15.226562 21.257812 L 16.074219 21.257812 C 16.574219 21.257812 16.894531 21.484375 16.894531 22.125 C 16.894531 22.765625 16.574219 22.984375 16.074219 22.984375 Z M 16.074219 22.984375 "/>
<path style=" stroke:none;fill-rule:nonzero;fill:rgb(100%,100%,100%);fill-opacity:1;" d="M 21.933594 21.257812 C 22.132812 21.257812 22.25 21.039062 22.25 20.785156 C 22.25 20.566406 22.148438 20.332031 21.933594 20.332031 L 19.199219 20.332031 C 18.976562 20.332031 18.761719 20.445312 18.761719 20.664062 L 18.761719 25.925781 C 18.761719 26.148438 18.976562 26.261719 19.199219 26.261719 L 21.933594 26.261719 C 22.148438 26.261719 22.25 26.023438 22.25 25.804688 C 22.25 25.554688 22.132812 25.335938 21.933594 25.335938 L 19.761719 25.335938 L 19.761719 23.707031 L 20.929688 23.707031 C 21.144531 23.707031 21.242188 23.488281 21.242188 23.300781 C 21.242188 23.082031 21.128906 22.878906 20.929688 22.878906 L 19.761719 22.878906 L 19.761719 21.257812 Z M 21.933594 21.257812 "/>
<path style=" stroke:none;fill-rule:nonzero;fill:rgb(100%,100%,100%);fill-opacity:1;" d="M 26.214844 20.332031 C 25.960938 20.332031 25.714844 20.429688 25.714844 20.65625 L 25.714844 23.917969 L 24.230469 20.890625 C 23.992188 20.414062 23.847656 20.332031 23.488281 20.332031 C 23.234375 20.332031 22.988281 20.4375 22.988281 20.664062 L 22.988281 25.925781 C 22.988281 26.148438 23.234375 26.261719 23.488281 26.261719 C 23.730469 26.261719 23.984375 26.144531 23.984375 25.925781 L 23.984375 22.667969 L 25.636719 25.925781 C 25.769531 26.179688 25.976562 26.261719 26.214844 26.261719 C 26.460938 26.261719 26.714844 26.144531 26.714844 25.925781 L 26.714844 20.65625 C 26.714844 20.429688 26.460938 20.332031 26.214844 20.332031 Z M 26.214844 20.332031 "/>
<path style=" stroke:none;fill-rule:nonzero;fill:rgb(100%,100%,100%);fill-opacity:1;" d="M 30.984375 20.332031 L 27.734375 20.332031 C 27.519531 20.332031 27.417969 20.574219 27.417969 20.800781 C 27.417969 21.0625 27.535156 21.28125 27.734375 21.28125 L 28.863281 21.28125 L 28.863281 25.925781 C 28.863281 26.148438 29.109375 26.261719 29.363281 26.261719 C 29.609375 26.261719 29.863281 26.144531 29.863281 25.925781 L 29.863281 21.28125 L 30.984375 21.28125 C 31.183594 21.28125 31.300781 21.054688 31.300781 20.800781 C 31.300781 20.574219 31.199219 20.332031 30.984375 20.332031 Z M 30.984375 20.332031 "/>
</g>
</svg>
