<svg id="setting" xmlns="http://www.w3.org/2000/svg" width="33.347" height="32.38" viewBox="0 0 33.347 32.38">
  <path id="Path_313" data-name="Path 313" d="M7.642,0H25.705a7.534,7.534,0,0,1,7.642,7.42V24.959a7.534,7.534,0,0,1-7.642,7.42H7.642A7.534,7.534,0,0,1,0,24.96V7.42A7.534,7.534,0,0,1,7.642,0Z" fill="#3ffec6"/>
  <path id="Path_314" data-name="Path 314" d="M89.444,76.209a7.414,7.414,0,0,0,.041-.769,7.829,7.829,0,0,0-.042-.784l2.1-1.586a1.145,1.145,0,0,0,.273-1.5l-2.241-3.743a1.256,1.256,0,0,0-1.5-.493l-2.443.947a8.915,8.915,0,0,0-1.384-.78l-.37-2.536A1.233,1.233,0,0,0,82.664,64H78.182a1.24,1.24,0,0,0-1.213,1.009L76.6,67.52a9.288,9.288,0,0,0-1.383.778l-2.454-.955a1.259,1.259,0,0,0-1.489.508l-2.241,3.727a1.151,1.151,0,0,0,.286,1.525l2.077,1.57a7.412,7.412,0,0,0-.041.769,7.831,7.831,0,0,0,.042.784l-2.092,1.583a1.145,1.145,0,0,0-.273,1.5l2.241,3.743a1.253,1.253,0,0,0,1.5.5l2.442-.948a8.9,8.9,0,0,0,1.384.78l.37,2.535a1.235,1.235,0,0,0,1.211.966h4.482a1.24,1.24,0,0,0,1.213-1.011l.365-2.509a9.345,9.345,0,0,0,1.383-.777l2.456.952a1.247,1.247,0,0,0,1.491-.508L91.812,79.3a1.153,1.153,0,0,0-.286-1.525Zm-6.385-.769A2.638,2.638,0,1,1,80.423,72.9,2.591,2.591,0,0,1,83.059,75.44Z" transform="translate(-63.75 -59.25)" fill="#455a64"/>
</svg>
