<?xml version="1.0" encoding="UTF-8"?>
<svg xmlns="http://www.w3.org/2000/svg" xmlns:xlink="http://www.w3.org/1999/xlink" width="16pt" height="18pt" viewBox="0 0 16 18" version="1.1">
<g id="surface1">
<path style=" stroke:none;fill-rule:nonzero;fill:rgb(37.647059%,81.960784%,87.843137%);fill-opacity:1;" d="M 12.75 0.84375 C 12.199219 0.84375 11.75 1.347656 11.75 1.96875 L 11.75 16.03125 C 11.75 16.652344 11.300781 17.15625 10.75 17.15625 L 2.75 17.15625 L 2.75 1.96875 C 2.75 1.347656 3.199219 0.84375 3.75 0.84375 Z M 12.75 0.84375 "/>
<path style=" stroke:none;fill-rule:nonzero;fill:rgb(35.294118%,77.647059%,83.137255%);fill-opacity:1;" d="M 12.75 0.84375 C 12.199219 0.84375 11.75 1.347656 11.75 1.96875 L 11.75 16.03125 C 11.75 16.652344 11.300781 17.15625 10.75 17.15625 L 2.75 17.15625 L 2.75 13.476562 C 6.058594 11.234375 9.03125 7.28125 11.003906 0.84375 Z M 12.75 0.84375 "/>
<path style=" stroke:none;fill-rule:nonzero;fill:rgb(71.764706%,90.588235%,92.156863%);fill-opacity:1;" d="M 10.75 17.15625 L 1.75 17.15625 C 1.199219 17.15625 0.75 16.652344 0.75 16.03125 L 0.75 15.46875 L 9.75 15.46875 L 9.75 16.03125 C 9.75 16.652344 10.199219 17.15625 10.75 17.15625 Z M 10.75 17.15625 "/>
<path style=" stroke:none;fill-rule:nonzero;fill:rgb(34.117647%,74.901961%,80%);fill-opacity:1;" d="M 13.75 2.53125 L 11.75 2.53125 L 11.75 1.96875 C 11.75 1.347656 12.199219 0.84375 12.75 0.84375 C 13.300781 0.84375 13.75 1.347656 13.75 1.96875 Z M 13.75 2.53125 "/>
<path style=" stroke:none;fill-rule:nonzero;fill:rgb(100%,70.980392%,19.215686%);fill-opacity:1;" d="M 8.1875 3.21875 C 8.414062 2.8125 8 2.34375 7.640625 2.601562 C 7.546875 2.132812 6.953125 2.132812 6.859375 2.601562 C 6.5 2.34375 6.085938 2.816406 6.3125 3.21875 C 5.898438 3.324219 5.898438 3.988281 6.3125 4.09375 C 6.085938 4.5 6.5 4.96875 6.859375 4.710938 C 6.953125 5.179688 7.546875 5.179688 7.640625 4.710938 C 8 4.96875 8.417969 4.5 8.1875 4.09375 C 8.605469 3.988281 8.605469 3.324219 8.1875 3.21875 Z M 8.1875 3.21875 "/>
<path style=" stroke:none;fill-rule:nonzero;fill:rgb(24.705882%,70.980392%,76.862745%);fill-opacity:1;" d="M 6 7.03125 L 8.5 7.03125 L 8.5 7.59375 L 6 7.59375 Z M 6 7.03125 "/>
<path style=" stroke:none;fill-rule:nonzero;fill:rgb(24.705882%,70.980392%,76.862745%);fill-opacity:1;" d="M 6.75 5.90625 L 9.25 5.90625 L 9.25 6.46875 L 6.75 6.46875 Z M 6.75 5.90625 "/>
<path style=" stroke:none;fill-rule:nonzero;fill:rgb(24.705882%,70.980392%,76.862745%);fill-opacity:1;" d="M 5.25 5.90625 L 6.25 5.90625 L 6.25 6.46875 L 5.25 6.46875 Z M 5.25 5.90625 "/>
<path style=" stroke:none;fill-rule:nonzero;fill:rgb(24.705882%,70.980392%,76.862745%);fill-opacity:1;" d="M 4.75 8.4375 L 10.75 8.4375 L 10.75 9 L 4.75 9 Z M 4.75 8.4375 "/>
<path style=" stroke:none;fill-rule:nonzero;fill:rgb(24.705882%,70.980392%,76.862745%);fill-opacity:1;" d="M 3.75 8.4375 L 4.25 8.4375 L 4.25 9 L 3.75 9 Z M 3.75 8.4375 "/>
<path style=" stroke:none;fill-rule:nonzero;fill:rgb(24.705882%,70.980392%,76.862745%);fill-opacity:1;" d="M 4.75 9.5625 L 8.75 9.5625 L 8.75 10.125 L 4.75 10.125 Z M 4.75 9.5625 "/>
<path style=" stroke:none;fill-rule:nonzero;fill:rgb(24.705882%,70.980392%,76.862745%);fill-opacity:1;" d="M 9.25 9.5625 L 10.75 9.5625 L 10.75 10.125 L 9.25 10.125 Z M 9.25 9.5625 "/>
<path style=" stroke:none;fill-rule:nonzero;fill:rgb(24.705882%,70.980392%,76.862745%);fill-opacity:1;" d="M 4.75 10.6875 L 10.75 10.6875 L 10.75 11.25 L 4.75 11.25 Z M 4.75 10.6875 "/>
<path style=" stroke:none;fill-rule:nonzero;fill:rgb(24.705882%,70.980392%,76.862745%);fill-opacity:1;" d="M 3.75 10.6875 L 4.25 10.6875 L 4.25 11.25 L 3.75 11.25 Z M 3.75 10.6875 "/>
<path style=" stroke:none;fill-rule:nonzero;fill:rgb(24.705882%,70.980392%,76.862745%);fill-opacity:1;" d="M 4.75 11.8125 L 6.25 11.8125 L 6.25 12.375 L 4.75 12.375 Z M 4.75 11.8125 "/>
<path style=" stroke:none;fill-rule:nonzero;fill:rgb(24.705882%,70.980392%,76.862745%);fill-opacity:1;" d="M 6.75 11.8125 L 10.75 11.8125 L 10.75 12.375 L 6.75 12.375 Z M 6.75 11.8125 "/>
<path style=" stroke:none;fill-rule:nonzero;fill:rgb(24.705882%,70.980392%,76.862745%);fill-opacity:1;" d="M 4.75 12.9375 L 8.75 12.9375 L 8.75 13.5 L 4.75 13.5 Z M 4.75 12.9375 "/>
<path style=" stroke:none;fill-rule:nonzero;fill:rgb(24.705882%,70.980392%,76.862745%);fill-opacity:1;" d="M 3.75 12.9375 L 4.25 12.9375 L 4.25 13.5 L 3.75 13.5 Z M 3.75 12.9375 "/>
<path style=" stroke:none;fill-rule:nonzero;fill:rgb(24.705882%,70.980392%,76.862745%);fill-opacity:1;" d="M 4.75 14.0625 L 10.75 14.0625 L 10.75 14.625 L 4.75 14.625 Z M 4.75 14.0625 "/>
<path style=" stroke:none;fill-rule:nonzero;fill:rgb(24.705882%,70.980392%,76.862745%);fill-opacity:1;" d="M 9.25 12.9375 L 10.75 12.9375 L 10.75 13.5 L 9.25 13.5 Z M 9.25 12.9375 "/>
<path style=" stroke:none;fill-rule:nonzero;fill:rgb(57.254902%,33.72549%,22.745098%);fill-opacity:1;" d="M 13.5 4.21875 C 13.085938 4.21875 12.75 4.597656 12.75 5.0625 L 12.75 14.0625 L 14.25 14.0625 L 14.25 5.0625 C 14.25 4.597656 13.914062 4.21875 13.5 4.21875 Z M 13.5 4.21875 "/>
<path style=" stroke:none;fill-rule:nonzero;fill:rgb(100%,70.980392%,19.215686%);fill-opacity:1;" d="M 15.5 9 L 15 9 L 15 5.90625 C 15 5.75 14.886719 5.625 14.75 5.625 L 12.75 5.625 L 12.75 5.0625 L 14.75 5.0625 C 15.164062 5.0625 15.5 5.441406 15.5 5.90625 Z M 15.5 9 "/>
<path style=" stroke:none;fill-rule:nonzero;fill:rgb(100%,70.980392%,19.215686%);fill-opacity:1;" d="M 12.75 14.0625 L 13.5 15.75 L 14.25 14.0625 Z M 12.75 14.0625 "/>
<path style=" stroke:none;fill-rule:nonzero;fill:rgb(100%,70.980392%,19.215686%);fill-opacity:1;" d="M 12.75 7.875 L 14.25 7.875 L 14.25 8.4375 L 12.75 8.4375 Z M 12.75 7.875 "/>
</g>
</svg>
