<svg xmlns="http://www.w3.org/2000/svg" width="19.649" height="19.648" viewBox="0 0 19.649 19.648">
  <g id="testimonial" transform="translate(0 -0.005)">
    <g id="Group_22" data-name="Group 22" transform="translate(2.072 0.005)">
      <g id="Group_21" data-name="Group 21">
        <path id="Path_15" data-name="Path 15" d="M56.681,2.754h-.7c.105-.778.535-.817.733-.835a.384.384,0,0,0,.349-.382V.389a.384.384,0,0,0-.405-.383C55.446.074,54,.686,54,3.217v2a.605.605,0,0,0,.6.6h2.076a.605.605,0,0,0,.6-.6V3.358A.605.605,0,0,0,56.681,2.754Zm-.163,2.3h-1.75V3.217c0-1.766.785-2.259,1.529-2.4v.4c-.514.156-1.105.618-1.105,1.916a.384.384,0,0,0,.384.384h.943Z" transform="translate(-54 -0.005)" fill="#1ecca2"/>
      </g>
    </g>
    <g id="Group_24" data-name="Group 24" transform="translate(5.996 0.005)">
      <g id="Group_23" data-name="Group 23">
        <path id="Path_16" data-name="Path 16" d="M158.915,2.754h-.7c.105-.778.535-.817.733-.835a.384.384,0,0,0,.349-.382V.389a.384.384,0,0,0-.405-.383c-1.213.068-2.659.681-2.659,3.211v2a.605.605,0,0,0,.6.6h2.076a.605.605,0,0,0,.6-.6V3.358A.605.605,0,0,0,158.915,2.754Zm-.163,2.3H157V3.217c0-1.766.785-2.259,1.529-2.4v.4c-.514.156-1.105.618-1.105,1.916a.384.384,0,0,0,.384.384h.943Z" transform="translate(-156.234 -0.005)" fill="#1ecca2"/>
      </g>
    </g>
    <g id="Group_26" data-name="Group 26" transform="translate(10.285 2.993)">
      <g id="Group_25" data-name="Group 25">
        <path id="Path_17" data-name="Path 17" d="M268.655,77.977a.384.384,0,1,0,.112.271A.387.387,0,0,0,268.655,77.977Z" transform="translate(-268 -77.865)" fill="#1ecca2"/>
      </g>
    </g>
    <g id="Group_28" data-name="Group 28" transform="translate(0 2.993)">
      <g id="Group_27" data-name="Group 27">
        <path id="Path_18" data-name="Path 18" d="M12.828,77.864h-.484a.384.384,0,1,0,0,.768h.484a6.054,6.054,0,0,1,1.249,11.977.384.384,0,0,0-.3.376v2.23L11.408,90.85a.384.384,0,0,0-.271-.112H6.821a6.055,6.055,0,0,1-5.294-8.991.384.384,0,0,0-.671-.373A6.822,6.822,0,0,0,6.821,91.505h4.157l2.906,2.906a.384.384,0,0,0,.655-.271V91.288a6.821,6.821,0,0,0-1.712-13.424Z" transform="translate(0 -77.864)" fill="#1ecca2"/>
      </g>
    </g>
    <g id="Group_30" data-name="Group 30" transform="translate(4.718 6.816)">
      <g id="Group_29" data-name="Group 29">
        <path id="Path_19" data-name="Path 19" d="M132.766,177.492h-9.445a.384.384,0,1,0,0,.768h9.445a.384.384,0,1,0,0-.768Z" transform="translate(-122.937 -177.492)" fill="#1ecca2"/>
      </g>
    </g>
    <g id="Group_32" data-name="Group 32" transform="translate(4.718 8.863)">
      <g id="Group_31" data-name="Group 31">
        <path id="Path_20" data-name="Path 20" d="M132.766,230.825h-9.445a.384.384,0,0,0,0,.768h9.445a.384.384,0,1,0,0-.768Z" transform="translate(-122.937 -230.825)" fill="#1ecca2"/>
      </g>
    </g>
    <g id="Group_34" data-name="Group 34" transform="translate(4.718 10.909)">
      <g id="Group_33" data-name="Group 33">
        <path id="Path_21" data-name="Path 21" d="M132.766,284.158h-9.445a.384.384,0,1,0,0,.768h9.445a.384.384,0,1,0,0-.768Z" transform="translate(-122.937 -284.158)" fill="#1ecca2"/>
      </g>
    </g>
    <g id="Group_36" data-name="Group 36" transform="translate(9.129 12.956)">
      <g id="Group_35" data-name="Group 35">
        <path id="Path_22" data-name="Path 22" d="M243.289,337.492h-5.035a.384.384,0,1,0,0,.768h5.035a.384.384,0,1,0,0-.768Z" transform="translate(-237.871 -337.492)" fill="#1ecca2"/>
      </g>
    </g>
    <g id="Group_38" data-name="Group 38" transform="translate(6.963 12.956)">
      <g id="Group_37" data-name="Group 37">
        <path id="Path_23" data-name="Path 23" d="M181.836,337.491h-.006a.384.384,0,1,0,0,.768h.006a.384.384,0,1,0,0-.768Z" transform="translate(-181.446 -337.491)" fill="#1ecca2"/>
      </g>
    </g>
  </g>
</svg>
