<svg xmlns="http://www.w3.org/2000/svg" width="19.134" height="19.134" viewBox="0 0 19.134 19.134">
  <g id="translate" transform="translate(0)">
    <path id="Path_339" data-name="Path 339" d="M13.195,3.107,11.306,1.757A2.065,2.065,0,0,0,9.266,0H2.061A2.064,2.064,0,0,0,0,2.062V9.267a2.064,2.064,0,0,0,2.062,2.062h6.3a.561.561,0,0,0,.4-.957l1.609-1.609a.561.561,0,0,0,.957-.4V5.352l1.867-1.333a.561.561,0,0,0,0-.912Zm0,0" fill="#00d8e0"/>
    <path id="Path_340" data-name="Path 340" d="M160.128,3.107l-1.889-1.349A2.065,2.065,0,0,0,156.2,0h-3.562V11.328H155.3a.561.561,0,0,0,.4-.957L157.3,8.763a.56.56,0,0,0,.957-.4V5.352l1.867-1.333a.561.561,0,0,0,0-.912Zm0,0" transform="translate(-146.933)" fill="#00acb3"/>
    <path id="Path_341" data-name="Path 341" d="M100.776,96.148a2.377,2.377,0,0,1-1.226-.339,3.015,3.015,0,0,0,.79-1.738h.436a.316.316,0,0,0,0-.632H99.37v-.768a.316.316,0,1,0-.632,0v.768H97.331a.316.316,0,0,0,0,.632h.436a3.014,3.014,0,0,0,.79,1.738,2.379,2.379,0,0,1-1.226.339.316.316,0,1,0,0,.632,3.008,3.008,0,0,0,1.722-.54,3.007,3.007,0,0,0,1.722.54.316.316,0,1,0,0-.632ZM99.7,94.071a2.386,2.386,0,0,1-.65,1.343,2.387,2.387,0,0,1-.649-1.343Zm0,0" transform="translate(-93.39 -88.904)" fill="#fef4f5"/>
    <path id="Path_342" data-name="Path 342" d="M164,208.867H156.8a2.064,2.064,0,0,0-2.062,2.062v3.915l-1.867,1.333a.561.561,0,0,0,0,.912l1.889,1.349A2.065,2.065,0,0,0,156.8,220.2H164a2.064,2.064,0,0,0,2.062-2.062v-7.205A2.064,2.064,0,0,0,164,208.867Zm0,0" transform="translate(-146.933 -201.061)" fill="#54e360"/>
    <path id="Path_343" data-name="Path 343" d="M364.036,208.867h-3.6V220.2h3.6a2.064,2.064,0,0,0,2.062-2.062v-7.205A2.064,2.064,0,0,0,364.036,208.867Zm0,0" transform="translate(-346.964 -201.061)" fill="#00ab5e"/>
    <path id="Path_344" data-name="Path 344" d="M315.684,305.324a.35.35,0,0,1,.012-.06l1.159-3.777a.488.488,0,0,1,.5-.264c.228,0,.451.084.5.264l1.159,3.777a.267.267,0,0,1,.012.06c0,.186-.282.324-.492.324-.132,0-.234-.042-.264-.156l-.228-.8h-1.375l-.228.8c-.03.114-.132.156-.264.156C315.966,305.648,315.684,305.516,315.684,305.324Zm2.192-1.243-.523-1.843-.522,1.843Zm0,0" transform="translate(-303.887 -289.965)" fill="#fef4f5"/>
    <g id="Group_108" data-name="Group 108" transform="translate(5.704 3.454)">
      <path id="Path_345" data-name="Path 345" d="M154.319,94.146a.316.316,0,0,0,0-.632h-1.406v-.768a.316.316,0,0,0-.276-.313v1.713h.609a2.385,2.385,0,0,1-.609,1.3v.9a3.007,3.007,0,0,0,1.682.513.316.316,0,0,0,0-.632,2.378,2.378,0,0,1-1.226-.339,3.015,3.015,0,0,0,.79-1.738Zm0,0" transform="translate(-152.636 -92.433)" fill="#d5eded"/>
      <path id="Path_346" data-name="Path 346" d="M362.093,305.267l-1.159-3.777a.49.49,0,0,0-.5-.264v1.025l.519,1.833h-.519v.613h.688l.228.8c.03.114.132.156.264.156.21,0,.492-.138.492-.324a.26.26,0,0,0-.012-.06Zm0,0" transform="translate(-352.668 -293.423)" fill="#d5eded"/>
    </g>
  </g>
</svg>
