<svg xmlns="http://www.w3.org/2000/svg" width="43.406" height="43.406" viewBox="0 0 43.406 43.406">
  <g id="translate" transform="translate(0)">
    <path id="Path_339" data-name="Path 339" d="M29.933,7.047,25.647,3.986A4.684,4.684,0,0,0,21.022,0H4.677A4.682,4.682,0,0,0,0,4.677V21.022A4.682,4.682,0,0,0,4.677,25.7h14.3a1.272,1.272,0,0,0,.9-2.171l3.649-3.65a1.272,1.272,0,0,0,2.171-.9V12.142l4.235-3.025a1.272,1.272,0,0,0,0-2.069Zm0,0" transform="translate(0)" fill="#00d8e0"/>
    <path id="Path_340" data-name="Path 340" d="M169.63,7.047l-4.286-3.061A4.684,4.684,0,0,0,160.718,0h-8.082V25.7h6.039a1.272,1.272,0,0,0,.9-2.171l3.65-3.65a1.271,1.271,0,0,0,2.171-.9V12.142l4.235-3.025a1.272,1.272,0,0,0,0-2.069Zm0,0" transform="translate(-139.697)" fill="#00acb3"/>
    <path id="Path_341" data-name="Path 341" d="M105.547,100.96a5.392,5.392,0,0,1-2.782-.769,6.84,6.84,0,0,0,1.793-3.943h.988a.717.717,0,0,0,0-1.434h-3.19V93.072a.717.717,0,1,0-1.434,0v1.741h-3.19a.717.717,0,0,0,0,1.434h.989a6.838,6.838,0,0,0,1.793,3.943,5.4,5.4,0,0,1-2.781.769.717.717,0,1,0,0,1.434,6.824,6.824,0,0,0,3.907-1.225,6.822,6.822,0,0,0,3.907,1.225.717.717,0,1,0,0-1.434Zm-2.434-4.712a5.412,5.412,0,0,1-1.474,3.047,5.414,5.414,0,0,1-1.473-3.047Zm0,0" transform="translate(-88.791 -84.525)" fill="#fef4f5"/>
    <path id="Path_342" data-name="Path 342" d="M178.426,208.867H162.081a4.682,4.682,0,0,0-4.677,4.677v8.88l-4.235,3.025a1.271,1.271,0,0,0,0,2.069l4.286,3.061a4.684,4.684,0,0,0,4.626,3.986h16.345a4.682,4.682,0,0,0,4.677-4.677V213.543A4.682,4.682,0,0,0,178.426,208.867Zm0,0" transform="translate(-139.696 -191.159)" fill="#54e360"/>
    <path id="Path_343" data-name="Path 343" d="M368.607,208.867h-8.173v25.7h8.173a4.682,4.682,0,0,0,4.677-4.677V213.544A4.682,4.682,0,0,0,368.607,208.867Zm0,0" transform="translate(-329.877 -191.16)" fill="#00ab5e"/>
    <path id="Path_344" data-name="Path 344" d="M315.684,310.526a.794.794,0,0,1,.027-.137l2.629-8.568a1.106,1.106,0,0,1,1.13-.6c.518,0,1.022.191,1.145.6l2.629,8.568a.6.6,0,0,1,.027.137c0,.422-.64.735-1.117.735-.3,0-.531-.095-.6-.354l-.517-1.812h-3.12l-.518,1.812c-.068.259-.3.354-.6.354C316.324,311.262,315.684,310.962,315.684,310.526Zm4.972-2.82-1.186-4.182-1.185,4.182Zm0,0" transform="translate(-288.921 -275.685)" fill="#fef4f5"/>
    <g id="Group_108" data-name="Group 108" transform="translate(12.94 7.836)">
      <path id="Path_345" data-name="Path 345" d="M156.453,96.319a.717.717,0,0,0,0-1.434h-3.19V93.144a.717.717,0,0,0-.626-.711v3.886h1.383a5.411,5.411,0,0,1-1.383,2.949V101.3a6.82,6.82,0,0,0,3.816,1.165.717.717,0,0,0,0-1.434,5.4,5.4,0,0,1-2.782-.769,6.84,6.84,0,0,0,1.793-3.943Zm0,0" transform="translate(-152.636 -92.433)" fill="#d5eded"/>
      <path id="Path_346" data-name="Path 346" d="M364.2,310.393l-2.629-8.568a1.111,1.111,0,0,0-1.138-.6v2.326l1.178,4.157h-1.178v1.39h1.56l.518,1.812c.068.259.3.354.6.354.477,0,1.117-.313,1.117-.735a.588.588,0,0,0-.027-.137Zm0,0" transform="translate(-342.817 -283.525)" fill="#d5eded"/>
    </g>
  </g>
</svg>
